<?xml version="1.0" encoding="utf-8"?>
<!-- Generator: Adobe Illustrator 17.1.0, SVG Export Plug-In . SVG Version: 6.00 Build 0)  -->
<!DOCTYPE svg PUBLIC "-//W3C//DTD SVG 1.0//EN" "http://www.w3.org/TR/2001/REC-SVG-20010904/DTD/svg10.dtd">
<svg version="1.0" id="camping_doodle_set" xmlns="http://www.w3.org/2000/svg" xmlns:xlink="http://www.w3.org/1999/xlink" x="0px"
	 y="0px" viewBox="0 0 364.9 483.2" enable-background="new 0 0 364.9 483.2" xml:space="preserve">
<rect id="background" x="-88.2" y="-42.2" display="none" fill="#E6E6E6" width="1900" height="1900"/>
<g id="camp_fire">
	<g>
		<g>
			<path fill="#FFFFFF" d="M165.2,398.4c-33.3,19.8-71.7,32.1-105.1,52.9c-13.1,9.4-18.2,14.2-33.3,2.8
				C15.6,445.6,7.5,433.3,4.5,421c-4-18,1-18.9,17.2-23.6c11.1-2.8,22.2-5.7,32.3-8.5c24.3-6.6,48.5-9.4,73.8-13.2
				c13.1-1.9,23.2-7.6,36.4-0.9c14.1,7.6,12.1,17,0,25.5"/>
			<path d="M41.7,462.1c-4.3,0-9.2-2-15.8-6.9c-11.3-8.6-19.6-21-22.7-33.8c-4.2-18.8,1.5-20.4,16.9-24.9l1.3-0.4
				c11-2.8,22.3-5.7,32.3-8.5c20.1-5.5,39.9-8.3,60.8-11.3c4.3-0.6,8.7-1.3,13.1-1.9c3.3-0.5,6.5-1.2,9.5-1.9c9-2.1,17.5-4,27.7,1.1
				c6.8,3.6,10.3,7.8,10.6,12.5c0.3,5-3.3,10.3-10.4,15.3l-0.6-0.9c-15.5,9.1-32.4,16.7-48.7,24.1c-18.4,8.4-37.5,17-54.8,27.8
				l-1.7,1.2C52.3,458.6,47.4,462.1,41.7,462.1z M151.3,373c-4.5,0-8.8,1-13.6,2.1c-3.1,0.7-6.3,1.5-9.7,2
				c-4.4,0.7-8.8,1.3-13.1,1.9c-20.8,3-40.5,5.8-60.5,11.3C44.3,393.1,33,396,22,398.8l-1.2,0.4c-15,4.4-18.6,5.4-14.9,21.6
				c3,12.1,11.1,24.1,21.7,32.3c13.6,10.2,18.1,7,29.9-1.6l1.8-1.3c17.6-11,36.7-19.7,55.2-28.1c16.8-7.6,34.1-15.5,49.9-24.9
				l0.5,0.8c5.3-4,7.9-8.1,7.7-11.8c-0.2-3.7-3.3-7.1-9.1-10.2C159.2,373.8,155.2,373,151.3,373z"/>
		</g>
		<g>
			<path d="M41.3,460.9c-2.4,0-5.4-0.5-8.8-1.8c-13.5-5-18.7-15.9-24.2-27.5c-1.4-3-2.9-6.2-4.6-9.2l-0.3-0.6
				c-2.9-5.8-6-11.9,0.5-18.3l1.3,1.3C-0.4,410.3,2,415,5,421l0.3,0.6c1.7,3.1,3.2,6.2,4.6,9.3c5.3,11.2,10.4,21.8,23.2,26.5
				c7.3,2.7,12.9,2.1,16.2-1.6c5.7-6.3,4.1-20.1-0.8-29.7c-3.4-6.8-19.9-22.9-30.7-22.1c-3.7,0.2-6.2,2.4-7.6,6.7
				c-1.7,5.5-0.1,13,4.6,20.7c5.3,8.7,13,15.2,19.9,16.7c2.4-5.5,2.3-13.8-0.4-19.7c-1.3-2.9-3.9-6.6-8.6-7.8
				c-1.8-0.5-4.8-1.1-5.6,0.3c-1.4,2.5,3,9.9,6.4,12.9l-1.2,1.4c-3.5-3.1-8.9-11.3-6.8-15.1c1.1-2,3.7-2.4,7.7-1.2
				c4.3,1.1,7.6,4.2,9.7,8.9c3,6.6,3,16,0.1,22l-0.3,0.6L35,450c-7.5-1.3-16.1-8.3-21.8-17.7C8.3,424.1,6.6,416,8.5,410
				c1.7-5,4.8-7.6,9.2-7.9c11.7-0.8,28.8,15.9,32.4,23.2c6.7,13.5,5.3,26.4,0.5,31.8C48.9,459,46,460.9,41.3,460.9z"/>
		</g>
		<g>
			<g>
				<path d="M51.5,426.8c2.5-5.9,9.9-9,15.3-11.6c5.9-2.8,12.1-4.9,17.8-8.1c0.4-0.2,0-0.8-0.3-0.6c-6,3.4-12.6,5.7-18.9,8.6
					c-5.2,2.5-12.1,5.7-14.5,11.3C50.7,426.8,51.3,427.2,51.5,426.8L51.5,426.8z"/>
			</g>
		</g>
		<g>
			<g>
				<path d="M49.9,417.7c4-1.4,7.8-3.2,11.6-5.1c0.4-0.2,0-0.8-0.3-0.6c-3.7,1.9-7.5,3.7-11.4,5C49.3,417.2,49.5,417.9,49.9,417.7
					L49.9,417.7z"/>
			</g>
		</g>
		<g>
			<g>
				<path d="M57.5,407.9c-4.3,2.2-9.1,2.8-13.8,4.1c-0.4,0.1-0.2,0.8,0.2,0.7c4.7-1.3,9.6-1.9,13.9-4.2
					C58.2,408.2,57.9,407.6,57.5,407.9L57.5,407.9z"/>
			</g>
		</g>
		<g>
			<g>
				<path d="M69.8,434.3c9.8-6,20.3-10.5,31.3-13.8c3.2-1,12.1-2.7,12.2-7.4c0.2-9.7-15.6-5.9-16.8,1.4c0,0.2,0,0.3,0.2,0.4
					c3.8,2.2,8.1,0.7,11-2.4c0.2-0.2,0.1-0.4-0.1-0.5c-2.2-1.4-2.4-0.5-4.5,0.9c-0.4,0.2,0,0.8,0.3,0.6c0.3-0.2,0.6-0.4,0.9-0.6
					c0.5-0.4,1.2-0.5,2,0c-0.7,0.7-9.7,4.5-9.2,1.2c0.4-2.4,3.1-3.9,5-4.9c2.3-1.1,5-1.6,7.5-0.9c2.6,0.7,3.5,3.9,2.4,6.1
					c-0.8,1.6-2.9,2.4-4.4,3.2c-5.6,2.7-12,3.8-17.7,6c-7.2,2.7-14,6.2-20.5,10.2C69.1,433.9,69.4,434.5,69.8,434.3L69.8,434.3z"/>
			</g>
		</g>
		<g>
			<g>
				<path d="M145.1,387.6c-9.5,4.4-19.8,6.6-29.4,10.6c-0.4,0.2-0.2,0.8,0.2,0.7c9.7-4,20-6.2,29.6-10.6
					C145.9,388,145.5,387.4,145.1,387.6L145.1,387.6z"/>
			</g>
		</g>
		<g>
			<g>
				<path d="M161.8,375.5c-10.2,1.8-20.5,2.4-30.4,5.5c-0.4,0.1-0.2,0.8,0.2,0.7c9.9-3.1,20.3-3.8,30.4-5.5
					C162.4,376.1,162.2,375.5,161.8,375.5L161.8,375.5z"/>
			</g>
		</g>
		<g>
			<g>
				<path d="M165.5,377.4c-2.9,0.9-5.9,1-8.8,1.8c-0.4,0.1-0.2,0.8,0.2,0.7c2.9-0.9,5.9-1,8.8-1.8
					C166.1,377.9,165.9,377.2,165.5,377.4L165.5,377.4z"/>
			</g>
		</g>
		<g>
			<g>
				<path d="M169.5,381.6c-1.8,0.9-3.7,1.4-5.5,2.3c-0.4,0.2-0.1,0.8,0.3,0.6c1.8-0.9,3.7-1.4,5.5-2.3
					C170.3,382,169.9,381.4,169.5,381.6L169.5,381.6z"/>
			</g>
		</g>
		<g>
			<g>
				<path d="M161.3,399.6c1.8-3.8,1.9-7.8,0.5-11.8c-0.1-0.4-0.8-0.2-0.7,0.2c1.3,3.8,1.3,7.6-0.4,11.3
					C160.5,399.6,161.1,400,161.3,399.6L161.3,399.6z"/>
			</g>
		</g>
		<g>
			<g>
				<path d="M164.9,397.3c1.9-3.1,1.9-6.6,1-10c-0.1-0.4-0.8-0.2-0.7,0.2c0.8,3.2,0.9,6.5-0.9,9.4
					C164.1,397.3,164.7,397.6,164.9,397.3L164.9,397.3z"/>
			</g>
		</g>
		<g>
			<g>
				<path d="M158.5,403.2c0.9-4,0.3-7.7-1.4-11.3c-0.2-0.4-0.8-0.1-0.6,0.3c1.6,3.5,2.2,7,1.3,10.8
					C157.8,403.4,158.4,403.6,158.5,403.2L158.5,403.2z"/>
			</g>
		</g>
		<g>
			<g>
				<path d="M154.4,405c1.3-3.4,0.5-6.9-0.5-10.3c-0.1-0.4-0.8-0.2-0.7,0.2c0.9,3.3,1.7,6.6,0.5,10
					C153.5,405.3,154.2,405.4,154.4,405L154.4,405z"/>
			</g>
		</g>
		<g>
			<g>
				<path d="M149.8,407.8c0.9-3.1,0.4-6.3-0.5-9.4c-0.1-0.4-0.8-0.2-0.7,0.2c0.8,3,1.4,6,0.5,9C149,408,149.6,408.2,149.8,407.8
					L149.8,407.8z"/>
			</g>
		</g>
		<g>
			<g>
				<path d="M145.6,408.7c0.9-3-0.1-5.8-1.4-8.6c-0.2-0.4-0.8,0-0.6,0.3c1.3,2.6,2.2,5.2,1.3,8C144.8,409,145.5,409.1,145.6,408.7
					L145.6,408.7z"/>
			</g>
		</g>
		<g>
			<g>
				<path d="M54,455.2c4.9-4,2.2-13.8,1.2-19c-0.1-0.4-0.7-0.3-0.7,0.2c0.9,4.9,3.6,14.6-1.1,18.3C53.1,455,53.6,455.5,54,455.2
					L54,455.2z"/>
			</g>
		</g>
		<g>
			<g>
				<path d="M59.1,453c2-6.1,1.7-12.6-0.2-18.6c-0.1-0.4-0.8-0.2-0.7,0.2c1.9,6,2.2,12.3,0.2,18.3C58.3,453.2,59,453.4,59.1,453
					L59.1,453z"/>
			</g>
		</g>
		<g>
			<g>
				<path d="M62.8,449.3c1.6-4.5,1.6-9.2,1.2-13.9c0-0.4-0.7-0.4-0.7,0c0.4,4.7,0.4,9.3-1.1,13.7C62,449.5,62.7,449.7,62.8,449.3
					L62.8,449.3z"/>
			</g>
		</g>
		<g>
			<g>
				<path d="M66.9,445.2c2.1-4.2,2.1-8.8,1.4-13.4c-0.1-0.4-0.7-0.3-0.7,0.2c0.6,4.4,0.6,8.8-1.3,12.9
					C66.1,445.3,66.7,445.6,66.9,445.2L66.9,445.2z"/>
			</g>
		</g>
		<g>
			<g>
				<path d="M70.4,444.8c1.9-3.5,2.1-7.7,1.4-11.6c-0.1-0.4-0.7-0.3-0.7,0.2c0.7,3.7,0.4,7.7-1.3,11
					C69.6,444.8,70.2,445.2,70.4,444.8L70.4,444.8z"/>
			</g>
		</g>
		<g>
			<g>
				<path d="M75,443.5c1.5-4.1,2-8.5,1.9-12.8c0-0.4-0.7-0.4-0.7,0c0.2,4.3-0.3,8.6-1.8,12.6C74.2,443.8,74.9,443.9,75,443.5
					L75,443.5z"/>
			</g>
		</g>
		<g>
			<g>
				<path d="M79.8,439.8c2.9-3,2.2-8.4,2.4-12.2c0-0.4-0.7-0.4-0.7,0c-0.2,3.7,0.6,8.9-2.2,11.7C79,439.6,79.5,440.1,79.8,439.8
					L79.8,439.8z"/>
			</g>
		</g>
		<g>
			<g>
				<path d="M84.9,437.6c2.6-3.9,2.4-8.8,2.1-13.3c0-0.4-0.7-0.4-0.7,0c0.2,4.4,0.5,9.2-2,13C84.1,437.6,84.7,438,84.9,437.6
					L84.9,437.6z"/>
			</g>
		</g>
		<g>
			<g>
				<path d="M90.3,433.1c1.6-4.3,1.6-8.9,1.2-13.5c0-0.4-0.7-0.4-0.7,0c0.5,4.5,0.4,9-1.1,13.3C89.4,433.4,90.1,433.6,90.3,433.1
					L90.3,433.1z"/>
			</g>
		</g>
		<g>
			<g>
				<path d="M93.2,433.9c1.7-4,2.9-8.2,2.4-12.6c-0.1-0.4-0.8-0.4-0.7,0c0.6,4.3-0.6,8.4-2.3,12.3C92.5,434,93.1,434.3,93.2,433.9
					L93.2,433.9z"/>
			</g>
		</g>
		<g>
			<g>
				<path d="M97.6,431.6c2.1-4.1,2.1-8.8,2.4-13.3c0-0.4-0.7-0.4-0.7,0c-0.2,4.4-0.2,9-2.3,13C96.8,431.7,97.4,432,97.6,431.6
					L97.6,431.6z"/>
			</g>
		</g>
		<g>
			<g>
				<path d="M102,428c2.4-3.3,1.9-9.1,1.9-12.1c0,0-0.7,0-0.7,0c0,3,0.5,8.6-1.8,11.8C101.1,428,101.7,428.3,102,428L102,428z"/>
			</g>
		</g>
		<g>
			<g>
				<path d="M106.1,426.3c2.2-4.2,2.1-8.5,2.1-13.5c0-1-0.7-1-0.7,0c0,4,0.1,9.2-2,13.3C105.3,426.5,105.9,426.7,106.1,426.3
					L106.1,426.3z"/>
			</g>
		</g>
		<g>
			<g>
				<path d="M110.8,425.9c2.1-3.8,1.9-8.1,1.9-12.1c0-1-0.7-1-0.7,0c0,4,0.2,8.2-1.8,11.9C109.9,426.1,110.5,426.3,110.8,425.9
					L110.8,425.9z"/>
			</g>
		</g>
		<g>
			<g>
				<path d="M115.1,422.6c2.6-4,1.7-9.1,1.4-13.5c0-0.4-0.7-0.4-0.7,0c0.3,4.3,1.2,9.3-1.3,13.2C114.3,422.6,114.9,423,115.1,422.6
					L115.1,422.6z"/>
			</g>
		</g>
		<g>
			<g>
				<path d="M119,420.2c1.9-2.4,1.5-5.5,1.5-8.3c0-0.4-0.7-0.4-0.7,0c0,2.6,0.5,5.6-1.3,7.8C118.2,420,118.7,420.5,119,420.2
					L119,420.2z"/>
			</g>
		</g>
		<g>
			<g>
				<path d="M123.2,419.1c1.4-3.3,0.7-7,0.7-10.5c0-0.4-0.7-0.4-0.7,0c0,3.4,0.7,7-0.7,10.3C122.4,419.3,123.1,419.5,123.2,419.1
					L123.2,419.1z"/>
			</g>
		</g>
		<g>
			<g>
				<path d="M126.9,418.2c1.7-3.9,1.5-8.3,1-12.4c-0.1-0.4-0.7-0.4-0.7,0c0.5,4,0.7,8.3-0.9,12C126.1,418.3,126.7,418.7,126.9,418.2
					L126.9,418.2z"/>
			</g>
		</g>
		<g>
			<g>
				<path d="M131.7,415.2c2.2-3.6,1.3-8.5,0.7-12.5c-0.1-0.4-0.7-0.3-0.7,0.2c0.5,3.8,1.5,8.5-0.7,12
					C130.9,415.3,131.5,415.6,131.7,415.2L131.7,415.2z"/>
			</g>
		</g>
		<g>
			<g>
				<path d="M135.5,413.3c0.9-3.2,0.5-6.5,0.2-9.8c0-0.4-0.7-0.4-0.7,0c0.2,3.2,0.6,6.4-0.2,9.6
					C134.7,413.6,135.3,413.7,135.5,413.3L135.5,413.3z"/>
			</g>
		</g>
		<g>
			<g>
				<path d="M139.4,410.2c0-3.9-0.3-7.8-0.9-11.6c-0.1-0.4-0.7-0.3-0.7,0.2c0.6,3.8,0.9,7.6,0.9,11.4
					C138.7,410.7,139.4,410.7,139.4,410.2L139.4,410.2z"/>
			</g>
		</g>
		<g>
			<g>
				<path d="M141.9,408.8c0.2-2.3,0-4.6-0.2-6.9c0-0.4-0.7-0.4-0.7,0c0.2,2.3,0.4,4.6,0.2,6.9C141.2,409.3,141.9,409.3,141.9,408.8
					L141.9,408.8z"/>
			</g>
		</g>
		<g>
			<g>
				<path d="M106.8,394.4c-0.2-0.4-0.5-0.8-0.7-1.2c-0.2-0.4-0.8,0-0.6,0.3c0.2,0.4,0.5,0.8,0.7,1.2
					C106.4,395.1,107,394.8,106.8,394.4L106.8,394.4z"/>
			</g>
		</g>
		<g>
			<g>
				<path d="M112.1,391.1c-2.3-2.3-4.8-4.5-7.4-6.5c-0.4-0.3-0.7,0.3-0.3,0.6c2.6,2,5,4.1,7.3,6.4
					C111.9,391.9,112.4,391.4,112.1,391.1L112.1,391.1z"/>
			</g>
		</g>
		<g>
			<g>
				<path d="M97.6,386c-1.6-2-3.5-3.7-5.8-4.9c-0.4-0.2-0.7,0.4-0.3,0.6c2.3,1.2,4.1,2.8,5.7,4.8C97.3,386.8,97.8,386.3,97.6,386
					L97.6,386z"/>
			</g>
		</g>
		<g>
			<g>
				<path d="M90.7,384.9c0-1.1-0.6-1.9-1.6-2.2c-0.4-0.1-0.6,0.5-0.2,0.7c0.7,0.2,1.1,0.8,1.1,1.5C90.1,385.3,90.7,385.3,90.7,384.9
					L90.7,384.9z"/>
			</g>
		</g>
		<g>
			<g>
				<path d="M79.4,396.4c0-0.5-0.2-0.8-0.6-1.2c-0.3-0.3-0.8,0.2-0.5,0.5c0.2,0.2,0.3,0.4,0.4,0.7C78.8,396.8,79.5,396.8,79.4,396.4
					L79.4,396.4z"/>
			</g>
		</g>
		<g>
			<g>
				<path d="M64,392.6c-1.6-1-3.1-2.3-4.7-3.3c-1-0.6-2.5-1.4-3.5-0.6c-0.3,0.3,0.1,0.8,0.5,0.5c1-0.8,3.2,0.9,4,1.5
					c1.2,0.8,2.3,1.7,3.5,2.5C64.1,393.5,64.4,392.9,64,392.6L64,392.6z"/>
			</g>
		</g>
		<g>
			<g>
				<path d="M55.1,392c-0.9-1.1-2.1-1.7-3.4-2.2c-0.4-0.1-0.6,0.5-0.2,0.7c1.2,0.4,2.3,1,3.1,2C54.9,392.8,55.4,392.3,55.1,392
					L55.1,392z"/>
			</g>
		</g>
		<g>
			<g>
				<path d="M50.4,391.3c-0.8-0.5-1.5-1-2.4-1.2c-0.4-0.1-0.6,0.6-0.2,0.7c0.8,0.2,1.5,0.6,2.2,1.1
					C50.5,392.1,50.8,391.5,50.4,391.3L50.4,391.3z"/>
			</g>
		</g>
		<g>
			<g>
				<path d="M32.4,408.8c0,0,7-6.1,10.2-7.5c0.4-0.2,0.1-0.8-0.3-0.6c-3.5,1.6-10.5,4.1-10.5,8.1C31.7,408.8,32.4,408.8,32.4,408.8
					L32.4,408.8z"/>
			</g>
		</g>
		<g>
			<g>
				<path d="M32.9,405.1c-1.1,0.3-2.1,0.8-3.1,1.4c-0.3,0.2-0.2,0.6,0.2,0.6c0.6,0.1,1.2,0.4,1.8,0.4c0.2,0,0.4,0,0.4-0.2
					c0.5-1.5,1.9-2.3,3.3-3c0.3-0.2,0.1-0.8-0.3-0.6c-1.4,0.5-2.7,1.2-3.8,2.2c0.2,0.2,0.3,0.3,0.5,0.5c1-1,2.1-1.9,3.2-2.8
					c0.3-0.2-0.1-0.7-0.4-0.5c-1.8,1.1-3.9,1.6-5.8,2.5c-0.3,0.1-0.2,0.7,0.2,0.6c0.8,0,1.4-0.2,2.2-0.5c0.4-0.1,0.2-0.8-0.2-0.7
					c-0.7,0.2-1.3,0.4-2,0.4c0.1,0.2,0.1,0.4,0.2,0.6c1.9-0.9,3.9-1.5,5.8-2.5c-0.1-0.2-0.3-0.4-0.4-0.5c-1.1,0.9-2.2,1.8-3.2,2.8
					c-0.3,0.3,0.1,0.8,0.5,0.5c1.1-0.8,2.2-1.5,3.5-2c-0.1-0.2-0.2-0.4-0.3-0.6c-1.6,0.8-3,1.7-3.6,3.4c0.1-0.1,0.3-0.2,0.4-0.2
					c-0.7-0.1-1.3-0.4-1.9-0.5c0.1,0.2,0.1,0.4,0.2,0.6c0.9-0.6,1.9-1.1,2.9-1.3C33.5,405.6,33.3,404.9,32.9,405.1L32.9,405.1z"/>
			</g>
		</g>
		<g>
			<g>
				<path d="M44.7,419.1c-3.7,0.3-2,7.3-2,9.6c0.2,0,0.5-0.1,0.7-0.1c-0.7-2-0.9-4-0.9-6.1c0-0.4-0.7-0.4-0.7,0
					c0,2.2,0.2,4.3,0.9,6.3c0.1,0.4,0.7,0.3,0.7-0.1c0-1.8-1.5-8.7,1.3-8.9C45.2,419.8,45.2,419.1,44.7,419.1L44.7,419.1z"/>
			</g>
		</g>
		<g>
			<g>
				<path d="M41.8,418.7c-0.4-0.4-0.6-0.5-1.2-0.6c-0.1,0-0.3,0.1-0.3,0.3c-0.2,0.9,0,1.6,0.2,2.5c0.1,0.4,0.8,0.2,0.7-0.2
					c-0.2-0.7-0.4-1.4-0.2-2.1c-0.1,0.1-0.2,0.2-0.3,0.3c0.4,0,0.4,0.1,0.7,0.4C41.6,419.6,42.1,419.1,41.8,418.7L41.8,418.7z"/>
			</g>
		</g>
		<g>
			<g>
				<path d="M31.4,406.9c0.3-0.6,0.7-0.9,0.7-1.6c0-0.3-0.4-0.5-0.6-0.2c-0.2,0.2-0.3,0.3-0.5,0.5c0.2,0.1,0.4,0.2,0.6,0.3
					c0.1-0.4,0.5-0.5,0.7-0.8c0.2-0.3-0.3-0.7-0.5-0.4c-0.1,0.1-0.2,0.2-0.2,0.2c-0.3,0.3,0.2,0.8,0.5,0.5c0.2-0.1,0.5-0.1,0.7-0.1
					c0.4,0,0.4-0.7,0-0.7c-0.4,0-0.8,0.1-1.2,0.3c0.2,0.2,0.3,0.3,0.5,0.5c0.1-0.1,0.2-0.2,0.2-0.2c-0.2-0.1-0.4-0.3-0.5-0.4
					c-0.1,0.2-0.2,0.2-0.3,0.4c-0.2,0.2-0.3,0.4-0.4,0.7c-0.1,0.3,0.3,0.6,0.6,0.3c0.2-0.2,0.3-0.3,0.5-0.5
					c-0.2-0.1-0.4-0.2-0.6-0.2c0,0.5-0.4,0.8-0.6,1.2C30.6,407,31.2,407.3,31.4,406.9L31.4,406.9z"/>
			</g>
		</g>
		<g>
			<g>
				<path d="M39.6,450.7c-0.8,2.7,0.1,5.4,0.2,8.2c0,0.4,0.7,0.4,0.7,0c-0.1-2.7-1-5.3-0.2-8C40.4,450.5,39.7,450.3,39.6,450.7
					L39.6,450.7z"/>
			</g>
		</g>
		<g>
			<g>
				<path d="M36.5,453.8c0,0,0,2.7,0.2,4.1c0.1,0.4,0.7,0.3,0.7-0.1c-0.2-1.3-0.2-3-0.2-4H36.5L36.5,453.8z"/>
			</g>
		</g>
	</g>
	<g>
		<g>
			<path fill="#FFFFFF" d="M199.8,396.5c33.3,19.8,71.7,32.1,105.1,52.9c13.1,9.4,18.2,14.2,33.3,2.8c11.1-8.5,19.2-20.8,22.2-33.1
				c4-18-1-18.9-17.2-23.6c-11.1-2.8-22.2-5.7-32.3-8.5c-24.3-6.6-48.5-9.4-73.8-13.2c-13.1-1.9-23.2-7.6-36.4-0.9
				c-14.1,7.6-12.1,17,0,25.5"/>
			<path d="M323.3,460.3c-5.8,0-10.7-3.5-17.5-8.5l-1.8-1.3c-17.3-10.8-36.3-19.4-54.8-27.8c-16.3-7.4-33.1-15-48.7-24.1l-0.6,0.9
				c-7.1-5-10.7-10.3-10.4-15.3c0.3-4.7,3.8-8.9,10.6-12.5c10.2-5.2,18.7-3.2,27.7-1.1c3,0.7,6.2,1.4,9.5,1.9
				c4.4,0.7,8.8,1.3,13.1,1.9c20.9,3,40.7,5.9,60.8,11.3c10.1,2.8,21.4,5.7,32.3,8.5l1.3,0.4c15.3,4.5,21.1,6.1,16.9,24.9
				c-3.2,12.9-11.5,25.2-22.7,33.9C332.5,458.3,327.6,460.3,323.3,460.3z M200.5,395.3c15.8,9.4,33.2,17.3,49.9,24.9
				c18.5,8.4,37.7,17.1,55.2,28l1.8,1.3c11.9,8.6,16.3,11.8,30,1.6c10.6-8.1,18.7-20.2,21.7-32.3c3.6-16.2,0.1-17.2-14.9-21.6
				l-1.3-0.4c-10.9-2.8-22.2-5.7-32.3-8.5c-19.9-5.4-39.6-8.3-60.5-11.3c-4.4-0.6-8.7-1.3-13.1-1.9c-3.4-0.5-6.6-1.2-9.7-1.9
				c-8.9-2-16.5-3.8-25.8,0.9c-5.8,3.1-8.9,6.5-9.1,10.2c-0.2,3.7,2.4,7.7,7.7,11.8L200.5,395.3z"/>
		</g>
		<g>
			<path d="M323.7,459.1c-4.7,0-7.6-1.9-9.4-3.9c-4.8-5.3-6.2-18.3,0.5-31.8c3.7-7.3,20.8-23.9,32.4-23.2c4.4,0.3,7.5,3,9.2,7.9
				c1.9,6,0.2,14.1-4.7,22.2c-5.7,9.5-14.3,16.4-21.8,17.7l-0.7,0.1l-0.3-0.6c-3-5.9-2.9-15.4,0.1-22c2.1-4.7,5.5-7.7,9.8-8.9
				c4-1.1,6.6-0.7,7.7,1.2c2.1,3.8-3.3,12.1-6.8,15.1l-1.2-1.4c3.4-3,7.8-10.3,6.4-12.9c-0.8-1.4-3.8-0.8-5.6-0.3
				c-4.7,1.2-7.3,4.9-8.6,7.8c-2.7,5.9-2.8,14.3-0.4,19.7c6.8-1.5,14.6-8,19.9-16.7c4.6-7.7,6.3-15.2,4.6-20.7
				c-1.5-4.2-3.9-6.4-7.6-6.6c-10.7-0.7-27.3,15.4-30.7,22.1c-4.8,9.6-6.4,23.4-0.8,29.7c3.3,3.7,8.9,4.3,16.2,1.6
				c12.8-4.7,17.8-15.3,23.1-26.5c1.5-3.1,3-6.2,4.6-9.3l0.3-0.6c3-6,5.4-10.7-0.1-16.2l1.3-1.3c6.4,6.4,3.4,12.5,0.5,18.3l-0.3,0.6
				c-1.7,3.1-3.2,6.2-4.6,9.3c-5.5,11.6-10.7,22.5-24.2,27.5C329,458.6,326.1,459.1,323.7,459.1z"/>
		</g>
		<g>
			<g>
				<path d="M309.3,453.3c-0.5-3.8-0.7-7.4,0.2-11.2c0.6-2.5,1.3-4.9,1.3-7.6c0-1.1-0.4-2.5-1.2-3.3c-1.1-1.2-5.4-3.1-3.1-4
					c0.2-0.1,0.3-0.4,0.2-0.6c-2.5-2.9-6.5-4-10.1-5.1c-0.4-0.1-0.7-0.2-1.1-0.3c-1.1-0.5-1.3-0.4-0.5,0.5c1.5,0.3,3.1,0.5,4.6,0.8
					c3.6,0.6,7,1.5,10.4,2.8c0.2,0.1,0.5-0.1,0.4-0.3c-0.1-0.9,0.9-0.4,1.6-0.7c1.3-0.6,1.7-2,2.4-3.1c1.2-2.1,2.4-3.3,4.6-4.6
					c2.2-1.3,4.4-2.4,6-4.5c0.1-0.1,0.2-0.4,0-0.5c-4.6-3.6-9.8-5-15.4-6.2c-2.7-0.6-0.8,0.3,0.5,0.5c2.2,0.3,4.5,0.5,6.7,0.8
					c3.9,0.4,7.8,0.6,11.7,0.5c0.3,0,0.5-0.5,0.2-0.6c-1.3-0.6,1.1-1.4,1.8-1.9c2.2-1.6,4.8-1.5,7.4-2c0.2,0,0.3-0.3,0.2-0.5
					c-4-7.2-17.8-5-24.5-5.5c-0.4,0-0.4,0.7,0,0.7c5.4,0.4,10.9,0.1,16.3,1c1.3,0.2,2.5,0.6,3.7,1c0.9,0.3,5.9,2.8,1.3,3
					c-3.3,0.2-5,2.3-7.9,3.6c-0.2,0.1-0.2,0.5,0,0.6c1.7,1-0.9,0.1-1.7,0.1c-2.2,0-4.5-0.2-6.7-0.4c-3.9-0.3-7.8-0.9-11.7-1.3
					c-0.4,0-0.5,0.6-0.1,0.7c3.2,0.7,6.3,1.3,9.4,2.2c1.7,0.5,3.4,1.2,5,2.1c1.2,0.5,2.1,1.4,2.7,2.7c-0.9,0.9-1.9,1.6-2.9,2.2
					c-2,1.3-4.2,2.3-6,3.9c-2.1,1.9-0.9,5.3-5.1,5.2c-0.2,0-0.4,0.2-0.3,0.4c-0.2-0.6-5.9-1.6-6.7-1.7c-3-0.7-6.2-1.1-9.2-1.7
					c-0.4-0.1-0.6,0.6-0.2,0.7c2.2,0.6,4.3,1.2,6.5,1.9c1,0.3,8.2,3,4.4,3.9c-0.3,0.1-0.3,0.5-0.1,0.6c2.5,1.8,5.5,3.2,5.9,6.7
					c0.3,2.4-0.8,5.1-1.3,7.4c-0.9,3.8-0.7,7.7-0.2,11.5C308.7,453.9,309.4,453.7,309.3,453.3L309.3,453.3z"/>
			</g>
		</g>
		<g>
			<g>
				<path d="M307,433.4c-2.1,5.1-3.9,10-3,15.6c0.1,0.4,0.7,0.3,0.7-0.2c-0.9-5.5,0.9-10.3,3-15.3C307.9,433.2,307.2,433,307,433.4
					L307,433.4z"/>
			</g>
		</g>
		<g>
			<g>
				<path d="M301,446.9c-0.1-5.5,1.2-10.9,2.3-16.3c0.1-0.4-0.6-0.6-0.7-0.2c-1.2,5.5-2.4,10.9-2.3,16.5
					C300.4,447.3,301,447.3,301,446.9L301,446.9z"/>
			</g>
		</g>
		<g>
			<g>
				<path d="M299.5,427.6c-2.3,5-2.8,10.4-2.8,15.9c0,0.4,0.7,0.4,0.7,0c0-5.3,0.5-10.6,2.7-15.5
					C300.3,427.5,299.7,427.2,299.5,427.6L299.5,427.6z"/>
			</g>
		</g>
		<g>
			<g>
				<path d="M293.9,423.5c-1.6,5.8-2.4,11.7-1.4,17.7c0.1,0.4,0.7,0.3,0.7-0.2c-1-5.9-0.2-11.6,1.4-17.3
					C294.7,423.3,294,423.1,293.9,423.5L293.9,423.5z"/>
			</g>
		</g>
		<g>
			<g>
				<path d="M289.8,423.4c-3.5,4.7-3.7,12.3-1.6,17.6c0.2,0.4,0.8,0.2,0.7-0.2c-2-5.1-1.8-12.5,1.6-17
					C290.7,423.4,290.1,423.1,289.8,423.4L289.8,423.4z"/>
			</g>
		</g>
		<g>
			<g>
				<path d="M285,420.6c-3.9,4.1-3.3,10.5-3.1,15.7c0,0.4,0.7,0.4,0.7,0c-0.2-5-0.9-11.3,2.9-15.2
					C285.8,420.8,285.3,420.3,285,420.6L285,420.6z"/>
			</g>
		</g>
		<g>
			<g>
				<path d="M278.7,419.1c-1.9,4.9-2.7,9.8-1.8,14.9c0.1,0.4,0.7,0.3,0.7-0.2c-0.8-5,0-9.9,1.8-14.6
					C279.5,418.9,278.8,418.7,278.7,419.1L278.7,419.1z"/>
			</g>
		</g>
		<g>
			<g>
				<path d="M275.5,412.4c-2.7,5.6-3.5,11.6-3.7,17.7c0,0.4,0.7,0.4,0.7,0c0.3-6,1-11.9,3.6-17.4C276.3,412.3,275.7,412,275.5,412.4
					L275.5,412.4z"/>
			</g>
		</g>
		<g>
			<g>
				<path d="M273,405.9c-4.6,7.4-6.2,16.2-5.8,24.8c0,0.4,0.7,0.4,0.7,0c-0.3-8.5,1.2-17.2,5.7-24.5
					C273.8,405.9,273.2,405.5,273,405.9L273,405.9z"/>
			</g>
		</g>
		<g>
			<g>
				<path d="M264.9,413.2c-3,3.5-4.2,8.8-3.5,13.2c0.1,0.4,0.7,0.3,0.7-0.2c-0.7-4.2,0.6-9.3,3.4-12.6
					C265.7,413.4,265.2,412.9,264.9,413.2L264.9,413.2z"/>
			</g>
		</g>
		<g>
			<g>
				<path d="M260,409.8c-3.2,4.7-3.7,10.3-2.6,15.7c0.1,0.4,0.8,0.3,0.7-0.2c-1.1-5.3-0.6-10.7,2.5-15.2
					C260.9,409.8,260.3,409.5,260,409.8L260,409.8z"/>
			</g>
		</g>
		<g>
			<g>
				<path d="M255.9,406.4c-1.9,5.5-2.7,11.6-0.9,17.2c0.1,0.4,0.8,0.2,0.7-0.2c-1.8-5.5-0.9-11.5,0.9-16.9
					C256.7,406.2,256,406,255.9,406.4L255.9,406.4z"/>
			</g>
		</g>
		<g>
			<g>
				<path d="M252,405.8c-4.6,4.3-3.2,11-1.2,16.2c0.2,0.4,0.8,0.2,0.7-0.2c-1.9-5-3.3-11.4,1.1-15.6
					C252.8,406,252.3,405.5,252,405.8L252,405.8z"/>
			</g>
		</g>
		<g>
			<g>
				<path d="M246.6,420.7c-0.6-4.1-0.2-8.2,0.7-12.3c0.1-0.4-0.6-0.6-0.7-0.2c-0.9,4.2-1.3,8.4-0.7,12.6
					C246,421.4,246.7,421.2,246.6,420.7L246.6,420.7z"/>
			</g>
		</g>
		<g>
			<g>
				<path d="M242.6,416.2c-3-3.7-0.4-9.7,0.5-13.7c0.1-0.4-0.6-0.6-0.7-0.2c-1.1,4.4-3.6,10.4-0.4,14.4
					C242.4,417,242.9,416.6,242.6,416.2L242.6,416.2z"/>
			</g>
		</g>
		<g>
			<g>
				<path d="M237.5,412.9c-2.1,0.2,2.3-14.1,2.9-15.7c0.2-0.4-0.5-0.6-0.7-0.2c-0.7,1.8-6,16.9-2.2,16.6
					C238,413.5,238,412.8,237.5,412.9L237.5,412.9z"/>
			</g>
		</g>
		<g>
			<g>
				<path d="M238.6,392c-4.8,5.1-6.1,12.8-4.5,19.5c0.1,0.4,0.8,0.2,0.7-0.2c-1.5-6.4-0.3-13.9,4.3-18.8
					C239.4,392.2,239,391.7,238.6,392L238.6,392z"/>
			</g>
		</g>
		<g>
			<g>
				<path d="M232.1,400.1c-2.6,3.8-2.6,8.6-1.6,12.9c0.1,0.4,0.8,0.3,0.7-0.2c-0.9-4.2-0.9-8.8,1.6-12.4
					C233,400.1,232.4,399.8,232.1,400.1L232.1,400.1z"/>
			</g>
		</g>
		<g>
			<g>
				<path d="M228.2,399.2c-1.3,3.2-1.2,6.5-1,9.9c0,0.4,0.7,0.4,0.7,0c-0.2-3.2-0.4-6.5,0.9-9.5C229,399.2,228.4,398.8,228.2,399.2
					L228.2,399.2z"/>
			</g>
		</g>
		<g>
			<g>
				<path d="M225,402c-1.1,2-1.4,4.2-1.2,6.4c0,0.4,0.7,0.4,0.7,0c-0.2-2.1,0-4.2,1.1-6.1C225.8,401.9,225.2,401.6,225,402L225,402z
					"/>
			</g>
		</g>
		<g>
			<g>
				<path d="M220.5,408.1c-0.6-3.5-0.8-6.9-0.2-10.4c0.1-0.4-0.6-0.6-0.7-0.2c-0.6,3.7-0.4,7.2,0.2,10.8
					C220,408.7,220.6,408.5,220.5,408.1L220.5,408.1z"/>
			</g>
		</g>
		<g>
			<g>
				<path d="M216.6,403.9c-1.6-4.6,1-9.1,2.5-13.4c0.1-0.4-0.5-0.6-0.7-0.2c-1.6,4.4-4.2,9-2.5,13.8
					C216.1,404.5,216.8,404.3,216.6,403.9L216.6,403.9z"/>
			</g>
		</g>
		<g>
			<g>
				<path d="M216.7,388.5c-2.2-1.6-4.4,13.6-4,15.6c0.1,0.4,0.8,0.3,0.7-0.2c-0.5-2.5,0.2-5.4,0.6-7.8c0.1-0.5,1.7-7.4,2.3-7
					C216.7,389.3,217.1,388.7,216.7,388.5L216.7,388.5z"/>
			</g>
		</g>
		<g>
			<g>
				<path d="M211.8,390.5c-1.8,3.5-2.8,7.3-3.3,11.2c-0.1,0.4,0.6,0.4,0.7,0c0.5-3.8,1.4-7.5,3.2-10.9
					C212.6,390.4,212.1,390.1,211.8,390.5L211.8,390.5z"/>
			</g>
		</g>
		<g>
			<g>
				<path d="M207.2,392.9c-0.2,2.4-0.4,4.8-0.5,7.1c0,0.4,0.7,0.4,0.7,0c0-2.4,0.2-4.8,0.5-7.1C207.9,392.5,207.2,392.5,207.2,392.9
					L207.2,392.9z"/>
			</g>
		</g>
		<g>
			<g>
				<path d="M206.5,385.1c-2.2,3.4-4.2,8-2.6,12c0.2,0.4,0.8,0.2,0.7-0.2c-1.5-3.8,0.4-8.3,2.5-11.5
					C207.4,385.1,206.8,384.8,206.5,385.1L206.5,385.1z"/>
			</g>
		</g>
		<g>
			<g>
				<path d="M204.7,382.2c-1,1.6-1.9,3.2-2.6,4.9c-0.2,0.4,0.5,0.6,0.7,0.2c0.7-1.7,1.5-3.3,2.5-4.8
					C205.5,382.1,204.9,381.8,204.7,382.2L204.7,382.2z"/>
			</g>
		</g>
		<g>
			<g>
				<path d="M201.7,381.9c-0.2,0.4-0.6,1.4-1.2,1.2c-0.4-0.1-0.6,0.6-0.2,0.7c1,0.3,1.6-0.8,2-1.5
					C202.5,381.9,201.9,381.5,201.7,381.9L201.7,381.9z"/>
			</g>
		</g>
		<g>
			<g>
				<path d="M200,380c-0.7,0.5-1.2,1.2-1.5,2.1c-0.1,0.4,0.5,0.6,0.7,0.2c0.2-0.7,0.6-1.2,1.2-1.6C200.7,380.3,200.3,379.7,200,380
					L200,380z"/>
			</g>
		</g>
		<g>
			<g>
				<path d="M292.9,401.4c-8-2.5-16.4-1.9-24.7-2.4c-3.7-0.2-13.3-0.6-13.6-5.9c-0.1-1.6,1.3-2.9,2.5-3.7c0.5-0.3,1.1-0.6,1.7-0.7
					c0.4,0,0.7-0.1,1.1-0.1c2.4,0.2,2.1,0.9-0.9,1.9c0.2-0.2,0.2-0.6-0.1-0.6c-6.7-1-13.1-3-19.3-5.7c-0.4-0.2-0.8,0.4-0.3,0.6
					c2.8,1.3,5.7,2.3,8.7,3.3c1.5,0.5,3.1,0.9,4.7,1.3c0.6,0.1,4.9,1.5,5.1,1.3c-0.2,0.2-0.2,0.5,0.1,0.6c2.1,0.6,3.6,0.2,4.9-1.5
					c0.1-0.1,0.1-0.3,0-0.5c-3.2-3.3-10.6,0.7-8.6,5.2c2,4.4,8.5,4.7,12.5,5.1c8.8,0.9,17.6-0.2,26.1,2.5
					C293.2,402.2,293.4,401.5,292.9,401.4L292.9,401.4z"/>
			</g>
		</g>
		<g>
			<g>
				<path d="M292.3,391c-8-1.1-16.1-1.7-24-3.2c-0.4-0.1-0.6,0.6-0.2,0.7c7.9,1.5,16,2.1,24,3.2C292.5,391.7,292.7,391,292.3,391
					L292.3,391z"/>
			</g>
		</g>
		<g>
			<g>
				<path d="M287.2,384.5c-5,0.7-9.5-0.6-14.4-1.2c-5.8-0.7-11.5-1.2-17.2-2.5c-0.4-0.1-0.6,0.6-0.2,0.7c5.2,1.2,10.4,1.8,15.7,2.3
					c5.5,0.6,10.8,2.2,16.3,1.3C287.9,385.1,287.7,384.5,287.2,384.5L287.2,384.5z"/>
			</g>
		</g>
		<g>
			<g>
				<path d="M231.3,381.5c-4.5,0.2-9.2-0.3-13.6-1.1c-2.3-0.4-4.6-0.9-6.7-2c-3.2-1.8-0.1-3.8,2.4-3.9c0.9,0,1.9,0.1,2.8,0.2
					c0.3,0.1,0.6,0.1,0.8,0.2c1.3,0.1,1.9,0.9,2,2.3c-0.4,0-0.4,0.7,0,0.7c3.9,0.2-1.1-3.5-2.7-3.8c-1.7-0.4-8.6-0.8-7.6,2.9
					c0.9,3.1,6.1,3.8,8.7,4.2c4.5,0.8,9.2,1.3,13.8,1.1C231.7,382.2,231.7,381.5,231.3,381.5L231.3,381.5z"/>
			</g>
		</g>
		<g>
			<g>
				<path d="M232.9,387.5c-4.2-0.3-8.3-1.4-12.4-2.3c-0.4-0.1-0.6,0.6-0.2,0.7c4.2,0.9,8.3,2,12.5,2.3
					C233.3,388.2,233.3,387.5,232.9,387.5L232.9,387.5z"/>
			</g>
		</g>
		<g>
			<g>
				<path d="M228.6,391.3c-0.3,0.2-0.6,0.2-1,0.2c-0.4,0-0.4,0.7,0,0.7c0.5,0,0.9-0.1,1.3-0.3C229.3,391.7,229,391.1,228.6,391.3
					L228.6,391.3z"/>
			</g>
		</g>
		<g>
			<g>
				<path d="M268.7,405.3c-6.6-1.2-13.1-3-19.6-4.8c-0.4-0.1-0.6,0.5-0.2,0.7c6.5,1.8,13,3.6,19.6,4.8
					C269,406,269.2,405.4,268.7,405.3L268.7,405.3z"/>
			</g>
		</g>
		<g>
			<g>
				<path d="M306.6,415.7c-2.4-0.9-5-1.4-7.3-2.5c-0.4-0.2-0.8,0.4-0.3,0.6c2.4,1.1,5,1.6,7.5,2.6
					C306.8,416.5,307,415.8,306.6,415.7L306.6,415.7z"/>
			</g>
		</g>
		<g>
			<g>
				<path d="M325.3,436.6c-2,0.7-3.5,2.1-5,3.5c-0.3,0.3,0.2,0.8,0.5,0.5c1.4-1.4,2.8-2.7,4.7-3.4
					C325.9,437.2,325.7,436.5,325.3,436.6L325.3,436.6z"/>
			</g>
		</g>
		<g>
			<g>
				<path d="M327,440.4c-1.4,1.6-3.1,3.1-4.6,4.6c-0.3,0.3,0.2,0.8,0.5,0.5c1.5-1.5,3.2-3,4.6-4.6
					C327.7,440.6,327.3,440.1,327,440.4L327,440.4z"/>
			</g>
		</g>
		<g>
			<g>
				<path d="M334.5,419.5c0.9,3-0.9,7.1-1.6,10c-0.1,0.4,0.6,0.6,0.7,0.2c0.8-3,2.5-7.2,1.6-10.3C335,418.9,334.4,419.1,334.5,419.5
					L334.5,419.5z"/>
			</g>
		</g>
		<g>
			<g>
				<path d="M337.5,421.2c0.8,2.4-0.4,4.9-0.7,7.3c-0.1,0.4,0.6,0.4,0.7,0c0.3-2.5,1.5-5,0.7-7.5C338,420.6,337.3,420.7,337.5,421.2
					L337.5,421.2z"/>
			</g>
		</g>
		<g>
			<g>
				<path d="M338.4,432c-1.1,1.6-3.2,0.8-4.5,2c-1.5,1.3-0.9,3.4-2.3,4.6c-0.3,0.3,0.1,0.8,0.5,0.5c1.7-1.4,0.8-4.1,3-5
					c1.5-0.6,2.9-0.4,3.9-1.8C339.3,431.9,338.7,431.6,338.4,432L338.4,432z"/>
			</g>
		</g>
		<g>
			<g>
				<path d="M343.9,426.5c-0.5,2.3-1.3,4.5-1.6,6.8c-0.1,0.4,0.6,0.4,0.7,0c0.3-2.3,1.1-4.4,1.6-6.6
					C344.7,426.3,344,426.1,343.9,426.5L343.9,426.5z"/>
			</g>
		</g>
		<g>
			<g>
				<path d="M347.4,425.7c0.2,2-0.4,3.8-1.1,5.7c-0.2,0.4,0.5,0.6,0.7,0.2c0.7-1.9,1.3-3.8,1.2-5.9
					C348,425.2,347.4,425.2,347.4,425.7L347.4,425.7z"/>
			</g>
		</g>
		<g>
			<g>
				<path d="M334.7,445.5c-0.1,2.6-1.6,4.9-2.3,7.3c-0.1,0.4,0.5,0.6,0.7,0.2c0.7-2.5,2.2-4.8,2.3-7.5
					C335.4,445.1,334.7,445.1,334.7,445.5L334.7,445.5z"/>
			</g>
		</g>
		<g>
			<g>
				<path d="M330.3,449.3c-0.2,0.5-0.4,1-0.7,1.5c-0.2,0.4,0.4,0.7,0.6,0.3c0.3-0.6,0.5-1.1,0.7-1.7
					C331.1,449.1,330.5,448.9,330.3,449.3L330.3,449.3z"/>
			</g>
		</g>
		<g>
			<g>
				<path d="M347.6,403.9c-1.7,4.4-4.7,8.1-7.6,11.9c-0.3,0.4,0.3,0.7,0.6,0.3c2.9-3.8,5.9-7.6,7.6-12.1
					C348.5,403.7,347.8,403.5,347.6,403.9L347.6,403.9z"/>
			</g>
		</g>
		<g>
			<g>
				<path d="M343.7,402.8c-1.2,3-2.6,5.9-4.8,8.4c-0.3,0.3,0.2,0.8,0.5,0.5c2.2-2.5,3.7-5.6,4.9-8.7
					C344.5,402.5,343.9,402.3,343.7,402.8L343.7,402.8z"/>
			</g>
		</g>
		<g>
			<g>
				<path d="M339.3,408.8c0.8-1.3,0.8-2.8-0.6-3.7c-0.4-0.2-0.7,0.4-0.3,0.6c1.1,0.7,1,1.8,0.3,2.8
					C338.4,408.8,339,409.2,339.3,408.8L339.3,408.8z"/>
			</g>
		</g>
		<g>
			<g>
				<path d="M350.7,411.2c2-2,2.1-5.2,0-7.2c-0.3-0.3-0.8,0.2-0.5,0.5c1.8,1.7,1.8,4.5,0,6.2C349.9,411,350.4,411.5,350.7,411.2
					L350.7,411.2z"/>
			</g>
		</g>
		<g>
			<g>
				<path d="M354.1,405.8c0.5,0.6,1.2,1.2,2.1,0.8c0.9-0.4,1.3-1.4,1.6-2.3c0.1-0.4-0.6-0.6-0.7-0.2c-0.3,1.1-1.3,2.7-2.4,1.3
					C354.5,405.1,353.9,405.4,354.1,405.8L354.1,405.8z"/>
			</g>
		</g>
		<g>
			<g>
				<path d="M355.6,410.3c0.9,0,1.7-0.2,2.5-0.7c0.4-0.2,0-0.8-0.3-0.6c-0.7,0.4-1.3,0.6-2.1,0.6
					C355.1,409.7,355.1,410.4,355.6,410.3L355.6,410.3z"/>
			</g>
		</g>
	</g>
	<g>
		<g>
			<g>
				<path fill="#FFFFFF" d="M170.8,373.4c-6.7,28.4-30.6,52.3-32.8,82.9c-0.7,23.1,30.6,26.9,48.5,24.6c30.6-4.5,26.1-30.6,20.2-53
					c-3.7-16.4-4.5-39.6-15.7-53c-7.5-9-15.7-9.7-20.9,1.5"/>
			</g>
			<g>
				<g>
					<path d="M169.4,373.1c-5.6,22.8-20.8,41.7-28.7,63.6c-3.1,8.7-6.2,19.6-2.7,28.6c2.5,6.5,8.6,11,14.9,13.5
						c14.3,5.6,35.1,6.9,48.4-1.6c13.9-8.8,11.6-27.6,8.6-41.3c-1.7-7.9-3.5-15.6-4.8-23.6c-1.6-9.5-3.3-19-7-27.9
						c-2.8-6.7-7.5-13.9-14.4-16.9c-6.8-2.9-12.1,2.6-14.9,8.2c-0.8,1.6,1.6,3,2.4,1.4c3.1-6.1,7.6-9.7,14.1-5.6
						c5.5,3.5,8.9,10.2,11.2,16.1c4.2,10.6,5.4,22.2,7.3,33.3c2.7,15.6,12.3,37.4-0.4,51.1c-6.5,7-17.2,8.1-26.1,8.1
						c-8.8,0.1-17.9-1.2-25.8-5.1c-22.6-11-7.7-40.6,0.5-56.6c7.5-14.6,16.3-28.6,20.2-44.7C172.5,372.1,169.9,371.3,169.4,373.1
						L169.4,373.1z"/>
				</g>
			</g>
		</g>
		<g>
			<g>
				<path d="M142,458.3c-0.2-22.9,25.1-27,43-22.9c8.6,2,15.5,9,17.2,17.7c1.9,10-5.5,17.6-14.4,20.5c-8.4,2.8-18.3,4.7-27.1,3.1
					c-12.4-2.3-16.3-17.2-8.2-26.4c7.8-8.8,21.6-6.8,30.5-1c4.6,3,8.7,8.7,5.4,14.1c-2.2,3.5-7,5.2-10.8,6.1
					c-5.4,1.4-14.4,1.4-16.4-5.1c-1.4-4.4,1.5-7.2,5.7-7.2c1.8,0,3.5,0.7,5.1,1.6c2.8,1.5,1.1,3.7-0.5,1c-0.5-0.8-1.7-0.1-1.2,0.7
					c0.7,1.1,1,1.8,2,2.6c0.2,0.2,0.6,0.3,0.8,0.1c1-0.7,1.8-1,2.6-2c0.2-0.2,0.3-0.6,0.1-0.8c-3-4-9.7-6.3-14.1-3.2
					c-4.4,3.1-1.7,10,1.9,12.4c8.7,5.9,29.9-0.2,27.2-12.9c-1.6-7.3-11.3-12-17.9-13.2c-8.4-1.6-17.3,0.6-22.7,7.5
					c-4.6,5.9-4.7,15.6,0.2,21.3c5.1,6,13.1,6.7,20.5,6.1c10.9-0.8,25.1-3.5,30.9-13.8c5.1-9.1,0.5-20.3-7.1-26.2
					c-9.1-7.1-23.9-6.9-34.6-4.4c-12.1,2.8-19.5,11.8-19.5,24.3C140.6,459.2,142,459.2,142,458.3L142,458.3z"/>
			</g>
		</g>
		<g>
			<g>
				<path d="M209,451.9c-0.6-4-1.9-7.6-4.4-10.8c-1.5-1.8-2.5-2.6-3-5.1c-0.9-4.2-2.8-8.1-3.4-12.4c0-0.3-0.4-0.5-0.6-0.2
					c-2.3,3.3-0.4,8.2-0.2,11.9c0,1-2.9-1.6-3.3-2.3c-0.9-1.6-1.1-3.8-1.3-5.5c-0.2-2.1-0.2-4.3-0.4-6.5c0-0.4-0.6-0.5-0.7-0.1
					c-0.5,1.8-0.3,9.3-2.4,9.4c-1,0.1-5.2,0.4-5-0.7c0.1-0.6-0.5-1.9-0.6-2.5c-0.1-0.4-1-0.3-1,0.2c0,1.1,0,2.2,0,3.3
					c0,0.2,0.4,0.4,0.6,0.4c2.3,0.5,4.8-0.3,7.1,0.2c0.2,0,0.5-0.1,0.5-0.2c0.5-2,0.4-1.3,0.7-3.4c0.1-1.1,0.1-2.2,0.2-3.3
					c-0.1-2.8,0-3.4,0-1.7c0.1,2,0.1,4,0.4,6c0.5,3.5,1.5,7,5.3,8c0.2,0.1,0.4-0.1,0.4-0.3c0.2-3.1-0.6-6-0.8-9.1
					c-0.2-3.7,0.6-1.7,0.8-0.3c0.4,2.1,1.3,4.2,1.9,6.2c0.7,2.1,0.9,4.2,1.4,6.3c0.1,0.5,3.3,2.6,1.9,1.4c3.2,2.6,4.5,7.4,5,11.3
					C208.4,452.5,209.1,452.3,209,451.9L209,451.9z"/>
			</g>
		</g>
		<g>
			<g>
				<path d="M179.1,418.4c-0.5,3.4-1.1,6.8-1.4,10.2c0,0.4,0.7,0.4,0.7,0c0.3-3.4,0.9-6.7,1.4-10.1
					C179.8,418.2,179.1,418,179.1,418.4L179.1,418.4z"/>
			</g>
		</g>
		<g>
			<g>
				<path d="M172.3,429.3c-3.1,0-6.2,0.2-9.3,0.7c0.1,0.2,0.3,0.3,0.4,0.5c0.2-0.4,0.5-0.6,0.7-0.9c0.1-0.2,0-0.6-0.3-0.5
					c-1.2,0.1-0.3-2-0.1-2.5c0.4-1.3,0.8-2.6,1.1-4c0.1-0.4-0.6-0.6-0.7-0.2c-0.5,2.3-1.3,4.4-1.8,6.7c-0.2,0.8,1.1,0.7,1.5,0.7
					c-0.1-0.2-0.2-0.3-0.3-0.5c-0.2,0.4-0.5,0.6-0.7,0.9c-0.1,0.3,0.1,0.6,0.4,0.5c3-0.4,6.1-0.7,9.1-0.7
					C172.7,429.9,172.7,429.2,172.3,429.3L172.3,429.3z"/>
			</g>
		</g>
		<g>
			<g>
				<path d="M164.3,417.3c-1.1,2.6-1.7,5.3-2.4,8c-0.4,1.5-0.8,3-1.3,4.5c-0.9,2.5-0.7,1.5-1.4-0.2c-0.1-0.1-0.3-0.2-0.4-0.2
					c-0.4,0.3-0.8,0.3-1.2-0.1c0.1-0.4-0.6-0.4-0.7,0c-0.1,0.6-0.1,0.5,0.3,1.1c0.1,0.1,0.2,0.2,0.4,0.2c1.4-0.4,1.6,0.3,1.9,1.8
					c0.1,0.3,0.5,0.3,0.6,0.1c2.5-4.7,2.8-10.2,4.9-15.1C165.1,417.1,164.5,416.9,164.3,417.3L164.3,417.3z"/>
			</g>
		</g>
		<g>
			<g>
				<path d="M156.7,428c-0.6,1-0.9,2.1-1.4,3.2c-0.3,0.8-0.9,3-1.9,3.3c-0.4,0.1-0.2,0.8,0.2,0.7c1-0.3,1.5-1.7,1.8-2.5
					c0.6-1.4,1.1-2.9,1.8-4.3C157.5,428,156.9,427.6,156.7,428L156.7,428z"/>
			</g>
		</g>
		<g>
			<g>
				<path d="M155.1,422.7c-2.2,3.3-3.4,7.2-4.2,11.2c-0.1,0.4,0.6,0.6,0.7,0.2c0.8-3.9,1.9-7.7,4.1-11
					C156,422.7,155.4,422.4,155.1,422.7L155.1,422.7z"/>
			</g>
		</g>
		<g>
			<g>
				<path d="M172.5,433.3c-0.3,0.3-0.4,0.8-0.5,1.2c-0.2,0.6-0.3,1.3-0.5,1.9c-0.1,0.4,0.6,0.6,0.7,0.2c0.1-0.5,0.3-1.1,0.4-1.6
					c0.1-0.4,0.2-0.9,0.4-1.2C173.2,433.4,172.7,432.9,172.5,433.3L172.5,433.3z"/>
			</g>
		</g>
		<g>
			<g>
				<path d="M149.6,436c-4.6,1.6-6.7,6.2-8.7,10.3c-0.2,0.4,0.4,0.7,0.6,0.3c1.9-3.9,4-8.4,8.3-10C150.2,436.5,150,435.8,149.6,436
					L149.6,436z"/>
			</g>
		</g>
		<g>
			<g>
				<path d="M147.7,432c-3.4,1.2-5.6,4.5-7.1,7.5c-0.2,0.4,0.4,0.7,0.6,0.3c1.5-2.9,3.5-6.1,6.7-7.2
					C148.3,432.6,148.1,431.9,147.7,432L147.7,432z"/>
			</g>
		</g>
		<g>
			<g>
				<path d="M144.1,431c3.3-2.3,5.4-5.9,9-7.8c0.4-0.2,0-0.8-0.3-0.6c-3.6,1.9-5.7,5.5-9,7.8C143.4,430.7,143.7,431.3,144.1,431
					L144.1,431z"/>
			</g>
		</g>
		<g>
			<g>
				<path d="M154.6,418c-2.4,1-4.6,2.3-6,4.5c-0.2,0.4,0.4,0.7,0.6,0.3c1.2-2.1,3.4-3.3,5.6-4.2C155.2,418.5,155,417.8,154.6,418
					L154.6,418z"/>
			</g>
		</g>
		<g>
			<g>
				<path d="M157.9,412.2c-2.6,1-4.8,2.6-7,4.2c-0.4,0.3,0,0.9,0.3,0.6c2.2-1.5,4.3-3.2,6.8-4.1C158.5,412.7,158.3,412,157.9,412.2
					L157.9,412.2z"/>
			</g>
		</g>
		<g>
			<g>
				<path d="M161.5,406.2c-2.5,1.6-5.1,2.8-7.6,4.4c-0.4,0.2,0,0.8,0.3,0.6c2.5-1.6,5.1-2.8,7.6-4.4
					C162.2,406.6,161.9,406,161.5,406.2L161.5,406.2z"/>
			</g>
		</g>
		<g>
			<g>
				<path d="M163,403c-2.5,0.3-4.8,1.1-6.9,2.6c-0.4,0.3,0,0.9,0.3,0.6c1.9-1.4,4.1-2.2,6.5-2.5C163.5,403.6,163.5,402.9,163,403
					L163,403z"/>
			</g>
		</g>
		<g>
			<g>
				<path d="M158.4,401.8c2.6-0.1,4.4-2.2,6.8-3c0.4-0.1,0.2-0.8-0.2-0.7c-2.3,0.8-4.1,2.9-6.6,3C158,401.1,158,401.8,158.4,401.8
					L158.4,401.8z"/>
			</g>
		</g>
		<g>
			<g>
				<path d="M160.6,398.6c1.4-2.2,3.6-3.3,6-4.2c0.4-0.2,0.2-0.8-0.2-0.7c-2.6,0.9-4.9,2.2-6.4,4.5
					C159.7,398.7,160.3,399,160.6,398.6L160.6,398.6z"/>
			</g>
		</g>
		<g>
			<g>
				<path d="M163.3,394.5c1.6-3,5-4.6,7.6-6.6c0.3-0.3-0.1-0.8-0.5-0.5c-2.6,2.1-6,3.7-7.7,6.8C162.5,394.5,163.1,394.9,163.3,394.5
					L163.3,394.5z"/>
			</g>
		</g>
		<g>
			<g>
				<path d="M166.3,388.8c1.1-1.1,2.3-2.3,3.6-3.2c0.4-0.2,0-0.8-0.3-0.6c-1.4,0.9-2.6,2.1-3.8,3.3
					C165.5,388.6,166,389.1,166.3,388.8L166.3,388.8z"/>
			</g>
		</g>
		<g>
			<g>
				<path d="M168.8,384.3c-0.3,0.2-0.7,0.4-1.1,0.4c0.1,0.2,0.3,0.3,0.4,0.5c0.8-1.3,2.1-2.1,3.3-2.9c0.4-0.2,0-0.8-0.3-0.6
					c-1.3,0.9-2.7,1.8-3.6,3.1c-0.2,0.3,0.1,0.5,0.4,0.5c0.4-0.1,0.8-0.3,1.2-0.5C169.6,384.7,169.2,384.1,168.8,384.3L168.8,384.3z
					"/>
			</g>
		</g>
		<g>
			<g>
				<path d="M170.1,380.4c-0.4-0.3,0.5-0.7,0.7-0.8c0.6-0.3,1.2-0.6,1.8-0.9c0.4-0.2,0-0.8-0.3-0.6c-0.7,0.4-4.3,1.7-2.5,2.9
					C170.1,381.3,170.5,380.7,170.1,380.4L170.1,380.4z"/>
			</g>
		</g>
		<g>
			<g>
				<path d="M170.7,377.2c-0.5-0.5,1.4-1.4,1.8-1.5c0.4-0.2,0-0.8-0.3-0.6c-0.8,0.4-3,1.4-1.9,2.6
					C170.5,378.1,171,377.6,170.7,377.2L170.7,377.2z"/>
			</g>
		</g>
		<g>
			<g>
				<path d="M210.9,445.9c-0.8-4.1-2.8-7.7-5.3-10.9c-0.3-0.3-0.9,0-0.6,0.3c2.5,3.2,4.5,6.7,5.3,10.8
					C210.3,446.5,211,446.3,210.9,445.9L210.9,445.9z"/>
			</g>
		</g>
		<g>
			<g>
				<path d="M207.9,433.4c-0.8-2.2-2.1-4.1-3.3-6.1c-0.2-0.4-0.8,0-0.6,0.3c1.1,1.9,2.4,3.8,3.2,5.9
					C207.3,434,208,433.8,207.9,433.4L207.9,433.4z"/>
			</g>
		</g>
		<g>
			<g>
				<path d="M207.2,425.6c-0.9-2.4-3.3-3.8-5.2-5.3c-0.4-0.3-0.7,0.3-0.3,0.6c1.8,1.3,4.1,2.7,4.9,4.9
					C206.7,426.2,207.3,426,207.2,425.6L207.2,425.6z"/>
			</g>
		</g>
		<g>
			<g>
				<path d="M204.4,418.3c-0.2-3-3.1-5.3-5.2-7.2c-0.3-0.3-0.8,0.2-0.5,0.5c1.9,1.7,4.8,3.9,5,6.7
					C203.8,418.7,204.4,418.7,204.4,418.3L204.4,418.3z"/>
			</g>
		</g>
		<g>
			<g>
				<path d="M202.8,411.5c0.5-1.3-0.6-2.8-1.4-3.8c-1.2-1.5-2.6-2.8-4.1-4c-0.4-0.3-0.7,0.3-0.3,0.6c1.2,0.9,2.3,1.9,3.3,3
					c0.8,0.9,2.4,2.6,1.9,3.9C202,411.7,202.6,411.9,202.8,411.5L202.8,411.5z"/>
			</g>
		</g>
		<g>
			<g>
				<path d="M202.3,404.8c0.4-2.8-2.3-4.8-4-6.6c-0.3-0.3-0.8,0.2-0.5,0.5c1.5,1.5,4.2,3.5,3.8,5.9
					C201.6,405,202.3,405.2,202.3,404.8L202.3,404.8z"/>
			</g>
		</g>
		<g>
			<g>
				<path d="M201.6,397.6c-1.2-2.1-2.8-4-4.7-5.6c-0.3-0.3-0.8,0.2-0.5,0.5c1.8,1.6,3.4,3.4,4.6,5.5
					C201.2,398.3,201.8,398,201.6,397.6L201.6,397.6z"/>
			</g>
		</g>
		<g>
			<g>
				<path d="M199.1,391c0.3-1.1-0.5-2.1-1.2-2.8c-1.1-1.2-2.7-2.1-3.7-3.4c-0.3-0.3-0.9,0-0.6,0.3c0.7,0.9,1.6,1.6,2.5,2.4
					c0.8,0.7,2.7,2.1,2.3,3.3C198.3,391.2,199,391.4,199.1,391L199.1,391z"/>
			</g>
		</g>
		<g>
			<g>
				<path d="M197.3,384.5c-0.8-2.2-2.8-3-4.9-3.7c-0.4-0.2-0.6,0.5-0.2,0.7c1.7,0.7,3.7,1.3,4.4,3.2
					C196.7,385.1,197.4,385,197.3,384.5L197.3,384.5z"/>
			</g>
		</g>
		<g>
			<g>
				<path d="M194.8,378.1c-1.5-0.9-2.9-1.8-4.4-2.8c-0.4-0.2-0.7,0.4-0.3,0.6c1.4,1,2.9,1.9,4.4,2.8
					C194.8,378.9,195.2,378.3,194.8,378.1L194.8,378.1z"/>
			</g>
		</g>
		<g>
			<g>
				<path d="M177.9,398.6c-0.7,4.1-1.2,8.2-2.1,12.2c-0.1,0.4,0.6,0.6,0.7,0.2c0.9-4,1.4-8.1,2.1-12.2
					C178.7,398.4,178,398.2,177.9,398.6L177.9,398.6z"/>
			</g>
		</g>
		<g>
			<g>
				<path d="M184.1,412.2c0.2-1.4,0-2.7-0.2-4.1c-0.1-0.4-0.7-0.3-0.7,0.2c0.2,1.2,0.4,2.5,0.2,3.7
					C183.4,412.4,184.1,412.6,184.1,412.2L184.1,412.2z"/>
			</g>
		</g>
		<g>
			<g>
				<path d="M183.5,399.9c5-3.4,5.8-11,0.9-15c-0.9-0.7-2.2-0.6-2.7,0.5c-0.7,1.8-0.1,3.7,1.4,4.8c0.2,0.1,0.4,0,0.5-0.2
					c0.4-1.4,0.4-2.7,0-4.1c-0.1-0.4-0.7-0.3-0.7,0.1c0,0.8,0.1,1.4,0.2,2.2c0.1,0.4,0.7,0.3,0.7-0.2c-0.1-0.7-0.2-1.3-0.2-2
					c-0.2,0-0.5,0.1-0.7,0.1c0.2,0.7,0.8,4.3-0.4,2.6c-0.4-0.6-0.5-1.3-0.5-2c0-1.6,1.9-1.3,2.8-0.4c0.8,0.9,1.4,2,1.8,3.1
					c1.4,3.7-0.4,7.9-3.5,10C182.8,399.6,183.1,400.2,183.5,399.9L183.5,399.9z"/>
			</g>
		</g>
		<g>
			<g>
				<path d="M179.8,374.2c-0.3,1.5-0.7,2.9-1.2,4.4c-0.1,0.4,0.5,0.6,0.7,0.2c0.4-1.5,0.9-2.9,1.2-4.4
					C180.5,373.9,179.8,373.7,179.8,374.2L179.8,374.2z"/>
			</g>
		</g>
		<g>
			<g>
				<path d="M177.2,387.9c0,0.5,0,0.9,0,1.4c0,0.4,0.7,0.4,0.7,0c0-0.5,0-0.9,0-1.4C177.9,387.4,177.2,387.4,177.2,387.9
					L177.2,387.9z"/>
			</g>
		</g>
		<g>
			<g>
				<path d="M177.7,369.6c0,1.2-0.2,2.4-0.4,3.6c-0.1,0.4,0.6,0.6,0.7,0.2c0.2-1.2,0.5-2.5,0.5-3.8
					C178.4,369.2,177.7,369.2,177.7,369.6L177.7,369.6z"/>
			</g>
		</g>
		<g>
			<g>
				<path d="M184.1,369.6c-0.2,9.4,2.8,18.3,4.2,27.5c0.1,0.4,0.7,0.3,0.7-0.2c-1.3-9.1-4.4-18-4.1-27.3
					C184.8,369.2,184.1,369.2,184.1,369.6L184.1,369.6z"/>
			</g>
		</g>
		<g>
			<g>
				<path d="M189.4,385.4c1.4,9.1,3,18.2,4.1,27.3c0.1,0.4,0.7,0.4,0.7,0c-1.2-9.2-2.8-18.4-4.2-27.5
					C190,384.8,189.4,385,189.4,385.4L189.4,385.4z"/>
			</g>
		</g>
		<g>
			<g>
				<path d="M182.2,458.4c-1.4,1.4-2.4,3.1-3.7,4.6c-0.3,0.3,0.2,0.8,0.5,0.5c1.2-1.5,2.3-3.2,3.7-4.6
					C183,458.6,182.5,458.1,182.2,458.4L182.2,458.4z"/>
			</g>
		</g>
		<g>
			<g>
				<path d="M180,457.1c-0.7,1.4-1.6,2.7-2.7,3.9c-0.3,0.3,0.2,0.8,0.5,0.5c1.2-1.2,2.1-2.5,2.8-4C180.8,457,180.2,456.7,180,457.1
					L180,457.1z"/>
			</g>
		</g>
		<g>
			<g>
				<path d="M174.5,444.3c-4.2,3.5-7.1,8.3-11.3,11.8c-0.3,0.3,0.1,0.8,0.5,0.5c4.2-3.5,7.1-8.3,11.3-11.8
					C175.4,444.5,174.9,444.1,174.5,444.3L174.5,444.3z"/>
			</g>
		</g>
		<g>
			<g>
				<path d="M188.4,443c-1.5,1.5-2.8,3-4.4,4.4c-0.3,0.3,0.2,0.8,0.5,0.5c1.6-1.4,2.9-2.9,4.4-4.4
					C189.2,443.1,188.7,442.6,188.4,443L188.4,443z"/>
			</g>
		</g>
		<g>
			<g>
				<path d="M185.8,440.6c-0.8,0.3-1.4,0.9-2,1.5c-0.3,0.3,0.2,0.8,0.5,0.5c0.5-0.5,1-1,1.7-1.3
					C186.4,441.1,186.2,440.4,185.8,440.6L185.8,440.6z"/>
			</g>
		</g>
	</g>
	<g>
		<g>
			<path fill="#FFFFFF" d="M195.7,382c26.4-8.6,81.2-1.8,94.1-33.2c3.7-9.8,1.2-19.1,2.5-28.9c1.2-9.8,8-16.6,11.1-26.4
				c6.1-15.4,5.5-30.7-1.2-46.1c-1.8,9.2-15.4,14.1-23.4,17.8c-4.3,1.8-8,3.1-11.7,6.1c-2.5,2.5-3.1,8-6.1,9.2
				c-11.1,6.1-14.8-6.1-14.1-15.4c1.2-11.1,4.9-21.5,4.9-33.2c0-21.5-8-31.4-21.5-46.7c-15.4-16.6-17.2-33.8-26.4-53.5
				c-4.9-11.1-22.1-41.2-37.5-39.4c-16,1.2-4.9,17.2-6.1,25.8c-1.8,9.2-11.1,15.4-14.8,24c-4.3,9.2,1.2,14.8,0,23.4
				c-1.8,16-22.1,11.7-28.9,0c-6.1-9.8-4.3-25.8-4.9-37.5c3.7,17.8-11.7,12.9-20.3,25.2c-14.8,21.5,4.9,51,8,72.6
				c1.2,11.1-1.8,17.2-4.9,27.1c-3.7,10.5,1.8,20.9-6.1,30.1c-7.4,8.6-19.1,12.9-29.5,9.2c-6.8-2.5-8.6-8-16.6-3.1
				c14.1,20.3,15.4,44.3,33.2,62.1c8.6,8.6,16.6,8.6,26.4,14.1c14.1,7.4,23.4,14.8,40,16c6.1,0,12.9-2.5,18.4-1.8
				c4.3,0.6,7.4,3.7,11.7,4.3c6.8,0.6,19.7-1.2,26.4-2.5"/>
			<g>
				<path d="M196.1,383.4c27.5-8.7,61.3-1.9,85.2-20.9c5.8-4.6,9.6-11,11.2-18.1c1.2-5.3,0.8-10.9,0.7-16.3
					c-0.1-6.5,0.9-12.2,3.7-18.1c4.9-10.2,10-19.4,11.5-30.9c1.5-11.1-0.9-22.1-5.2-32.4c-0.5-1.1-2.3-0.7-2.5,0.3
					c-2.5,10.1-16.7,14.5-25.2,18c-4,1.7-8.5,3.5-10.9,7.2c-1.3,2-1.8,4.4-3.3,6.3c-2.1,2.7-7.1,2.9-9.6,0.8
					c-3.4-2.9-3.8-9-3.7-13.1c0.1-7.3,2.6-14.8,3.8-22c1.9-11,1.6-22.5-2.3-33.1c-3.3-9-9.5-16.5-15.7-23.7
					c-4.2-4.9-8.4-9.7-11.7-15.2c-3.3-5.5-5.7-11.5-8-17.5c-6.8-18.2-13.6-35.6-26.2-50.7c-4.3-5.1-9.4-10-15.7-12.3
					c-4.4-1.6-11.9-1.2-14.7,3.2c-2.9,4.6-0.9,10.7,0.2,15.5c1,4.3,1.3,7.7-0.6,11.9c-2,4.3-5.5,7.8-8.3,11.6
					c-5.6,7.4-7.5,14-5.6,23c1.9,8.9-0.5,19.1-11.5,17.6c-21.7-3-18.2-30.8-18.9-46.4c-0.9,0.1-1.8,0.2-2.7,0.4
					c0.7,3.9,1,7.9-1.8,10.9c-2,2.2-5.3,3.4-7.9,4.7c-6.8,3.5-11.3,8.6-14.1,15.8c-6.5,17.2,3.2,37.1,8.3,53.4
					c3.2,10,4.4,19.3,1.5,29.5c-1.4,4.8-3.6,9.5-4.3,14.4c-0.7,5.4,0,10.9-0.8,16.4c-1.7,12.1-16,19.4-27.1,18.5
					c-5.1-0.4-8.3-3.6-12.8-5.5c-3.6-1.5-6.6-0.4-9.8,1.4c-0.6,0.4-0.9,1.3-0.5,1.9c10.1,14.8,14,32.5,22.7,48
					c3.9,7.1,9.2,13.7,15.7,18.5c6.8,5,15.7,7,23.2,11c15.3,8.1,29.4,17.5,47.5,14.5c6-1,10.4-1.4,16,1.4c3.4,1.7,6.4,2.2,10.1,2.1
					c7.5-0.1,15.2-1.3,22.6-2.6c1.8-0.3,1-3-0.7-2.7c-7.2,1.3-14.5,2.3-21.8,2.5c-4.3,0.1-7.4-1.2-11.2-3c-3.5-1.7-6.8-1.7-10.6-1.2
					c-4.2,0.5-8.3,1.5-12.6,1.6c-4.7,0.1-9.9-1.5-14.2-3c-8.4-2.9-15.9-7.9-23.6-12.1c-6.8-3.6-14.2-5.7-20.9-9.5
					c-8.3-4.6-14-13.3-18.4-21.5c-7.9-14.9-11.7-31.5-21.3-45.5c-0.2,0.6-0.3,1.3-0.5,1.9c6-3.3,8.8,0,14,2.6
					c3.8,1.9,8.4,2.2,12.6,1.8c9.1-0.8,18.2-6.9,22.6-14.9c2.1-3.9,2.3-8.6,2.3-12.9c0-6.5,0.8-12,2.8-18.2
					c3.3-9.9,4.8-18.8,2.3-29.1c-4.6-19.4-18.2-41.1-9.6-61.2c3.6-8.4,10.7-10.8,17.8-15.2c5.8-3.5,6.3-9.5,5.2-15.6
					c-0.3-1.5-2.8-1.2-2.7,0.4c0.8,17.5-2.5,41.6,18.3,48.4c6,2,12.7,0.8,16.3-4.7c2.2-3.3,2.3-7.8,2-11.6
					c-0.7-6.8-2.7-11.8,0.3-18.5c4-8.6,14.2-14.8,14.5-25c0.2-5.9-6.3-17.1-0.4-21.5c8.1-6,18.5,3.5,23.5,9
					c6.3,6.9,11.3,15.1,15.6,23.4c9.9,19.1,13.5,40.7,27.9,57.4c7,8,14.3,15.9,18.5,25.8c4.8,11.3,4.3,24.1,2.1,36
					c-1.8,9.8-5.4,20.3-1.6,30.1c2.7,7.2,9.2,7.8,15.4,4.4c1.3-0.7,2.1-2.4,2.8-3.7c1.5-2.9,2.2-4.9,5-6.9c4.2-2.9,9.5-4.5,14.1-6.5
					c7.5-3.4,16.9-7.7,19.1-16.5c-0.8,0.1-1.7,0.2-2.5,0.3c5,11.8,6.6,24.2,3.7,36.8c-2.3,10.1-8,18.4-11.9,27.8
					c-4.1,9.8-1.1,20.7-2.9,30.9c-1.4,8-6.7,14.5-13.3,18.9c-11.9,8.1-27.5,10.2-41.4,11.9c-13.2,1.7-27.1,2.2-39.9,6.3
					C193.6,381.2,194.4,383.9,196.1,383.4L196.1,383.4z"/>
			</g>
		</g>
		<g>
			<path fill="#FFFFFF" d="M312.5,222.1c6.1-4.3,18.4-16,19.1-25.2c1.2-9.8-8-16-11.1-24.6c-2.5-5.5-1.8-11.7-6.1-15.4
				c-0.6,14.1-14.8,27.7-10.5,43c1.8,4.3,4.3,8,5.5,12.3C310.7,216,310.1,219.1,312.5,222.1"/>
			<g>
				<path d="M313.2,223.3c9.3-6.6,21-17.8,19.7-30.2c-0.7-6.5-5.7-11.7-9-17c-3.9-6.3-3.2-14.8-8.6-20.1c-0.9-0.9-2.3-0.2-2.4,1
					c-0.8,11.9-9.2,21.7-11,33.4c-0.8,5.3,0.3,9.8,2.7,14.5c1.7,3.4,3.3,6.7,4.1,10.5c0.6,2.8,0.9,5.1,2.6,7.5
					c1,1.5,3.4,0.1,2.4-1.4c-1.7-2.5-2-5.2-2.6-8.2c-0.5-2.5-1.6-4.9-2.7-7.2c-1.6-3.4-3.4-6.3-3.9-10.1c-0.3-2.9,0.2-5.9,0.9-8.8
					c2.5-10.5,9.5-19.3,10.3-30.3c-0.8,0.3-1.6,0.7-2.4,1c4.4,4.3,4.4,11.9,6.9,17.4c2.6,5.6,7.3,9.9,9.4,15.8
					c4.1,11.6-9.5,23.9-17.8,29.9C310.4,222,311.8,224.4,313.2,223.3L313.2,223.3z"/>
			</g>
		</g>
		<g>
			<path fill="#FFFFFF" d="M254.1,150.8c19.1-10.5,7.4-27.7,6.8-42.4c-5.5,9.2-14.8,28.3-7.4,38.7"/>
			<g>
				<path d="M254.8,152c7.3-4.2,11.5-10.2,11.6-18.7c0.1-8.5-3.6-16.5-4.1-24.9c-0.1-1.3-1.8-1.9-2.6-0.7
					c-6.4,10.8-15.2,28-7.4,40.1c1,1.5,3.4,0.1,2.4-1.4c-7.2-11.2,1.5-27.4,7.4-37.3c-0.9-0.2-1.7-0.5-2.6-0.7
					c0.4,6.8,2.5,13.3,3.6,20c1.6,9.3-1.4,16.5-9.7,21.3C251.9,150.5,253.3,152.9,254.8,152L254.8,152z"/>
			</g>
		</g>
		<g>
			<path fill="#FFFFFF" d="M144,67.8c-8.6-1.8-24-14.1-27.1-22.8c-3.1-8,2.5-14.8,1.8-22.8c-0.6-7.4-4.3-5.5-1.8-12.3
				c4.9-12.3,13.5-8,22.8-7.4c6.8,0.6,15.4-1.2,22.1-1.2c-8,6.8-9.8,11.1-12.3,22.1c-1.8,6.8-8.6,12.3-9.2,17.8
				c-0.6,9.2,7.4,20.3,4.9,29.5"/>
			<g>
				<path d="M144.4,66.5c-8.7-2.1-16.7-9-22.3-15.7c-3.9-4.5-5.3-9.4-4.1-15.4c1-4.9,3.1-9.8,2-14.9c-0.3-1.4-0.7-2.8-1.4-4.1
					c-1.3-2.7-1.1-4.2,0.2-7.1c2.3-5.2,6.4-6.9,11.7-6.5c4.5,0.3,8.9,1.3,13.5,1.2c6-0.1,11.9-1.2,17.9-1.3c-0.3-0.8-0.7-1.6-1-2.4
					c-4,3.5-7.6,7.3-9.6,12.3c-1.2,2.9-2,6-2.7,9c-0.9,4-3,7.1-5.3,10.5c-3.6,5.3-5,9.4-3.7,15.8c1.5,7.5,6,14.7,4.3,22.5
					c-0.4,1.7,2.3,2.5,2.7,0.7c1.3-6-0.6-11.8-2.4-17.5c-1.1-3.3-2.1-6.5-2.4-10c-0.4-4,1.8-7.1,3.9-10.2c1.6-2.3,3.3-4.6,4.3-7.2
					c1.3-3.2,1.8-6.6,2.8-9.9c1.8-5.9,5.4-10.1,10-14.1c0.9-0.8,0.2-2.4-1-2.4c-6.9,0.1-13.8,1.5-20.8,1.3
					c-4.8-0.1-9.5-1.6-14.4-1.2c-7.3,0.5-14.7,10.1-10.9,17.1c3.6,6.5,0,13.6-1,20.3c-0.8,5.3,1.3,10,4.4,14.1
					c5.7,7.6,15.1,15.3,24.4,17.5C145.4,69.6,146.1,66.9,144.4,66.5L144.4,66.5z"/>
			</g>
		</g>
		<g>
			<path fill="#FFFFFF" d="M101.6,113.3c7.4-8-3.1-23.4-11.7-27.1c1.8,1.2-1.8,39.4,11.1,25.8"/>
			<g>
				<path d="M102.6,114.3c8.1-9.8-2.5-24.8-12-29.2c-1.4-0.6-2.8,1-1.7,2.2c-0.1-0.1,0.1,2.1,0.2,2.8c0.1,1.9,0.1,3.8,0.2,5.7
					c0.1,4.3,0.4,8.6,1.2,12.8c1.3,7.1,5.9,10.2,11.5,4.5c1.3-1.3-0.7-3.2-2-2c-2.5,2.5-4.7,3.5-6.1-0.3c-1.2-3.3-1.4-7.1-1.6-10.6
					c-0.2-3.4-0.3-6.8-0.4-10.2c-0.1-1.4,0.1-3.7-1-4.8c-0.6,0.7-1.1,1.4-1.7,2.2c7.6,3.6,18.3,16.6,11.4,24.9
					C99.5,113.7,101.5,115.7,102.6,114.3L102.6,114.3z"/>
			</g>
		</g>
		<g>
			<path fill="#FFFFFF" d="M69.6,264.6c9.2-6.8-0.6-27.7-4.9-34.4c-3.7-5.5-16.6-10.5-12.9-17.8c-0.6-1.2-3.7-3.1-4.9-3.7
				c-1.8,15.4-11.7,30.7-1.2,45.5c5.5,7.4,16,11.7,25.2,9.8"/>
			<g>
				<path d="M70.6,265.5c9.4-7.7,1.6-24.4-2.8-32.8c-2.8-5.4-7.3-8.3-11.8-12.2c-1.1-1-2.1-2.1-2.9-3.3c-1.3-2,0-3.1,0-5
					c0-2.2-4.1-4.1-5.6-4.9c-0.7-0.4-1.9-0.1-2,0.8c-1.9,14-9.6,27.9-3.7,41.9c4.7,11.2,17.8,17.1,29.4,15.1c1.8-0.3,1-3-0.7-2.7
					c-12.9,2.2-25.1-6.2-27.8-19c-2.4-11.4,4-23.5,5.5-34.7c-0.7,0.3-1.4,0.6-2,0.8c0.6,0.3,4.3,2.2,3.9,3c-0.4,0.9-0.3,1.9-0.3,2.9
					c0.1,1.7,1.2,3.5,2.3,4.8c3.5,4,8.9,6.4,11.8,11c4.6,7.4,13.5,25,4.8,32.2C67.3,264.7,69.2,266.7,70.6,265.5L70.6,265.5z"/>
			</g>
		</g>
		<g>
			<path d="M190.3,374.9c6.6-4.4,14.4-6.6,21.6-9.8c6.6-2.9,14.2-6.7,17.3-13.6c0.6-1.4,0.6-8,1.5-8.2c3.5-1.1,6.8-3.5,9-6.4
				c5.3-7.1,6.5-16.4,4.8-25c-0.1-0.3-0.5-0.3-0.6-0.1c-2.7,4.9-6.8,8.9-11.8,11.5c-3.2,1.7-6.7,2.1-10.2,1.1
				c-4.6-1.3-6.1-5-6.2-9.3c-0.1-4.1-1.1-7.9-3.5-11.2c-0.9-1.2-2.1-2.2-3.3-3.1c-2.6-2.1-4.4-4.8-6.2-7.6
				c-3.1-4.8-4.1-10.2-5.3-15.7c-1.5-6.8-4-13.3-6.1-19.9c-1.4-4.3-2.8-8.7-4.8-12.7c-0.8-1.6-1.7-3.3-3-4.7
				c-1.4-1.5-4.7-1.3-4.7-3.9c0.2,5.5-5.6,11.4-8.2,16c-3.3,5.9-6.2,12.1-8.7,18.4c-2,5.2-3.3,10.6-4.5,16
				c-1.4,6.4-6.2,8.3-12.4,8.4c-4.3,0-14.8-7.6-15.4,0.3c-0.2,2.9-3.6,1.3-5,0.2c-1.5-1.2-1.7-3.2-1.8-4.9c-0.1-2.3,0.7-4.7,1.1-6.9
				c0.7-3.6,0-6.9-2.1-9.9c-2-2.7-4.4-4.6-4.8-8.2c-0.4-2.9,0.2-5.9,0.4-8.8c0.1-1.2,0.1-2.4,0.1-3.6c-0.6-0.3-0.8-0.1-0.6,0.6
				c-0.1,0.8-0.2,1.6-0.4,2.4c-0.7,2.9-1.7,5.8-2.6,8.6c-2,6.3-2.9,12.9-4.5,19.2c-1.6,6.2-2.5,12.3-1,18.7c1.2,5.2,4.6,9.8,7.6,14
				c3.4,5,6.9,10,9.9,15.3c3,5.4,5.3,11.7,3.7,17.9c-0.3,1.3-1,2.5-1.6,3.6c-1.2,2-2,0.4-3.1,0.2c-2.7-0.4-4.4,0.5-6.6,2
				c-0.2,0.2-0.2,0.4,0,0.6c12.1,9.1,25.6,10,40.1,12.3c12,1.9,21.8,15.6,33.5,4.8c0.3-0.3-0.2-0.8-0.5-0.5c-7,6.4-14.6,4-21.8-0.5
				c-5-3.1-9.5-4.3-15.4-5.1c-5.8-0.8-11.7-1.4-17.4-2.8c-3.5-0.8-6.9-2.2-10.2-3.7c-1.4-0.7-2.6-1.5-3.9-2.2
				c-0.9-0.6-1.8-1.2-2.7-1.8c-0.5-3.2,1.8-3.6,6.8-1.1c0.1,0.1,0.4,0.2,0.5,0c11.1-14.3-6.4-32.4-13.8-44.1
				c-3.2-5.1-5.2-10.2-5.2-16.3c0-6.8,2.6-13.5,4.1-20c1.1-4.7,1.9-9.2,3.4-13.7c0.9-2.7,2.8-6.7,1.8-9.6c-0.1-0.4-0.7-0.3-0.7,0.1
				c0.6,5.9-2,12.3,1.1,17.7c1.9,3.4,4.9,5.3,5.6,9.4c0.5,3.1-0.7,6.2-1.1,9.3c-0.4,3.9,0.8,9.2,5.7,9.5c0.8,0.1,1.7,0,2-1
				c0.2-0.6,0.2-1.1,0.3-1.7c0.3-3.2,2.9-3.1,5.5-2.4c3.1,0.9,5.9,2.4,9.2,2.7c2.7,0.3,5.9-0.6,8.4-1.6c4.3-1.9,4.7-7.2,5.6-11.2
				c2.1-10.2,6.6-19.7,11.5-28.8c3.2-6,9.3-11.9,9.1-19.1c0-0.3-0.5-0.5-0.6-0.2c-0.5,1.1-1.2,2.4-0.2,3.4c0.5,0.5,1.3,0.8,2,1.1
				c2.3,1,3.6,2.9,4.9,5c4.4,7.7,6.5,17.2,9.2,25.6c2.5,7.9,3.1,16.4,7.5,23.5c4.3,7,11.9,10.6,12.8,19.4c0.5,4.9,0.1,9.4,5.7,11.6
				c6.3,2.5,12.3-0.3,17.2-4.3c2.5-2,4.5-4.5,6.2-7.3c-0.3,0.4,0.5,4.4,0.5,5.2c0.1,2.2-0.1,4.3-0.5,6.5
				c-1.3,8.4-6.4,15.7-14.7,18.3c-0.2,0.1-0.3,0.2-0.2,0.4c3.9,19.1-27.7,23.4-39.2,31C189.6,374.6,190,375.2,190.3,374.9
				L190.3,374.9z"/>
		</g>
	</g>
</g>
</svg>
