<?xml version="1.0" encoding="utf-8"?>
<!-- Generator: Adobe Illustrator 16.0.4, SVG Export Plug-In . SVG Version: 6.00 Build 0)  -->
<!DOCTYPE svg PUBLIC "-//W3C//DTD SVG 1.0//EN" "http://www.w3.org/TR/2001/REC-SVG-20010904/DTD/svg10.dtd">
<svg version="1.0" id="Layer_1" xmlns="http://www.w3.org/2000/svg" xmlns:xlink="http://www.w3.org/1999/xlink" x="0px" y="0px"
	 width="213.762px" height="148.57px" viewBox="0 0 213.762 148.57" enable-background="new 0 0 213.762 148.57"
	 xml:space="preserve">
<g id="Butler">
</g>
<g id="Westland">
</g>
<g id="Helmsman">
</g>
<g id="Smith_Bros">
	<g>
		<g enable-background="new    ">
			<path fill="#FFFFFF" d="M66.884,23.046h-3.526c0-1.568,0-3.143,0-4.71h3.526v0.861h-2.645v1.083h2.55v0.828h-2.55v1.062h2.645
				V23.046z"/>
			<path fill="#FFFFFF" d="M71.611,19.472c-0.162-0.27-0.606-0.524-1.117-0.524c-0.659,0-0.976,0.275-0.976,0.625
				c0,0.411,0.484,0.525,1.05,0.593c0.982,0.121,1.897,0.377,1.897,1.5c0,1.05-0.929,1.501-1.979,1.501
				c-0.962,0-1.702-0.296-2.052-1.157l0.74-0.384c0.208,0.519,0.753,0.747,1.326,0.747c0.559,0,1.083-0.195,1.083-0.707
				c0-0.443-0.464-0.625-1.09-0.692c-0.962-0.114-1.851-0.37-1.851-1.427c0-0.969,0.956-1.366,1.824-1.373
				c0.733,0,1.494,0.209,1.851,0.936L71.611,19.472z"/>
			<path fill="#FFFFFF" d="M75.362,19.142h-1.494v-0.807c1.359,0,2.51,0,3.876,0v0.807H76.25v3.903h-0.888V19.142z"/>
			<path fill="#FFFFFF" d="M83.42,20.65c0.02,1.191-0.707,2.396-2.355,2.396c-0.579,0-1.272,0-1.851,0v-4.71
				c0.579,0,1.272,0,1.851,0C82.68,18.336,83.4,19.486,83.42,20.65z M80.096,22.191h0.969c1.07,0,1.494-0.78,1.474-1.548
				c-0.02-0.733-0.451-1.467-1.474-1.467h-0.969V22.191z"/>
		</g>
	</g>
	<g>
		<g enable-background="new    ">
			<path fill="#FFFFFF" d="M126.959,19.701c0.006-0.995,0.948-1.426,1.816-1.426c0.942,0,1.965,0.383,1.965,1.5
				c0,1.198-0.901,1.427-1.891,1.427c-0.391,0-1.023,0.101-1.023,0.612v0.403h2.928v0.828h-3.815c0-0.41,0-0.821,0-1.238
				c0-1.083,0.982-1.406,1.911-1.406c0.356,0,1.01-0.061,1.01-0.605c0-0.512-0.465-0.754-1.07-0.754
				c-0.465,0-0.942,0.235-0.949,0.659H126.959z"/>
			<path fill="#FFFFFF" d="M132.291,20.347c0-2.812,4.132-2.807,4.132,0v0.68c0,2.806-4.132,2.812-4.132,0V20.347z M133.173,21.027
				c0,1.709,2.368,1.709,2.368,0v-0.68c0-1.683-2.368-1.702-2.368,0V21.027z"/>
			<path fill="#FFFFFF" d="M137.826,22.292h0.706v-3.149h-0.733v-0.807h1.615v3.956h0.652v0.754h-2.24V22.292z"/>
			<path fill="#FFFFFF" d="M144.996,18.342v2.948h0.552v0.861h-0.552v0.895h-0.875v-0.895h-2.516l-0.082-0.902l2.12-2.907H144.996z
				 M144.121,21.29v-2.181l-1.594,2.181H144.121z"/>
		</g>
	</g>
	<g enable-background="new    ">
		<path fill="#FFFFFF" d="M9.679,72.284c0.551,0,1.147-0.131,1.786-0.392c0.638-0.262,1.045-0.393,1.219-0.393
			c0.551,0,0.828,0.276,0.828,0.828c0,0.377-0.204,0.683-0.61,0.914c-0.958,0.552-1.989,0.828-3.092,0.828c-0.117,0-0.291,0-0.523,0
			s-0.407,0-0.522,0c-0.988,1.756-1.902,2.937-2.744,3.541c-1.453,1.008-2.89,1.512-4.312,1.512c-1.162,0-1.743-0.494-1.743-1.481
			c0-0.812,0.421-2.091,1.263-3.833c0.319-0.639,0.886-1.757,1.699-3.354c-1.54-2.178-2.28-4.82-2.221-7.928
			c0.058-3.02,0.973-6.025,2.744-9.017c1.394-2.322,3.034-4.269,4.922-5.836c0.29-0.232,0.638-0.479,1.045-0.741
			c1.771-1.103,3.499-1.655,5.183-1.655c2.758,0,4.138,1.438,4.138,4.312c0,1.017-0.247,2.469-0.741,4.355
			c-0.174,0.669-1.075,2.803-2.7,6.403c4.326-5.43,7.971-8.653,10.933-9.67c0.987-0.349,1.83-0.522,2.526-0.522
			c1.626,0,2.439,0.856,2.439,2.569c0,1.018-0.276,2.208-0.827,3.572c-0.668,1.685-1.641,3.789-2.918,6.315
			c4.936-5.778,9.045-8.668,12.327-8.668c1.945,0,2.918,0.843,2.918,2.526c0,0.871-0.276,1.96-0.828,3.267
			c-1.743,3.282-3.746,7.188-6.011,11.718c-0.32,0.755-0.479,1.35-0.479,1.785c0,0.959,0.711,0.871,2.134-0.261
			c0.812-0.668,1.873-1.568,3.18-2.701c0.377-0.377,0.812-0.566,1.307-0.566c0.319,0,0.479,0.117,0.479,0.349
			c0,0.291-0.276,0.756-0.828,1.395c-1.423,1.654-2.977,3.15-4.661,4.486c-2.294,1.801-4.225,2.7-5.793,2.7
			c-2.12,0-3.18-1.089-3.18-3.267c0-0.9,0.189-1.771,0.566-2.613c1.655-3.659,2.991-6.795,4.007-9.408
			c0.349-0.9,0.522-1.597,0.522-2.091c0-0.406-0.146-0.61-0.436-0.61c-0.407,0-1.017,0.349-1.829,1.046
			c-2.062,1.771-4.284,4.312-6.665,7.622l-1.481,2.962c-0.9,1.801-1.466,2.89-1.699,3.267c-0.465,0.727-1.074,1.365-1.829,1.917
			c-1.481,1.104-2.89,1.655-4.225,1.655c-1.394,0-2.091-0.393-2.091-1.177c0-0.406,0.159-0.958,0.479-1.655
			c1.249-2.758,3.746-7.65,7.492-14.679c0.871-1.626,1.307-2.859,1.307-3.702c0-0.522-0.174-0.784-0.523-0.784
			c-0.93,0-2.599,1.496-5.009,4.486c-1.714,2.12-3.528,4.633-5.445,7.536C10.812,69.931,10.318,70.977,9.679,72.284z M2.754,62.876
			c-0.087,2.091,0.305,3.92,1.176,5.488c4.21-8.305,6.679-13.343,7.405-15.114c0.349-0.842,0.522-1.554,0.522-2.135
			c0-1.045-0.465-1.567-1.394-1.567c-0.204,0-0.436,0.028-0.697,0.087l-0.262,0.131c-1.481,0.726-2.918,2.366-4.312,4.922
			C3.683,57.446,2.869,60.176,2.754,62.876z"/>
		<path fill="#FFFFFF" d="M62.209,68.8c0.464,0.174,0.697,0.407,0.697,0.696c0,0.32-0.233,0.741-0.697,1.264
			c-1.481,1.975-3.195,3.034-5.14,3.18c-0.639,0.059-1.176-0.028-1.612-0.262c-2.556,3.369-5.401,5.053-8.537,5.053
			c-1.481,0-2.657-0.479-3.528-1.438c-0.871-0.958-1.307-2.25-1.307-3.876c0-0.697,0.087-1.423,0.261-2.178
			c-0.116,0.116-0.261,0.174-0.436,0.174c-0.581,0-0.871-0.289-0.871-0.868c0-0.289,0.117-0.564,0.349-0.825
			c1.422-1.794,2.962-3.56,4.617-5.296c2.555-2.75,4.82-4.573,6.795-5.471c1.103-0.521,2.178-0.781,3.223-0.781
			c1.974,0,3.295,0.998,3.963,2.995c0.145,0.435,0.218,0.941,0.218,1.52c0,1.939-0.726,4.341-2.178,7.206
			c0.349,0.203,0.523,0.608,0.523,1.216c0.987-0.232,1.771-0.856,2.352-1.873C61.338,68.8,61.773,68.654,62.209,68.8z
			 M49.882,74.331c0.203,0.088,0.406,0.131,0.61,0.131c0.929,0,1.756-0.827,2.482-2.482c-0.377-0.668-0.566-1.351-0.566-2.048
			c0-0.406,0.072-0.783,0.218-1.132c0.377-0.958,1.321-1.307,2.831-1.046c1.132-2.178,1.699-3.804,1.699-4.878
			c0-0.812-0.392-1.22-1.176-1.22c-1.162,0-2.73,1.815-4.705,5.444c-1.51,2.73-2.265,4.633-2.265,5.706
			C49.011,73.562,49.301,74.07,49.882,74.331z"/>
		<path fill="#FFFFFF" d="M60.554,71.718c-0.349,0-0.522-0.115-0.522-0.349c0-0.231,0.145-0.58,0.436-1.045
			c1.509-1.858,3.382-4.254,5.619-7.188c2.148-3.31,3.6-4.878,4.356-4.704c0.522,0.117,1.052,0.451,1.59,1.002
			c0.537,0.552,0.863,1.089,0.98,1.612c0.261,1.132,0.261,2.148,0,3.049c-0.146,0.522-0.683,1.467-1.612,2.831
			c1.016-0.987,1.96-1.873,2.831-2.657c2.062-1.887,3.586-3.121,4.574-3.702c0.638-0.406,1.292-0.812,1.96-1.22
			c0.668-0.406,1.248-0.609,1.742-0.609c0.784,0,1.539,0.494,2.265,1.48c0.116,0.175,0.174,0.393,0.174,0.653
			c0,0.697-0.683,2.353-2.047,4.966c-1.917,3.658-2.875,5.808-2.875,6.446c0,0.291,0.116,0.436,0.348,0.436
			c0.755,0,1.917-0.682,3.485-2.047c0.028-0.029,0.348-0.406,0.958-1.133c0.406-0.493,0.741-0.74,1.002-0.74
			c0.406,0,0.61,0.305,0.61,0.914c0,0.523-0.356,1.177-1.067,1.961c-0.712,0.783-1.938,1.916-3.68,3.397
			c-1.975,1.684-3.318,2.679-4.029,2.983c-0.712,0.305-1.459,0.457-2.243,0.457c-1.685,0-2.628-0.653-2.831-1.96
			c-0.204-1.277,1.117-4.573,3.963-9.888c0.116-0.202,0.174-0.377,0.174-0.522c0-0.145-0.102-0.218-0.305-0.218
			c-0.494,0-1.024,0.283-1.59,0.85c-0.566,0.566-1.648,1.779-3.245,3.637c-1.83,2.12-3.093,3.674-3.79,4.661
			s-1.568,1.851-2.613,2.591c-1.045,0.741-1.96,1.111-2.744,1.111c-1.045,0-1.568-0.537-1.568-1.611
			c0-0.494,0.232-1.118,0.697-1.873c0.726-1.19,1.103-1.83,1.132-1.917c0.523-1.074,1.8-3.63,3.833-7.666
			C63.124,69.714,61.135,71.718,60.554,71.718z"/>
		<path fill="#FFFFFF" d="M92.524,72.719c-0.146,1.598,0.436,2.411,1.742,2.439c0.812,0.029,1.844-0.319,3.093-1.046
			c1.132-0.696,2.119-1.48,2.962-2.352c1.103-1.19,1.851-1.909,2.243-2.156c0.392-0.246,0.631-0.37,0.719-0.37
			c0.232,0,0.522,0.116,0.871,0.349c0.145,0.116,0.218,0.261,0.218,0.436c0,0.639-1.017,1.902-3.049,3.789
			c-3.746,3.456-7.172,5.184-10.279,5.184c-0.958,0-1.801-0.204-2.526-0.61c-0.987-0.551-1.757-1.408-2.309-2.569
			c-0.465-0.958-0.639-1.771-0.522-2.439c0.116-0.726,0.203-1.204,0.261-1.438c0.174-0.464,0.494-0.885,0.958-1.263
			c-0.756,0.755-1.292,1.132-1.612,1.132c-0.261,0-0.501-0.13-0.719-0.392s-0.327-0.522-0.327-0.784c0-0.349,0.29-0.726,0.871-1.133
			c0.319-0.231,1.285-1.307,2.896-3.223c1.612-1.917,3.259-3.499,4.944-4.748c2.381-1.8,4.5-2.7,6.359-2.7
			c1.22,0,2.192,0.363,2.918,1.089c0.812,0.813,1.219,1.685,1.219,2.613c0,1.394-0.871,3.021-2.613,4.879
			C98.433,69.961,95.66,71.733,92.524,72.719z M95.486,68.32c0.464,0,1.452-0.798,2.962-2.396c0.899-0.958,1.35-1.96,1.35-3.006
			c0-0.464-0.174-0.696-0.522-0.696c-0.552,0-1.54,0.943-2.962,2.831c-0.988,1.191-1.481,2.091-1.481,2.7
			C94.833,68.132,95.051,68.32,95.486,68.32z"/>
		<path fill="#FFFFFF" d="M132.16,57.344c-1.829,2.149-4.24,3.797-7.23,4.944c-2.991,1.147-6.2,1.648-9.626,1.503
			c-0.087,0.668-0.131,1.321-0.131,1.96c0,3.543,1.233,5.634,3.702,6.271c0.523,0.146,1.031,0.218,1.525,0.218
			c3.106,0,5.646-2.191,7.622-6.577c0.29-0.464,0.842-0.696,1.655-0.696c0.318,0,0.479,0.436,0.479,1.307
			c0,0.843-0.436,2.134-1.307,3.877c-0.93,1.858-2.178,3.527-3.746,5.009c-2.468,2.352-5.197,3.528-8.188,3.528
			c-1.598,0-3.225-0.334-4.879-1.002c-3.718-1.51-5.576-4.748-5.576-9.714c0-1.887,0.276-3.861,0.828-5.924
			c-3.717-1.567-5.575-3.948-5.575-7.143c0-0.61,0.073-1.249,0.218-1.917c0.29-1.422,1.335-2.686,3.136-3.789
			c1.713-1.074,3.412-1.568,5.096-1.481c1.655,0.059,3.412,0.581,5.271,1.568c4.53-4.065,8.581-6.04,12.152-5.924
			c5.197,0.146,7.797,2.222,7.797,6.229C135.384,52.262,134.309,54.846,132.16,57.344z M107.943,59.87
			c1.22-3.339,3.165-6.344,5.837-9.016c-1.48-0.61-2.86-0.915-4.139-0.915c-1.975,0-3.557,0.74-4.747,2.222
			c-0.639,0.784-0.958,1.685-0.958,2.7C103.935,56.836,105.271,58.506,107.943,59.87z M120.617,52.552
			c0.959,0.784,1.858,1.598,2.701,2.439c0.377,0.494,0.305,0.93-0.218,1.307c-0.204,0.116-0.407,0.174-0.61,0.174
			c-0.319,0-0.581-0.145-0.783-0.436c-0.32-0.436-1.046-1.103-2.178-2.003c-0.61,0.837-1.177,1.659-1.699,2.468
			c-0.871,1.3-1.583,3.004-2.135,5.11c2.759-0.173,5.43-1.143,8.016-2.91c2.148-1.447,3.977-3.242,5.487-5.385
			c1.335-1.939,2.004-3.475,2.004-4.604c0-0.26-0.044-0.477-0.131-0.651c-0.669-1.158-1.54-1.737-2.613-1.737
			C126.512,46.324,123.899,48.4,120.617,52.552z"/>
		<path fill="#FFFFFF" d="M148.579,59.478c0.582-1.161,0.873-1.757,0.873-1.786c0.432-0.986,0.979-1.568,1.642-1.742
			c0.459-0.115,1.18,0.349,2.158,1.394c0.777,0.843,1.166,1.655,1.166,2.439c0,0.552-0.334,1.467-1.002,2.744
			c-0.756,1.481-1.902,3.674-3.441,6.577c-0.581,1.074-0.871,1.989-0.871,2.744c0,0.494,0.102,0.799,0.305,0.915
			s0.842-0.262,1.917-1.133c0.958-0.784,1.728-1.51,2.309-2.178c0.349-0.406,0.566-0.61,0.653-0.61c0.174,0,0.377,0.146,0.609,0.436
			c0.232,0.291,0.35,0.538,0.35,0.741c0,0.261-0.189,0.588-0.566,0.979c-0.379,0.393-0.771,0.806-1.177,1.241
			c-0.61,0.669-1.706,1.678-3.288,3.027c-1.584,1.351-2.65,2.2-3.201,2.549c-0.988,0.609-1.946,0.914-2.875,0.914
			c-0.727,0-1.387-0.21-1.982-0.632c-0.596-0.42-0.893-1.066-0.893-1.938c0-0.436,0.072-0.915,0.218-1.438
			c-1.626,1.365-2.978,2.352-4.051,2.962c-1.075,0.609-2.149,0.914-3.224,0.914s-1.96-0.333-2.656-1.001
			c-0.697-0.668-1.046-1.525-1.046-2.57s0.276-2.135,0.827-3.267c-0.639,0.059-1.045,0.007-1.219-0.152
			c-0.175-0.159-0.262-0.617-0.262-1.372c0-0.175,0.254-0.494,0.764-0.959c0.509-0.464,0.997-0.914,1.463-1.35
			c0.727-0.61,1.833-1.786,3.317-3.528c0.902-1.277,1.702-2.25,2.401-2.918c1.279-1.161,2.764-1.989,4.452-2.483
			c0.757-0.231,1.587-0.349,2.489-0.349C146.338,58.65,147.618,58.927,148.579,59.478z M139.26,72.937
			c0.609,0,1.496-0.595,2.657-1.786c0.871-0.929,1.611-1.844,2.222-2.744c1.394-2.119,2.09-3.716,2.09-4.791
			c0-0.697-0.29-1.045-0.871-1.045c-0.783,0-2.25,1.495-4.398,4.486c-1.655,2.323-2.482,3.964-2.482,4.922
			C138.477,72.618,138.738,72.937,139.26,72.937z"/>
		<path fill="#FFFFFF" d="M175.936,65.271c1.422-1.277,3.324-2.846,5.705-4.704c0.668-0.406,1.336-0.812,2.004-1.22
			c0.668-0.406,1.248-0.609,1.742-0.609c0.784,0,1.539,0.494,2.266,1.48c0.115,0.175,0.174,0.393,0.174,0.653
			c0,0.697-0.683,2.353-2.047,4.966c-1.917,3.658-2.875,5.837-2.875,6.533c0,0.262,0.102,0.393,0.305,0.393
			c0.609,0,1.771-0.697,3.484-2.091c0.059-0.059,0.377-0.421,0.959-1.089c0.436-0.494,0.783-0.741,1.045-0.741
			c0.174,0,0.355,0.109,0.545,0.327c0.188,0.218,0.283,0.414,0.283,0.588c0,0.291-0.436,0.915-1.307,1.873
			c-0.697,0.784-1.932,1.932-3.703,3.441c-1.945,1.684-3.281,2.679-4.008,2.983c-0.726,0.305-1.48,0.457-2.264,0.457
			c-1.686,0-2.629-0.653-2.832-1.96c-0.146-0.958,0.406-2.744,1.655-5.357c0.784-1.51,1.567-3.02,2.353-4.53
			c0.115-0.261,0.174-0.464,0.174-0.609c0-0.175-0.087-0.262-0.262-0.262c-0.436,0-0.987,0.334-1.654,1.002
			c-0.553,0.552-1.627,1.758-3.224,3.615c-1.829,2.12-3.093,3.674-3.79,4.661c-0.696,0.987-1.568,1.851-2.613,2.591
			c-1.045,0.741-1.96,1.111-2.744,1.111c-1.045,0-1.568-0.537-1.568-1.611c0-0.494,0.232-1.118,0.697-1.873
			c0.697-1.161,1.074-1.801,1.133-1.917c1.161-2.032,2.41-4.269,3.746-6.708c0.087-0.231,0.131-0.42,0.131-0.566
			c0-0.202-0.088-0.305-0.262-0.305c-0.407,0-0.943,0.334-1.611,1.002c-0.553,0.552-1.627,1.758-3.224,3.615
			c-1.829,2.12-3.093,3.674-3.79,4.661c-0.696,0.987-1.567,1.851-2.613,2.591c-1.045,0.741-1.959,1.111-2.744,1.111
			c-1.045,0-1.567-0.537-1.567-1.611c0-0.494,0.231-1.118,0.696-1.873c0.727-1.19,1.104-1.83,1.133-1.917
			c0.523-1.074,1.844-3.673,3.964-7.797c-1.452,1.655-3.151,3.543-5.097,5.663c-0.232,0.203-0.479,0.305-0.74,0.305
			c-0.465,0-0.697-0.218-0.697-0.653c0-0.203,0.088-0.421,0.262-0.653c1.539-1.83,3.441-4.196,5.706-7.101
			c2.12-3.31,3.571-4.878,4.356-4.704c0.521,0.117,1.052,0.451,1.59,1.002c0.537,0.552,0.863,1.089,0.979,1.612
			c0.261,1.132,0.261,2.148,0,3.049c-0.146,0.522-0.683,1.467-1.612,2.831c1.017-0.987,1.961-1.873,2.832-2.657
			c2.062-1.887,3.571-3.121,4.529-3.702c0.668-0.406,1.336-0.812,2.004-1.22c0.668-0.406,1.248-0.609,1.742-0.609
			c0.784,0,1.539,0.494,2.266,1.48c0.115,0.175,0.174,0.393,0.174,0.653C177.721,61.598,177.125,63.065,175.936,65.271z"/>
		<path fill="#FFFFFF" d="M200.85,64.356c1.597-1.538,3.557-3.049,5.88-4.529c1.046-0.668,2.135-1.002,3.267-1.002
			c1.423,0,2.135,0.639,2.135,1.916c0,0.813-0.32,1.845-0.959,3.093c-1.539,3.021-2.672,5.416-3.396,7.188
			c-0.378,0.958-0.232,1.437,0.436,1.437c0.348,0,0.754-0.21,1.219-0.631s1.248-1.213,2.353-2.374
			c0.319-0.349,0.712-0.522,1.177-0.522c0.521,0,0.783,0.218,0.783,0.653c0,0.348-0.232,0.784-0.697,1.307
			c-2.584,2.933-5.081,5.082-7.491,6.446c-1.104,0.639-2.236,0.958-3.397,0.958c-2.033,0-3.049-0.914-3.049-2.744
			c0-0.522,0.102-1.103,0.305-1.742c0.349-1.133,0.842-2.163,1.48-3.093c0.697-0.842,1.379-1.684,2.048-2.526
			c0.581-0.754,0.871-1.437,0.871-2.047c0-0.436-0.175-0.653-0.522-0.653c-0.523,0-1.264,0.509-2.222,1.524
			c-1.104,1.162-2.469,2.788-4.095,4.879c-0.406,0.755-1.031,1.945-1.873,3.571c-3.049,5.837-4.893,9.248-5.531,10.236
			c-1.714,2.584-3.557,4.181-5.531,4.791c-1.162,0.349-2.12,0.522-2.875,0.522c-0.727,0-1.336-0.174-1.83-0.522
			c-0.348-0.232-0.522-0.538-0.522-0.915c0-0.581,0.407-1.205,1.22-1.873c1.685-1.394,4.632-5.662,8.842-12.806l6.664-11.281
			c-1.365,1.685-3.354,3.906-5.967,6.664c-0.523,0.436-0.973,0.653-1.351,0.653c-0.465,0-0.696-0.231-0.696-0.696
			c0-0.494,0.289-0.987,0.871-1.481c0.986-0.842,2.744-2.875,5.27-6.098c2.092-2.643,3.543-4.559,4.355-5.75
			c0.61-0.899,1.177-1.35,1.699-1.35c0.349,0,0.77,0.218,1.264,0.653c1.219,1.074,1.829,2.091,1.829,3.049
			c0,0.552-0.167,1.241-0.501,2.068C201.975,62.157,201.489,63.166,200.85,64.356z"/>
	</g>
	<g>
		<g>
			<path fill="#FFFFFF" d="M61.658,120.111c0.188,0.05,0.377,0.099,0.564,0.146c-0.386,1.489-0.771,2.979-1.158,4.469
				c-0.192-0.051-0.387-0.102-0.58-0.151C60.876,123.086,61.268,121.599,61.658,120.111z"/>
			<path fill="#FFFFFF" d="M64.362,124.036c-0.169,0.755,0.26,1.187,0.843,1.322c0.417,0.098,0.684,0.085,0.923,0.046
				c0.003,0.141,0.005,0.281,0.008,0.422c-0.226,0.042-0.601,0.063-1.111-0.057c-0.987-0.232-1.426-0.997-1.198-1.917
				c0.227-0.922,0.961-1.512,1.877-1.295c1.024,0.239,1.102,1.181,0.974,1.745c-0.025,0.114-0.059,0.2-0.078,0.256
				C65.851,124.389,65.106,124.215,64.362,124.036z M66.148,124.036c0.089-0.354,0.06-0.938-0.587-1.091
				c-0.579-0.137-0.958,0.32-1.097,0.695C65.026,123.774,65.587,123.906,66.148,124.036z"/>
			<path fill="#FFFFFF" d="M70.46,126.885c0.011-0.133,0.021-0.266,0.03-0.397c-0.007-0.001-0.014-0.003-0.021-0.004
				c-0.228,0.206-0.617,0.353-1.077,0.257c-0.651-0.135-0.893-0.646-0.797-1.091c0.16-0.745,0.93-1.002,2.159-0.747
				c0.004-0.021,0.009-0.042,0.013-0.063c0.052-0.255,0.071-0.728-0.577-0.86c-0.295-0.062-0.621-0.036-0.874,0.057
				c-0.018-0.132-0.033-0.264-0.052-0.396c0.296-0.11,0.697-0.14,1.096-0.058c0.967,0.198,1.074,0.886,0.952,1.505
				c-0.076,0.386-0.151,0.771-0.229,1.154c-0.054,0.268-0.09,0.532-0.092,0.75C70.815,126.957,70.638,126.921,70.46,126.885z
				 M70.69,125.294c-0.632-0.14-1.372-0.182-1.498,0.416c-0.075,0.363,0.142,0.587,0.438,0.649c0.419,0.086,0.737-0.115,0.883-0.357
				c0.031-0.054,0.058-0.114,0.069-0.172C70.618,125.651,70.654,125.473,70.69,125.294z"/>
			<path fill="#FFFFFF" d="M73.942,125.348c0.066-0.364,0.116-0.68,0.149-0.971c0.168,0.031,0.337,0.062,0.505,0.091
				c-0.029,0.204-0.06,0.407-0.089,0.611c0.009,0.002,0.018,0.003,0.026,0.005c0.219-0.39,0.611-0.591,1-0.522
				c0.063,0.011,0.109,0.025,0.159,0.047c-0.029,0.177-0.062,0.354-0.092,0.532c-0.057-0.022-0.115-0.04-0.193-0.054
				c-0.407-0.07-0.751,0.179-0.905,0.587c-0.025,0.074-0.058,0.162-0.073,0.258c-0.099,0.551-0.196,1.101-0.295,1.65
				c-0.193-0.035-0.387-0.068-0.58-0.104C73.684,126.768,73.813,126.058,73.942,125.348z"/>
			<path fill="#FFFFFF" d="M77.773,125.87c0.052-0.321,0.086-0.585,0.107-0.845c0.171,0.026,0.342,0.054,0.512,0.081
				c-0.015,0.173-0.03,0.346-0.046,0.519c0.004,0.001,0.009,0.001,0.013,0.002c0.205-0.271,0.618-0.502,1.145-0.424
				c0.44,0.066,1.088,0.422,0.937,1.49c-0.088,0.62-0.177,1.24-0.265,1.859c-0.197-0.027-0.394-0.057-0.591-0.085
				c0.088-0.598,0.175-1.195,0.262-1.794c0.073-0.502-0.057-0.946-0.604-1.028c-0.384-0.059-0.72,0.16-0.867,0.459
				c-0.038,0.066-0.066,0.161-0.081,0.257c-0.098,0.623-0.193,1.246-0.29,1.869c-0.196-0.03-0.395-0.062-0.59-0.092
				C77.533,127.38,77.653,126.625,77.773,125.87z"/>
			<path fill="#FFFFFF" d="M85.903,128.683c0.162,0.128,0.459,0.277,0.756,0.309c0.431,0.045,0.652-0.142,0.679-0.401
				c0.026-0.271-0.126-0.437-0.543-0.637c-0.562-0.261-0.799-0.602-0.758-0.977c0.057-0.504,0.517-0.872,1.204-0.802
				c0.323,0.033,0.599,0.153,0.768,0.273c-0.062,0.133-0.124,0.267-0.188,0.4c-0.118-0.091-0.34-0.218-0.639-0.248
				c-0.344-0.036-0.557,0.138-0.582,0.371c-0.026,0.258,0.153,0.396,0.559,0.594c0.536,0.264,0.799,0.562,0.753,1.029
				c-0.054,0.549-0.534,0.896-1.311,0.814c-0.356-0.038-0.679-0.157-0.894-0.312C85.773,128.96,85.839,128.821,85.903,128.683z"/>
			<path fill="#FFFFFF" d="M93.334,128.315c-0.075,1.162-0.945,1.611-1.737,1.552c-0.885-0.067-1.514-0.748-1.429-1.738
				c0.091-1.049,0.845-1.604,1.729-1.538C92.816,126.66,93.396,127.355,93.334,128.315z M90.764,128.159
				c-0.056,0.688,0.312,1.239,0.894,1.283c0.565,0.042,1.025-0.441,1.074-1.147c0.037-0.531-0.188-1.225-0.879-1.275
				C91.163,126.966,90.813,127.562,90.764,128.159z"/>
			<path fill="#FFFFFF" d="M95.785,127.763c0.018-0.325,0.023-0.592,0.018-0.853c0.17,0.009,0.341,0.017,0.511,0.026
				c0.001,0.169,0.001,0.338,0.001,0.507c0.007,0,0.015,0,0.021,0.001c0.193-0.29,0.507-0.555,1.036-0.532
				c0.438,0.02,0.759,0.292,0.885,0.667c0.005,0,0.009,0,0.014,0c0.106-0.172,0.238-0.303,0.374-0.396
				c0.197-0.137,0.413-0.207,0.718-0.198c0.425,0.014,1.047,0.303,1.021,1.395c-0.016,0.618-0.031,1.235-0.047,1.853
				c-0.193-0.005-0.388-0.01-0.581-0.017c0.017-0.593,0.034-1.187,0.051-1.779c0.018-0.604-0.199-0.975-0.671-0.989
				c-0.332-0.011-0.601,0.22-0.711,0.496c-0.029,0.077-0.054,0.181-0.058,0.285c-0.023,0.646-0.049,1.294-0.071,1.941
				c-0.193-0.007-0.387-0.015-0.581-0.021c0.025-0.628,0.051-1.256,0.076-1.884c0.02-0.5-0.192-0.873-0.639-0.893
				c-0.364-0.016-0.645,0.257-0.752,0.538c-0.036,0.083-0.056,0.179-0.061,0.277c-0.031,0.632-0.062,1.264-0.092,1.896
				c-0.194-0.01-0.389-0.02-0.581-0.028C95.706,129.291,95.745,128.527,95.785,127.763z"/>
			<path fill="#FFFFFF" d="M103.335,128.814c0.006,0.773,0.517,1.097,1.11,1.098c0.425,0,0.682-0.072,0.903-0.164
				c0.034,0.136,0.068,0.272,0.104,0.409c-0.209,0.092-0.567,0.197-1.089,0.196c-1.01-0.002-1.604-0.648-1.592-1.598
				c0.013-0.948,0.59-1.688,1.525-1.687c1.047,0.001,1.331,0.9,1.335,1.479c0.001,0.117-0.013,0.208-0.02,0.267
				C104.854,128.821,104.095,128.82,103.335,128.814z M105.063,128.41c0.006-0.364-0.155-0.928-0.812-0.93
				c-0.591-0.002-0.855,0.528-0.905,0.925C103.918,128.41,104.49,128.412,105.063,128.41z"/>
			<path fill="#FFFFFF" d="M108.69,126.192c0.007,0.301,0.015,0.603,0.021,0.902c0.277-0.006,0.558-0.014,0.836-0.021
				c0.004,0.145,0.009,0.29,0.013,0.436c-0.278,0.009-0.56,0.016-0.839,0.021c0.014,0.565,0.026,1.131,0.04,1.696
				c0.009,0.39,0.13,0.608,0.46,0.6c0.155-0.004,0.271-0.026,0.343-0.048c0.014,0.143,0.026,0.285,0.039,0.428
				c-0.113,0.049-0.295,0.086-0.523,0.092c-0.278,0.008-0.504-0.071-0.648-0.225c-0.172-0.166-0.239-0.444-0.246-0.814
				c-0.012-0.571-0.022-1.144-0.035-1.715c-0.166,0.003-0.332,0.006-0.498,0.01c-0.003-0.146-0.006-0.291-0.008-0.437
				c0.166-0.003,0.332-0.006,0.498-0.009c-0.006-0.251-0.011-0.503-0.016-0.754C108.314,126.3,108.502,126.247,108.69,126.192z"/>
			<path fill="#FFFFFF" d="M111.803,125.524c0.192-0.008,0.386-0.017,0.578-0.025c0.03,0.653,0.06,1.308,0.09,1.96
				c0.004,0,0.009,0,0.013,0c0.086-0.166,0.227-0.315,0.399-0.422c0.168-0.104,0.371-0.181,0.589-0.192
				c0.431-0.021,1.135,0.199,1.198,1.282c0.036,0.623,0.072,1.246,0.107,1.869c-0.196,0.011-0.396,0.022-0.593,0.034
				c-0.033-0.603-0.065-1.203-0.099-1.805c-0.028-0.507-0.244-0.924-0.797-0.896c-0.378,0.02-0.666,0.292-0.759,0.609
				c-0.029,0.079-0.032,0.164-0.026,0.273c0.028,0.632,0.058,1.265,0.086,1.896c-0.198,0.009-0.396,0.018-0.595,0.025
				C111.932,128.599,111.867,127.062,111.803,125.524z"/>
			<path fill="#FFFFFF" d="M117.782,125.754c0.021,0.194-0.112,0.361-0.345,0.378c-0.204,0.016-0.359-0.129-0.374-0.323
				c-0.015-0.201,0.125-0.368,0.335-0.384C117.616,125.409,117.766,125.554,117.782,125.754z M117.432,129.822
				c-0.077-1.046-0.153-2.092-0.229-3.138c0.193-0.015,0.389-0.029,0.583-0.044c0.081,1.046,0.16,2.091,0.24,3.137
				C117.827,129.792,117.63,129.808,117.432,129.822z"/>
			<path fill="#FFFFFF" d="M120.483,127.267c-0.028-0.324-0.062-0.588-0.104-0.846c0.172-0.016,0.344-0.031,0.516-0.048
				c0.027,0.171,0.057,0.343,0.083,0.515c0.005,0,0.009,0,0.014-0.001c0.132-0.313,0.474-0.641,1.002-0.694
				c0.441-0.044,1.156,0.141,1.273,1.213c0.067,0.623,0.135,1.245,0.203,1.867c-0.197,0.021-0.395,0.043-0.592,0.062
				c-0.063-0.601-0.127-1.202-0.189-1.804c-0.054-0.504-0.291-0.903-0.841-0.848c-0.384,0.039-0.656,0.333-0.726,0.659
				c-0.021,0.074-0.024,0.173-0.016,0.27c0.062,0.627,0.12,1.255,0.182,1.883c-0.197,0.02-0.396,0.038-0.595,0.056
				C120.624,128.79,120.554,128.028,120.483,127.267z"/>
			<path fill="#FFFFFF" d="M128.477,125.479c0.019,0.227,0.04,0.479,0.093,0.858c0.085,0.604,0.171,1.206,0.256,1.81
				c0.101,0.715,0.014,1.173-0.267,1.486c-0.277,0.327-0.728,0.479-1.141,0.533c-0.394,0.052-0.837,0.017-1.122-0.119
				c0.032-0.149,0.062-0.3,0.095-0.45c0.231,0.102,0.585,0.175,0.989,0.122c0.607-0.079,1.014-0.443,0.905-1.229
				c-0.018-0.116-0.032-0.232-0.049-0.348c-0.005,0-0.01,0.001-0.015,0.002c-0.141,0.313-0.458,0.594-0.962,0.66
				c-0.808,0.104-1.466-0.482-1.571-1.348c-0.128-1.059,0.503-1.745,1.234-1.841c0.553-0.073,0.896,0.169,1.069,0.408
				c0.004-0.001,0.009-0.001,0.013-0.002c-0.013-0.158-0.024-0.316-0.038-0.475C128.138,125.526,128.307,125.503,128.477,125.479z
				 M128.045,126.792c-0.013-0.096-0.032-0.179-0.068-0.253c-0.151-0.313-0.472-0.545-0.896-0.49
				c-0.555,0.073-0.895,0.581-0.804,1.304c0.076,0.612,0.464,1.082,1.101,0.998c0.362-0.049,0.661-0.312,0.738-0.689
				c0.021-0.101,0.019-0.213,0.006-0.309C128.096,127.166,128.07,126.979,128.045,126.792z"/>
			<path fill="#FFFFFF" d="M134.239,125.432c-0.056-0.32-0.107-0.582-0.173-0.834c0.17-0.03,0.342-0.061,0.513-0.091
				c0.041,0.168,0.083,0.337,0.124,0.507c0.005,0,0.009-0.001,0.013-0.002c0.105-0.323,0.422-0.677,0.945-0.773
				c0.438-0.081,1.168,0.045,1.372,1.104c0.116,0.615,0.234,1.23,0.353,1.846c-0.195,0.038-0.391,0.075-0.586,0.11
				c-0.112-0.594-0.224-1.188-0.335-1.781c-0.095-0.499-0.363-0.877-0.908-0.777c-0.381,0.07-0.631,0.385-0.672,0.716
				c-0.015,0.076-0.01,0.173,0.007,0.271c0.11,0.621,0.222,1.241,0.332,1.861c-0.196,0.035-0.392,0.07-0.588,0.104
				C134.503,126.939,134.371,126.186,134.239,125.432z"/>
			<path fill="#FFFFFF" d="M140.028,125.161c0.172,0.755,0.741,0.961,1.325,0.834c0.417-0.09,0.653-0.216,0.854-0.353
				c0.062,0.126,0.126,0.252,0.188,0.378c-0.187,0.134-0.515,0.313-1.026,0.424c-0.993,0.214-1.715-0.291-1.903-1.219
				c-0.19-0.931,0.22-1.777,1.14-1.975c1.028-0.223,1.499,0.597,1.626,1.161c0.025,0.114,0.032,0.206,0.039,0.264
				C141.522,124.842,140.775,125.004,140.028,125.161z M141.641,124.396c-0.072-0.357-0.351-0.874-0.997-0.734
				c-0.581,0.124-0.729,0.699-0.691,1.097C140.515,124.641,141.078,124.52,141.641,124.396z"/>
			<path fill="#FFFFFF" d="M144.486,122.441c0.264,0.484,0.527,0.97,0.793,1.454c0.174,0.317,0.338,0.612,0.475,0.915
				c0.006-0.002,0.012-0.003,0.019-0.005c-0.003-0.328,0.022-0.683,0.047-1.036c0.045-0.562,0.089-1.124,0.131-1.687
				c0.159-0.04,0.318-0.08,0.479-0.12c0.29,0.469,0.582,0.936,0.875,1.401c0.212,0.335,0.385,0.633,0.538,0.923
				c0.006-0.002,0.013-0.003,0.02-0.005c-0.026-0.322-0.024-0.665-0.013-1.051c0.02-0.548,0.035-1.098,0.051-1.646
				c0.188-0.049,0.376-0.099,0.563-0.147c-0.067,1.103-0.143,2.206-0.222,3.31c-0.178,0.046-0.354,0.091-0.528,0.136
				c-0.287-0.442-0.572-0.887-0.855-1.332c-0.196-0.312-0.364-0.592-0.533-0.932c-0.005,0.001-0.009,0.002-0.014,0.003
				c0.015,0.385-0.006,0.726-0.035,1.081c-0.051,0.526-0.102,1.052-0.154,1.579c-0.177,0.043-0.354,0.086-0.528,0.129
				c-0.569-0.94-1.132-1.885-1.689-2.831C144.097,122.535,144.291,122.488,144.486,122.441z"/>
			<path fill="#FFFFFF" d="M50.881,125.69c-0.092,0.287-0.183,0.574-0.274,0.86c0.281,0.09,0.562,0.179,0.845,0.267
				c-0.044,0.139-0.088,0.276-0.131,0.416c-0.281-0.088-0.563-0.177-0.846-0.268c-0.171,0.539-0.343,1.078-0.514,1.617
				c-0.119,0.372-0.071,0.619,0.263,0.726c0.156,0.049,0.277,0.066,0.358,0.07c-0.033,0.14-0.067,0.279-0.102,0.418
				c-0.129,0.009-0.322-0.02-0.555-0.093c-0.279-0.088-0.479-0.241-0.574-0.435c-0.118-0.217-0.094-0.501,0.021-0.854
				c0.175-0.544,0.35-1.089,0.524-1.633c-0.168-0.054-0.335-0.108-0.503-0.163c0.045-0.138,0.09-0.276,0.135-0.414
				c0.167,0.054,0.334,0.108,0.501,0.162c0.077-0.239,0.154-0.479,0.231-0.718C50.468,125.664,50.674,125.677,50.881,125.69z"/>
			<path fill="#FFFFFF" d="M53.647,129.238c-0.207,0.746,0.223,1.205,0.825,1.379c0.431,0.124,0.71,0.128,0.961,0.105
				c-0.003,0.142-0.006,0.281-0.008,0.423c-0.237,0.027-0.631,0.023-1.158-0.127c-1.022-0.296-1.449-1.092-1.176-1.999
				c0.272-0.91,1.064-1.452,2.013-1.178c1.062,0.307,1.104,1.254,0.946,1.812c-0.031,0.113-0.069,0.197-0.092,0.25
				C55.187,129.687,54.416,129.465,53.647,129.238z M55.513,129.353c0.106-0.35,0.1-0.938-0.569-1.13
				c-0.6-0.175-1.014,0.259-1.173,0.625C54.351,129.019,54.931,129.187,55.513,129.353z"/>
			<path fill="#FFFFFF" d="M59.897,132.479c0.017-0.132,0.032-0.266,0.048-0.397c-0.007-0.001-0.014-0.003-0.021-0.005
				c-0.245,0.192-0.66,0.314-1.135,0.19c-0.677-0.178-0.905-0.703-0.787-1.143c0.196-0.734,1.012-0.944,2.286-0.611
				c0.005-0.021,0.011-0.042,0.016-0.063c0.064-0.252,0.104-0.724-0.567-0.897c-0.305-0.078-0.646-0.074-0.915,0.002
				c-0.013-0.134-0.024-0.268-0.037-0.4c0.313-0.091,0.733-0.095,1.146,0.012c1.002,0.258,1.086,0.955,0.933,1.566
				c-0.096,0.38-0.19,0.761-0.286,1.141c-0.066,0.266-0.117,0.527-0.128,0.746C60.266,132.572,60.081,132.526,59.897,132.479z
				 M60.204,130.9c-0.653-0.181-1.427-0.27-1.582,0.322c-0.096,0.357,0.123,0.597,0.432,0.677c0.434,0.113,0.773-0.069,0.938-0.302
				c0.034-0.053,0.063-0.111,0.078-0.168C60.114,131.253,60.159,131.077,60.204,130.9z"/>
			<path fill="#FFFFFF" d="M65.52,133.695c-0.177,0.041-0.552,0.063-1.004-0.038c-1.013-0.229-1.521-1.014-1.3-1.949
				c0.225-0.942,1.08-1.459,2.154-1.216c0.354,0.08,0.647,0.232,0.796,0.344c-0.077,0.134-0.155,0.269-0.232,0.401
				c-0.127-0.108-0.337-0.229-0.664-0.302c-0.758-0.171-1.286,0.251-1.437,0.891c-0.165,0.708,0.229,1.262,0.895,1.412
				c0.346,0.078,0.593,0.046,0.78,0.015C65.512,133.4,65.516,133.547,65.52,133.695z"/>
			<path fill="#FFFFFF" d="M68.88,129.813c0.198,0.041,0.396,0.082,0.596,0.122c-0.13,0.641-0.26,1.282-0.391,1.924
				c0.005,0.001,0.01,0.002,0.014,0.002c0.129-0.139,0.307-0.249,0.512-0.309c0.197-0.06,0.422-0.081,0.647-0.036
				c0.444,0.088,1.107,0.479,0.905,1.545c-0.116,0.612-0.232,1.226-0.35,1.839c-0.204-0.039-0.409-0.078-0.612-0.118
				c0.113-0.591,0.229-1.183,0.343-1.774c0.096-0.498-0.021-0.958-0.591-1.069c-0.391-0.077-0.749,0.115-0.922,0.398
				c-0.051,0.069-0.074,0.15-0.097,0.26c-0.126,0.619-0.252,1.239-0.378,1.859c-0.204-0.041-0.407-0.083-0.611-0.125
				C68.258,132.827,68.568,131.32,68.88,129.813z"/>
			<path fill="#FFFFFF" d="M76.794,135.342c0.164,0.138,0.467,0.304,0.774,0.35c0.447,0.067,0.688-0.107,0.727-0.365
				c0.04-0.271-0.113-0.443-0.541-0.666c-0.576-0.291-0.812-0.644-0.752-1.016c0.079-0.501,0.576-0.845,1.292-0.736
				c0.337,0.05,0.619,0.184,0.791,0.313c-0.071,0.13-0.143,0.26-0.213,0.39c-0.12-0.097-0.347-0.234-0.656-0.281
				c-0.358-0.053-0.588,0.108-0.623,0.34c-0.04,0.257,0.144,0.404,0.558,0.623c0.552,0.292,0.812,0.605,0.744,1.069
				c-0.078,0.546-0.595,0.867-1.401,0.745c-0.372-0.057-0.702-0.193-0.92-0.358C76.646,135.612,76.72,135.477,76.794,135.342z"/>
			<path fill="#FFFFFF" d="M84.572,135.362c-0.129,1.157-1.059,1.562-1.881,1.461c-0.923-0.112-1.55-0.825-1.419-1.812
				c0.139-1.044,0.948-1.56,1.872-1.446C84.103,133.682,84.679,134.406,84.572,135.362z M81.894,135.073
				c-0.088,0.684,0.273,1.254,0.877,1.328c0.591,0.072,1.092-0.388,1.172-1.092c0.062-0.53-0.145-1.233-0.862-1.32
				C82.36,133.902,81.97,134.48,81.894,135.073z"/>
			<path fill="#FFFFFF" d="M87.156,134.935c0.032-0.324,0.053-0.589,0.058-0.851c0.177,0.019,0.354,0.035,0.532,0.052
				c-0.008,0.17-0.015,0.339-0.021,0.508c0.007,0.001,0.014,0.001,0.021,0.002c0.216-0.279,0.553-0.528,1.104-0.479
				c0.457,0.041,0.781,0.329,0.896,0.71c0.005,0,0.01,0.001,0.015,0.001c0.119-0.167,0.262-0.292,0.409-0.377
				c0.212-0.126,0.439-0.186,0.759-0.162c0.442,0.035,1.08,0.354,1.004,1.444c-0.044,0.616-0.088,1.231-0.132,1.848
				c-0.202-0.014-0.403-0.028-0.605-0.044c0.045-0.592,0.089-1.185,0.133-1.775c0.045-0.604-0.165-0.983-0.658-1.021
				c-0.346-0.026-0.636,0.19-0.766,0.46c-0.032,0.075-0.062,0.177-0.07,0.281c-0.055,0.646-0.107,1.291-0.161,1.937
				c-0.202-0.017-0.404-0.033-0.606-0.051c0.056-0.626,0.108-1.252,0.162-1.878c0.044-0.499-0.161-0.881-0.626-0.923
				c-0.381-0.034-0.686,0.224-0.809,0.5c-0.044,0.081-0.066,0.177-0.076,0.274c-0.06,0.63-0.119,1.26-0.179,1.889
				c-0.202-0.02-0.404-0.039-0.606-0.058C87.007,136.458,87.081,135.696,87.156,134.935z"/>
			<path fill="#FFFFFF" d="M94.998,136.358c-0.029,0.772,0.488,1.121,1.108,1.149c0.444,0.021,0.715-0.039,0.95-0.119
				c0.03,0.138,0.061,0.275,0.089,0.413c-0.222,0.082-0.601,0.17-1.145,0.145c-1.053-0.051-1.646-0.725-1.59-1.671
				c0.055-0.948,0.694-1.659,1.67-1.611c1.095,0.052,1.351,0.964,1.328,1.543c-0.006,0.117-0.023,0.207-0.032,0.266
				C96.584,136.439,95.791,136.401,94.998,136.358z M96.821,136.038c0.023-0.364-0.118-0.935-0.807-0.968
				c-0.618-0.03-0.918,0.487-0.988,0.88C95.624,135.982,96.223,136.011,96.821,136.038z"/>
			<path fill="#FFFFFF" d="M100.713,133.995c-0.007,0.301-0.014,0.603-0.021,0.903c0.292,0.007,0.584,0.013,0.875,0.018
				c-0.002,0.146-0.005,0.291-0.008,0.437c-0.292-0.005-0.584-0.012-0.877-0.019c-0.013,0.565-0.024,1.131-0.038,1.696
				c-0.009,0.39,0.107,0.614,0.452,0.621c0.162,0.003,0.282-0.015,0.36-0.032c0.007,0.144,0.014,0.286,0.021,0.429
				c-0.12,0.043-0.312,0.073-0.552,0.067c-0.29-0.006-0.522-0.096-0.667-0.255c-0.172-0.174-0.229-0.455-0.218-0.825
				c0.015-0.572,0.028-1.143,0.044-1.715c-0.174-0.005-0.349-0.009-0.521-0.015c0.004-0.146,0.008-0.29,0.014-0.436
				c0.173,0.005,0.347,0.01,0.521,0.014c0.006-0.251,0.013-0.503,0.02-0.754C100.314,134.085,100.514,134.04,100.713,133.995z"/>
			<path fill="#FFFFFF" d="M103.996,133.472c0.202,0.001,0.403,0.001,0.605,0.001c-0.001,0.653-0.001,1.309-0.001,1.963
				c0.004,0,0.009,0,0.015,0c0.096-0.162,0.25-0.306,0.437-0.403c0.181-0.098,0.396-0.164,0.625-0.165
				c0.451-0.002,1.174,0.25,1.188,1.335c0.008,0.624,0.016,1.248,0.021,1.872c-0.207,0.002-0.414,0.005-0.62,0.006
				c-0.006-0.602-0.011-1.205-0.016-1.807c-0.005-0.507-0.212-0.935-0.788-0.932c-0.396,0.001-0.71,0.263-0.821,0.574
				c-0.035,0.078-0.042,0.162-0.042,0.273c0,0.633-0.001,1.266-0.001,1.897c-0.207,0-0.414,0-0.622-0.001
				C103.984,136.549,103.99,135.01,103.996,133.472z"/>
			<path fill="#FFFFFF" d="M110.23,133.973c0.014,0.194-0.135,0.354-0.377,0.361c-0.214,0.006-0.37-0.146-0.375-0.341
				c-0.006-0.201,0.148-0.361,0.369-0.368C110.074,133.62,110.224,133.771,110.23,133.973z M109.664,138.021
				c-0.028-1.048-0.059-2.098-0.086-3.146c0.203-0.005,0.406-0.011,0.609-0.018c0.032,1.048,0.065,2.096,0.099,3.145
				C110.078,138.009,109.871,138.015,109.664,138.021z"/>
			<path fill="#FFFFFF" d="M112.976,135.604c-0.015-0.325-0.034-0.591-0.066-0.851c0.181-0.008,0.36-0.017,0.541-0.025
				c0.021,0.173,0.041,0.345,0.062,0.518c0.004,0,0.009,0,0.014-0.001c0.152-0.307,0.526-0.618,1.08-0.648
				c0.464-0.025,1.199,0.189,1.269,1.267c0.039,0.625,0.078,1.25,0.117,1.875c-0.207,0.013-0.414,0.025-0.62,0.038
				c-0.036-0.604-0.071-1.207-0.106-1.812c-0.03-0.507-0.258-0.916-0.834-0.884c-0.402,0.022-0.703,0.304-0.791,0.627
				c-0.022,0.073-0.033,0.171-0.028,0.269c0.031,0.63,0.062,1.26,0.095,1.89c-0.207,0.01-0.414,0.02-0.621,0.03
				C113.047,137.131,113.012,136.367,112.976,135.604z"/>
			<path fill="#FFFFFF" d="M121.403,134.16c0.008,0.229,0.019,0.481,0.054,0.863c0.058,0.605,0.113,1.212,0.171,1.818
				c0.066,0.719-0.046,1.174-0.354,1.476c-0.307,0.315-0.782,0.449-1.216,0.484c-0.412,0.035-0.873-0.02-1.162-0.167
				c0.04-0.148,0.081-0.297,0.121-0.445c0.236,0.111,0.602,0.2,1.025,0.164c0.637-0.055,1.077-0.401,1.006-1.19
				c-0.011-0.117-0.021-0.232-0.032-0.35c-0.005,0-0.01,0.001-0.015,0.001c-0.163,0.309-0.509,0.574-1.037,0.619
				c-0.847,0.07-1.503-0.544-1.568-1.413c-0.079-1.063,0.614-1.724,1.382-1.788c0.581-0.05,0.926,0.207,1.096,0.452
				c0.004,0,0.009,0,0.014-0.001c-0.006-0.159-0.01-0.317-0.016-0.476C121.048,134.192,121.226,134.176,121.403,134.16z
				 M120.886,135.454c-0.009-0.097-0.024-0.18-0.058-0.255c-0.144-0.32-0.466-0.565-0.908-0.527
				c-0.582,0.051-0.962,0.542-0.905,1.27c0.049,0.615,0.428,1.101,1.096,1.044c0.381-0.032,0.704-0.283,0.806-0.658
				c0.025-0.1,0.029-0.211,0.021-0.308C120.92,135.83,120.902,135.642,120.886,135.454z"/>
			<path fill="#FFFFFF" d="M127.767,136.618c-0.115-0.896-0.229-1.792-0.345-2.688c-0.157,0.02-0.313,0.039-0.471,0.06
				c-0.02-0.144-0.036-0.288-0.055-0.432c0.156-0.021,0.312-0.04,0.47-0.061c-0.007-0.049-0.013-0.099-0.02-0.147
				c-0.057-0.439-0.004-0.853,0.244-1.141c0.198-0.234,0.488-0.358,0.769-0.396c0.212-0.029,0.402-0.009,0.525,0.02
				c-0.008,0.149-0.016,0.299-0.022,0.449c-0.094-0.026-0.222-0.042-0.393-0.018c-0.515,0.068-0.589,0.511-0.526,0.987
				c0.009,0.057,0.016,0.112,0.022,0.167c0.269-0.036,0.538-0.07,0.807-0.107c0.021,0.144,0.039,0.288,0.06,0.432
				c-0.271,0.037-0.539,0.073-0.81,0.108c0.118,0.896,0.235,1.792,0.354,2.688C128.173,136.566,127.97,136.592,127.767,136.618z"/>
			<path fill="#FFFFFF" d="M133.38,135.81c-0.037-0.127-0.074-0.255-0.111-0.384c-0.008,0.001-0.015,0.003-0.021,0.004
				c-0.148,0.272-0.479,0.55-0.962,0.624c-0.688,0.104-1.104-0.288-1.169-0.737c-0.11-0.754,0.549-1.27,1.844-1.467
				c-0.003-0.021-0.007-0.043-0.01-0.064c-0.042-0.257-0.19-0.706-0.873-0.6c-0.311,0.048-0.621,0.187-0.834,0.363
				c-0.064-0.117-0.129-0.234-0.193-0.353c0.25-0.208,0.632-0.377,1.052-0.443c1.018-0.158,1.37,0.446,1.473,1.069
				c0.062,0.387,0.126,0.774,0.188,1.162c0.044,0.27,0.102,0.53,0.177,0.735C133.753,135.75,133.566,135.78,133.38,135.81z
				 M133.036,134.239c-0.668,0.094-1.407,0.317-1.316,0.921c0.056,0.367,0.348,0.5,0.661,0.451c0.442-0.068,0.68-0.37,0.735-0.648
				c0.012-0.062,0.016-0.127,0.006-0.186C133.094,134.599,133.064,134.419,133.036,134.239z"/>
			<path fill="#FFFFFF" d="M136.22,133.003c-0.057-0.319-0.111-0.582-0.178-0.833c0.176-0.03,0.353-0.062,0.527-0.095
				c0.039,0.165,0.078,0.33,0.117,0.494c0.007-0.001,0.016-0.002,0.021-0.004c0.132-0.328,0.392-0.659,0.938-0.762
				c0.452-0.086,0.844,0.104,1.06,0.439c0.004-0.001,0.009-0.001,0.013-0.002c0.069-0.193,0.175-0.352,0.293-0.475
				c0.171-0.18,0.375-0.3,0.689-0.362c0.437-0.087,1.141,0.047,1.361,1.116c0.125,0.604,0.249,1.209,0.374,1.813
				c-0.199,0.041-0.397,0.082-0.598,0.123c-0.118-0.582-0.236-1.164-0.354-1.746c-0.12-0.593-0.425-0.9-0.912-0.805
				c-0.343,0.068-0.562,0.356-0.612,0.651c-0.015,0.082-0.016,0.188,0.006,0.291c0.123,0.636,0.247,1.271,0.37,1.906
				c-0.199,0.039-0.399,0.078-0.6,0.116c-0.116-0.618-0.234-1.235-0.354-1.852c-0.094-0.492-0.396-0.805-0.855-0.719
				c-0.378,0.07-0.601,0.401-0.646,0.7c-0.02,0.089-0.017,0.188,0.002,0.284c0.113,0.623,0.227,1.245,0.34,1.867
				c-0.2,0.037-0.4,0.073-0.6,0.107C136.488,134.509,136.354,133.756,136.22,133.003z"/>
			<path fill="#FFFFFF" d="M143.955,129.666c0.05,0.189-0.065,0.375-0.305,0.428c-0.21,0.048-0.393-0.071-0.435-0.262
				c-0.044-0.196,0.077-0.384,0.294-0.432C143.733,129.35,143.911,129.469,143.955,129.666z M144.166,133.75
				c-0.229-1.023-0.455-2.047-0.685-3.07c0.2-0.046,0.4-0.091,0.602-0.136c0.23,1.023,0.463,2.045,0.693,3.068
				C144.573,133.658,144.37,133.704,144.166,133.75z"/>
			<path fill="#FFFFFF" d="M146.431,128.484c0.197-0.048,0.396-0.096,0.593-0.146c0.368,1.494,0.735,2.987,1.104,4.481
				c-0.203,0.05-0.405,0.099-0.608,0.147C147.156,131.475,146.793,129.979,146.431,128.484z"/>
			<path fill="#FFFFFF" d="M150.508,128.05c0.057,0.188-0.052,0.377-0.288,0.439c-0.208,0.055-0.396-0.057-0.445-0.246
				c-0.052-0.194,0.063-0.386,0.278-0.443C150.274,127.742,150.456,127.855,150.508,128.05z M150.872,132.122
				c-0.268-1.014-0.532-2.028-0.799-3.042c0.197-0.052,0.396-0.104,0.596-0.158c0.27,1.014,0.54,2.027,0.81,3.04
				C151.276,132.016,151.075,132.069,150.872,132.122z"/>
			<path fill="#FFFFFF" d="M156.036,130.683c-0.054-0.122-0.106-0.244-0.16-0.366c-0.007,0.002-0.015,0.004-0.021,0.006
				c-0.113,0.292-0.409,0.608-0.882,0.744c-0.673,0.192-1.138-0.144-1.261-0.581c-0.205-0.733,0.389-1.329,1.656-1.694
				c-0.008-0.021-0.014-0.042-0.02-0.062c-0.073-0.25-0.279-0.676-0.947-0.482c-0.304,0.088-0.597,0.267-0.786,0.469
				c-0.079-0.107-0.158-0.216-0.237-0.323c0.224-0.239,0.584-0.457,0.994-0.576c0.995-0.289,1.425,0.266,1.604,0.87
				c0.112,0.376,0.226,0.752,0.336,1.128c0.078,0.262,0.168,0.513,0.271,0.706C156.401,130.576,156.219,130.629,156.036,130.683z
				 M155.494,129.169c-0.655,0.18-1.365,0.497-1.197,1.084c0.102,0.356,0.41,0.451,0.717,0.362c0.432-0.125,0.632-0.454,0.651-0.738
				c0.005-0.062-0.001-0.129-0.019-0.185C155.597,129.519,155.545,129.344,155.494,129.169z"/>
			<path fill="#FFFFFF" d="M158.557,127.653c-0.111-0.354-0.214-0.655-0.322-0.928c0.174-0.055,0.346-0.108,0.518-0.163
				c0.068,0.193,0.138,0.388,0.207,0.582c0.009-0.002,0.018-0.005,0.025-0.009c0.021-0.449,0.294-0.815,0.688-0.943
				c0.065-0.021,0.115-0.03,0.173-0.036c0.056,0.171,0.111,0.342,0.167,0.513c-0.063,0.007-0.126,0.021-0.207,0.047
				c-0.416,0.135-0.618,0.521-0.568,0.954c0.011,0.078,0.024,0.17,0.055,0.263c0.169,0.532,0.339,1.064,0.509,1.598
				c-0.197,0.062-0.396,0.125-0.593,0.188C158.989,129.03,158.772,128.341,158.557,127.653z"/>
		</g>
	</g>
	<g enable-background="new    ">
		<path fill="#FFFFFF" d="M45.317,105.236c-0.368,0-0.552-0.184-0.552-0.552c0-0.164,0.058-0.339,0.174-0.522
			c0.164-0.262,0.377-0.393,0.639-0.393h2.643c0.377,0,0.566,0.204,0.566,0.61c0,0.155-0.072,0.329-0.218,0.522
			c-0.174,0.223-0.377,0.334-0.61,0.334H45.317z"/>
		<path fill="#FFFFFF" d="M60.837,101.287c0.146-0.146,0.31-0.218,0.494-0.218c0.242,0,0.363,0.106,0.363,0.319
			c0,0.146-0.078,0.311-0.232,0.494c-0.3,0.358-0.537,0.881-0.711,1.567c-0.155,0.581-0.339,1.568-0.552,2.962
			c-0.184,1.239-0.784,2.261-1.8,3.063c-0.91,0.717-1.926,1.108-3.049,1.177c-0.997,0.058-1.849-0.218-2.555-0.828
			c-0.658-0.571-0.968-1.21-0.929-1.916c0.039-0.639,0.232-1.138,0.581-1.496c0.32-0.338,0.726-0.508,1.22-0.508
			c0.31,0,0.568,0.1,0.777,0.298c0.208,0.198,0.312,0.452,0.312,0.762c0,0.319-0.208,0.61-0.624,0.871
			c-0.291,0.185-0.436,0.402-0.436,0.653c0,0.175,0.065,0.354,0.196,0.538c0.131,0.184,0.341,0.275,0.632,0.275
			c0.406,0,0.847-0.174,1.321-0.522c0.562-0.407,1.075-1.012,1.539-1.815c0.136-0.232,0.46-0.914,0.973-2.047
			c0.455-1.017,0.875-1.81,1.263-2.381C59.685,102.439,60.092,102.023,60.837,101.287z M60.169,100.227
			c-0.745-0.396-1.471-0.596-2.178-0.596c-0.803,0-1.568,0.252-2.294,0.755c-0.688,0.484-1.031,1.21-1.031,2.178
			c0,0.388,0.073,0.722,0.218,1.002c0.251,0.475,0.707,0.712,1.365,0.712c0.319,0,0.581-0.067,0.784-0.203
			c0.484-0.339,0.726-0.794,0.726-1.365c0-0.213-0.053-0.418-0.16-0.617c-0.106-0.198-0.116-0.375-0.029-0.529
			c0.077-0.146,0.208-0.218,0.392-0.218c0.242,0,0.44,0.14,0.595,0.421c0.077,0.136,0.116,0.31,0.116,0.522
			c0,0.707-0.262,1.351-0.784,1.931c-0.484,0.552-1.065,0.828-1.742,0.828c-0.513,0-0.987-0.184-1.423-0.551
			c-0.533-0.444-0.799-1.096-0.799-1.956c0-1.266,0.59-2.396,1.771-3.391c0.968-0.812,2.042-1.217,3.223-1.217
			c0.716,0,1.602,0.181,2.657,0.543c0.735,0.248,1.365,0.371,1.887,0.371c0.465,0,0.75-0.11,0.857-0.334
			c0.135-0.3,0.3-0.449,0.494-0.449c0.193,0,0.29,0.188,0.29,0.565c0,0.717-0.3,1.331-0.9,1.845
			c-0.513,0.436-1.012,0.653-1.496,0.653C62.13,101.128,61.282,100.827,60.169,100.227z"/>
		<path fill="#FFFFFF" d="M61.04,106.078c0.029-0.048,0.528-0.595,1.496-1.641c0.223-0.241,0.585-0.737,1.089-1.488
			c0.503-0.75,0.91-1.405,1.22-1.967c0.223-0.455,0.445-0.905,0.668-1.351c0.368-0.696,0.658-1.045,0.871-1.045
			c0.348,0,0.672,0.498,0.973,1.495c0.01,0.029,0.015,0.068,0.015,0.116c0,0.213-0.194,0.683-0.581,1.408
			c-0.562,1.065-0.949,1.84-1.161,2.323c1.51-0.968,2.57-1.452,3.18-1.452c0.203,0,0.372,0.073,0.508,0.218
			c0.136,0.146,0.204,0.324,0.204,0.537c0,0.146-0.029,0.311-0.087,0.494c-0.068,0.213-0.528,1.089-1.379,2.628
			c-0.068,0.126-0.102,0.237-0.102,0.334c0,0.155,0.102,0.232,0.305,0.232c0.174,0,0.314-0.044,0.421-0.131
			c0.31-0.252,0.585-0.527,0.828-0.828c0.165-0.203,0.305-0.305,0.421-0.305c0.193,0,0.291,0.093,0.291,0.276
			c0,0.067-0.039,0.154-0.116,0.261c-0.078,0.107-0.121,0.175-0.131,0.204c-0.02,0.097-0.513,0.575-1.481,1.437
			c-0.348,0.311-0.74,0.596-1.176,0.857c-0.475,0.29-0.823,0.436-1.045,0.436c-0.049,0-0.092-0.01-0.131-0.029
			c-0.562-0.31-0.842-0.639-0.842-0.987c0-0.242,0.111-0.619,0.334-1.133c0.28-0.629,0.421-1.089,0.421-1.379
			c0-0.136-0.043-0.203-0.131-0.203c-0.194,0-0.605,0.411-1.234,1.233c-0.746,0.979-1.346,1.641-1.8,1.989
			c-0.029,0.02-0.291,0.15-0.784,0.393c-0.078,0.038-0.15,0.058-0.218,0.058c-0.223,0-0.397-0.174-0.523-0.522
			c-0.048-0.126,0.247-0.779,0.886-1.96c0.9-1.655,1.403-2.594,1.51-2.817c-0.184,0.311-0.601,0.862-1.249,1.655
			c-0.552,0.668-0.896,1.07-1.031,1.205c-0.058,0.059-0.116,0.088-0.174,0.088c-0.155,0-0.262-0.068-0.32-0.204
			C60.924,106.369,60.944,106.223,61.04,106.078z"/>
		<path fill="#FFFFFF" d="M71.988,107.109c-0.049,0.532,0.145,0.804,0.581,0.813c0.271,0.01,0.615-0.106,1.031-0.349
			c0.377-0.232,0.707-0.494,0.987-0.784c0.368-0.396,0.617-0.637,0.748-0.719c0.13-0.082,0.21-0.123,0.239-0.123
			c0.078,0,0.174,0.038,0.291,0.116c0.048,0.038,0.073,0.087,0.073,0.145c0,0.213-0.339,0.635-1.017,1.264
			c-1.249,1.151-2.391,1.728-3.426,1.728c-0.32,0-0.601-0.068-0.842-0.203c-0.329-0.184-0.586-0.47-0.77-0.856
			c-0.155-0.319-0.213-0.591-0.174-0.813c0.039-0.242,0.068-0.401,0.087-0.479c0.058-0.154,0.165-0.295,0.319-0.421
			c-0.252,0.252-0.431,0.378-0.537,0.378c-0.087,0-0.167-0.044-0.24-0.131s-0.109-0.174-0.109-0.262
			c0-0.116,0.097-0.241,0.291-0.377c0.106-0.077,0.428-0.436,0.965-1.074c0.537-0.64,1.086-1.167,1.648-1.583
			c0.793-0.6,1.5-0.9,2.12-0.9c0.407,0,0.731,0.121,0.973,0.363c0.271,0.271,0.406,0.562,0.406,0.871
			c0,0.465-0.291,1.007-0.871,1.626C73.957,106.189,73.033,106.78,71.988,107.109z M72.975,105.642c0.155,0,0.484-0.266,0.987-0.798
			c0.3-0.319,0.45-0.653,0.45-1.002c0-0.155-0.058-0.232-0.174-0.232c-0.184,0-0.513,0.314-0.987,0.943
			c-0.33,0.397-0.494,0.697-0.494,0.9C72.757,105.58,72.829,105.642,72.975,105.642z"/>
		<path fill="#FFFFFF" d="M82.63,98.179c0.494-0.019,0.934,0.126,1.321,0.437c0.465,0.357,0.697,0.847,0.697,1.466
			c0,0.378-0.087,0.789-0.261,1.234c-0.416,1.055-0.789,1.965-1.118,2.729c0.251-0.154,0.498-0.372,0.74-0.653
			c0.184-0.203,0.363-0.411,0.537-0.624c0.146-0.165,0.281-0.247,0.407-0.247c0.135,0,0.203,0.092,0.203,0.275
			c0,0.136-0.048,0.271-0.145,0.407c-0.591,0.822-1.302,1.403-2.134,1.742c-0.417,0.871-0.625,1.398-0.625,1.582
			c0,0.281,0.111,0.421,0.334,0.421c0.165,0,0.349-0.087,0.552-0.261c0.532-0.465,1.108-1.06,1.728-1.786
			c0.397-0.784,0.915-1.834,1.554-3.15c0.242-0.503,0.479-0.876,0.711-1.118c0.155-0.174,0.401-0.363,0.741-0.566
			c0.28-0.174,0.595-0.261,0.943-0.261c0.407,0,0.61,0.136,0.61,0.406c0,0.087-0.02,0.179-0.058,0.275
			c-0.62,1.336-1.495,3.32-2.628,5.953c-0.087,0.223-0.13,0.402-0.13,0.537c0,0.175,0.072,0.262,0.218,0.262
			c0.242,0,0.537-0.184,0.886-0.552c0.406-0.436,0.692-0.653,0.856-0.653c0.174,0,0.261,0.083,0.261,0.248
			c0,0.146-0.198,0.438-0.595,0.875c-0.475,0.524-0.997,0.996-1.568,1.414c-0.697,0.525-1.249,0.787-1.655,0.787
			c-0.784,0-1.176-0.428-1.176-1.284c0-0.408,0.102-0.89,0.305-1.445c-0.329,0.349-0.663,0.668-1.002,0.959
			c-0.871,0.755-1.52,1.258-1.946,1.51c-0.348,0.213-0.677,0.319-0.987,0.319c-0.281,0-0.538-0.092-0.77-0.276
			c-0.271-0.222-0.407-0.513-0.407-0.871c0-0.251,0.063-0.518,0.189-0.798c0.242-0.514,0.634-1.36,1.176-2.541
			c-1.142-0.465-1.689-1.254-1.641-2.367c0.048-1.122,0.431-2.114,1.147-2.976C80.665,98.678,81.574,98.209,82.63,98.179z
			 M80.394,100.183c-0.629,0.697-0.944,1.472-0.944,2.323c0,0.949,0.407,1.568,1.22,1.858c0.377-0.794,0.871-1.873,1.481-3.237
			c0.155-0.339,0.232-0.634,0.232-0.886c0-0.475-0.242-0.712-0.726-0.712c-0.174,0-0.354,0.034-0.537,0.102
			C80.887,99.719,80.645,99.903,80.394,100.183z"/>
		<path fill="#FFFFFF" d="M88.423,106.775c-0.116,0-0.174-0.038-0.174-0.116c0-0.077,0.048-0.193,0.145-0.349
			c0.503-0.619,1.127-1.418,1.873-2.396c0.716-1.104,1.2-1.626,1.452-1.568c0.174,0.039,0.351,0.15,0.53,0.334
			c0.179,0.185,0.288,0.363,0.327,0.538c0.087,0.377,0.087,0.716,0,1.016c-0.049,0.175-0.228,0.489-0.538,0.944
			c0.339-0.329,0.653-0.625,0.944-0.886c0.687-0.629,1.195-1.041,1.524-1.234c0.213-0.136,0.431-0.271,0.653-0.406
			s0.416-0.203,0.581-0.203c0.261,0,0.513,0.164,0.755,0.493c0.039,0.059,0.058,0.131,0.058,0.218c0,0.232-0.228,0.784-0.683,1.655
			c-0.639,1.22-0.958,1.936-0.958,2.148c0,0.098,0.039,0.146,0.116,0.146c0.251,0,0.639-0.228,1.162-0.683
			c0.009-0.01,0.116-0.135,0.319-0.377c0.135-0.165,0.247-0.247,0.334-0.247c0.135,0,0.203,0.102,0.203,0.305
			c0,0.175-0.119,0.393-0.356,0.653c-0.237,0.262-0.646,0.639-1.227,1.133c-0.658,0.562-1.106,0.893-1.343,0.994
			s-0.486,0.152-0.748,0.152c-0.562,0-0.876-0.218-0.944-0.653c-0.068-0.426,0.373-1.524,1.321-3.296
			c0.039-0.067,0.058-0.125,0.058-0.174c0-0.048-0.034-0.072-0.102-0.072c-0.165,0-0.341,0.094-0.53,0.283
			c-0.189,0.188-0.55,0.593-1.082,1.212c-0.61,0.707-1.031,1.225-1.263,1.554c-0.232,0.329-0.522,0.617-0.871,0.863
			c-0.348,0.247-0.653,0.371-0.915,0.371c-0.349,0-0.523-0.18-0.523-0.537c0-0.165,0.078-0.373,0.232-0.625
			c0.242-0.396,0.368-0.609,0.377-0.639c0.174-0.358,0.6-1.21,1.278-2.556C89.28,106.107,88.616,106.775,88.423,106.775z"/>
		<path fill="#FFFFFF" d="M97.235,106.31c-0.232,0.252-0.411,0.378-0.537,0.378c-0.087,0-0.167-0.044-0.24-0.131
			c-0.072-0.087-0.109-0.174-0.109-0.262c0-0.106,0.092-0.231,0.276-0.377c0.136-0.106,0.465-0.465,0.987-1.074
			c0.571-0.658,1.113-1.205,1.626-1.641c0.639-0.552,1.307-0.828,2.003-0.828c0.319,0,0.625,0.059,0.915,0.175
			c0.213,0.087,0.354,0.174,0.421,0.261c0.223,0.262,0.334,0.552,0.334,0.871s-0.111,0.625-0.334,0.915
			c-0.271,0.349-0.566,0.522-0.886,0.522c-0.465,0-0.697-0.218-0.697-0.653c0-0.146,0.039-0.285,0.116-0.421
			c0.106-0.193,0.28-0.31,0.522-0.349c-0.106-0.087-0.223-0.131-0.349-0.131c-0.455,0-0.987,0.591-1.597,1.771
			c-0.388,0.755-0.581,1.346-0.581,1.771c0,0.455,0.193,0.688,0.581,0.697c0.271,0.01,0.614-0.106,1.031-0.349
			c0.368-0.223,0.692-0.484,0.973-0.784c0.368-0.387,0.619-0.627,0.755-0.719s0.223-0.138,0.261-0.138
			c0.068,0,0.155,0.043,0.262,0.131c0.048,0.038,0.072,0.087,0.072,0.145c0,0.203-0.339,0.625-1.016,1.264
			c-1.229,1.161-2.367,1.742-3.412,1.742c-0.319,0-0.605-0.072-0.856-0.218c-0.319-0.184-0.571-0.47-0.755-0.856
			c-0.155-0.319-0.213-0.591-0.174-0.813c0.039-0.242,0.072-0.401,0.102-0.479C96.989,106.577,97.09,106.436,97.235,106.31z"/>
		<path fill="#FFFFFF" d="M109.098,105.802c0.154,0.058,0.232,0.136,0.232,0.232c0,0.106-0.078,0.247-0.232,0.421
			c-0.494,0.658-1.065,1.012-1.713,1.06c-0.214,0.02-0.393-0.009-0.538-0.087c-0.852,1.123-1.8,1.685-2.846,1.685
			c-0.494,0-0.886-0.16-1.176-0.479c-0.291-0.319-0.436-0.75-0.436-1.292c0-0.232,0.029-0.475,0.087-0.726
			c-0.039,0.038-0.087,0.058-0.145,0.058c-0.194,0-0.291-0.097-0.291-0.289c0-0.097,0.039-0.188,0.116-0.275
			c0.474-0.598,0.987-1.187,1.539-1.766c0.852-0.916,1.606-1.524,2.265-1.823c0.368-0.174,0.726-0.261,1.074-0.261
			c0.658,0,1.099,0.333,1.322,0.999c0.048,0.145,0.072,0.313,0.072,0.506c0,0.646-0.242,1.447-0.727,2.402
			c0.117,0.067,0.175,0.203,0.175,0.405c0.329-0.077,0.59-0.285,0.784-0.624C108.807,105.802,108.952,105.754,109.098,105.802z
			 M104.989,107.646c0.068,0.029,0.136,0.044,0.204,0.044c0.31,0,0.585-0.276,0.827-0.828c-0.125-0.223-0.188-0.45-0.188-0.683
			c0-0.135,0.024-0.261,0.073-0.377c0.125-0.319,0.44-0.436,0.943-0.349c0.377-0.726,0.566-1.268,0.566-1.626
			c0-0.271-0.131-0.406-0.392-0.406c-0.387,0-0.91,0.604-1.568,1.814c-0.503,0.91-0.755,1.544-0.755,1.902
			C104.698,107.39,104.795,107.559,104.989,107.646z"/>
		<path fill="#FFFFFF" d="M108.545,106.775c-0.115,0-0.174-0.038-0.174-0.116c0-0.077,0.049-0.193,0.146-0.349
			c0.503-0.619,1.128-1.418,1.873-2.396c0.716-1.104,1.2-1.626,1.452-1.568c0.174,0.039,0.35,0.15,0.529,0.334
			c0.18,0.185,0.288,0.363,0.327,0.538c0.087,0.377,0.087,0.716,0,1.016c-0.049,0.175-0.228,0.489-0.538,0.944
			c0.34-0.329,0.654-0.625,0.944-0.886c0.687-0.629,1.195-1.041,1.524-1.234c0.213-0.136,0.431-0.271,0.653-0.406
			s0.416-0.203,0.581-0.203c0.262,0,0.513,0.164,0.755,0.493c0.038,0.059,0.058,0.131,0.058,0.218c0,0.232-0.227,0.784-0.682,1.655
			c-0.639,1.22-0.959,1.936-0.959,2.148c0,0.098,0.039,0.146,0.117,0.146c0.251,0,0.639-0.228,1.161-0.683
			c0.009-0.01,0.116-0.135,0.319-0.377c0.135-0.165,0.246-0.247,0.334-0.247c0.135,0,0.203,0.102,0.203,0.305
			c0,0.175-0.119,0.393-0.355,0.653c-0.238,0.262-0.646,0.639-1.227,1.133c-0.658,0.562-1.106,0.893-1.344,0.994
			s-0.486,0.152-0.748,0.152c-0.561,0-0.875-0.218-0.943-0.653c-0.068-0.426,0.373-1.524,1.321-3.296
			c0.038-0.067,0.058-0.125,0.058-0.174c0-0.048-0.033-0.072-0.102-0.072c-0.164,0-0.341,0.094-0.529,0.283
			c-0.189,0.188-0.55,0.593-1.082,1.212c-0.609,0.707-1.031,1.225-1.264,1.554c-0.231,0.329-0.521,0.617-0.871,0.863
			c-0.348,0.247-0.652,0.371-0.914,0.371c-0.349,0-0.523-0.18-0.523-0.537c0-0.165,0.078-0.373,0.232-0.625
			c0.242-0.396,0.368-0.609,0.378-0.639c0.175-0.358,0.601-1.21,1.278-2.556C109.403,106.107,108.74,106.775,108.545,106.775z"/>
		<path fill="#FFFFFF" d="M121.83,103.857c-0.067,0.164-0.357,0.866-0.871,2.104c-0.184,0.455-0.411,0.979-0.682,1.568
			c0.029,0,0.217-0.067,0.566-0.203c0.406-0.164,0.914-0.644,1.523-1.438c0.126-0.164,0.311-0.193,0.553-0.087
			c0.105,0.067,0.092,0.237-0.044,0.508c-0.039,0.088-0.717,0.755-2.032,2.004c-0.369,0.349-0.799,0.586-1.293,0.712
			c-0.968,1.819-1.844,3.058-2.628,3.717c-0.358,0.3-0.842,0.45-1.452,0.45c-0.483,0-0.783-0.088-0.9-0.262
			c-0.038-0.059-0.058-0.116-0.058-0.175c0-0.125,0.087-0.3,0.261-0.522c0.34-0.406,0.519-0.629,0.538-0.668
			c0.388-0.474,1.079-1.442,2.076-2.903c-0.29-0.281-0.436-0.604-0.436-0.973c0-0.203,0.053-0.373,0.159-0.509
			c0.301-0.387,0.596-0.58,0.887-0.58c0.145,0,0.289,0.048,0.436,0.145c0.115-0.232,0.367-0.784,0.754-1.655
			c-0.271,0.126-0.595,0.286-0.973,0.479c-0.271,0.174-0.513,0.388-0.726,0.639c-0.175,0.203-0.286,0.314-0.334,0.334
			c-0.203,0.087-0.349,0.087-0.436,0c-0.077-0.058-0.116-0.136-0.116-0.232c0-0.087,0.029-0.179,0.087-0.275
			c0.213-0.396,0.968-0.968,2.265-1.714c0.203-0.115,0.441-0.246,0.712-0.392c0.601-1.461,1.263-2.676,1.989-3.645
			c0.938-1.248,1.922-1.873,2.947-1.873c0.91,0,1.365,0.373,1.365,1.118c0,0.688-0.368,1.462-1.104,2.323
			C124.391,102.415,123.379,103.083,121.83,103.857z M123.703,99.849c-0.252,0.339-0.697,1.249-1.336,2.729
			c0.311-0.145,0.518-0.256,0.625-0.334c0.213-0.154,0.484-0.44,0.812-0.856c0.358-0.455,0.571-0.808,0.639-1.06
			c0.049-0.175,0.073-0.324,0.073-0.45c0-0.252-0.087-0.378-0.262-0.378C124.062,99.501,123.877,99.617,123.703,99.849z"/>
		<path fill="#FFFFFF" d="M124.865,107.109c-0.049,0.532,0.145,0.804,0.58,0.813c0.271,0.01,0.615-0.106,1.031-0.349
			c0.377-0.232,0.707-0.494,0.987-0.784c0.368-0.396,0.617-0.637,0.748-0.719c0.13-0.082,0.21-0.123,0.239-0.123
			c0.078,0,0.174,0.038,0.291,0.116c0.048,0.038,0.072,0.087,0.072,0.145c0,0.213-0.34,0.635-1.017,1.264
			c-1.249,1.151-2.391,1.728-3.427,1.728c-0.319,0-0.6-0.068-0.842-0.203c-0.329-0.184-0.586-0.47-0.77-0.856
			c-0.154-0.319-0.213-0.591-0.174-0.813c0.038-0.242,0.067-0.401,0.087-0.479c0.058-0.154,0.165-0.295,0.319-0.421
			c-0.252,0.252-0.431,0.378-0.537,0.378c-0.088,0-0.167-0.044-0.24-0.131c-0.072-0.087-0.108-0.174-0.108-0.262
			c0-0.116,0.097-0.241,0.29-0.377c0.107-0.077,0.429-0.436,0.966-1.074c0.537-0.64,1.087-1.167,1.647-1.583
			c0.794-0.6,1.5-0.9,2.12-0.9c0.407,0,0.731,0.121,0.974,0.363c0.27,0.271,0.406,0.562,0.406,0.871
			c0,0.465-0.291,1.007-0.871,1.626C126.834,106.189,125.91,106.78,124.865,107.109z M125.853,105.642
			c0.155,0,0.483-0.266,0.987-0.798c0.3-0.319,0.449-0.653,0.449-1.002c0-0.155-0.058-0.232-0.174-0.232
			c-0.184,0-0.513,0.314-0.986,0.943c-0.33,0.397-0.494,0.697-0.494,0.9C125.635,105.58,125.707,105.642,125.853,105.642z"/>
		<path fill="#FFFFFF" d="M130.049,103.61c-0.224-0.184-0.334-0.411-0.334-0.683c0-0.223,0.072-0.479,0.217-0.77
			c0.242-0.465,0.596-0.696,1.061-0.696c0.174,0,0.321,0.048,0.442,0.145s0.182,0.247,0.182,0.45s-0.058,0.426-0.175,0.668
			c0.252,0.146,0.63,0.136,1.133-0.029c0.426-0.145,0.727-0.218,0.9-0.218c0.262,0,0.416,0.111,0.465,0.334
			c0.02,0.078,0.029,0.155,0.029,0.232c0,0.165-0.049,0.347-0.146,0.545s-0.194,0.39-0.29,0.573
			c-0.32,0.678-0.678,1.462-1.074,2.352c-0.117,0.32-0.117,0.514,0,0.581c0.164,0,0.309-0.082,0.436-0.247
			c0.231-0.212,0.521-0.493,0.871-0.842c0.096-0.136,0.227-0.203,0.392-0.203c0.097,0,0.164,0.029,0.203,0.087
			c0.077,0.078,0.116,0.146,0.116,0.203c0,0.068-0.088,0.209-0.262,0.421c-0.929,1.123-1.883,1.922-2.859,2.396
			c-0.271,0.136-0.533,0.203-0.785,0.203c-0.367,0-0.66-0.131-0.878-0.393c-0.218-0.261-0.312-0.532-0.283-0.812
			c0.067-0.61,0.562-1.491,1.481-2.643c0.357-0.445,0.537-0.794,0.537-1.046c0-0.241-0.209-0.362-0.625-0.362
			c-1.045,1.364-1.791,2.265-2.235,2.7c-0.165,0.165-0.334,0.188-0.509,0.072c-0.076-0.038-0.115-0.102-0.115-0.188
			s0.039-0.164,0.115-0.232c0.416-0.465,0.74-0.842,0.973-1.132C129.429,104.573,129.768,104.085,130.049,103.61z"/>
		<path fill="#FFFFFF" d="M136.248,107.109c-0.049,0.532,0.145,0.804,0.58,0.813c0.271,0.01,0.615-0.106,1.031-0.349
			c0.377-0.232,0.706-0.494,0.986-0.784c0.368-0.396,0.617-0.637,0.748-0.719s0.211-0.123,0.24-0.123
			c0.077,0,0.174,0.038,0.29,0.116c0.048,0.038,0.073,0.087,0.073,0.145c0,0.213-0.34,0.635-1.018,1.264
			c-1.248,1.151-2.391,1.728-3.426,1.728c-0.32,0-0.601-0.068-0.842-0.203c-0.33-0.184-0.586-0.47-0.77-0.856
			c-0.155-0.319-0.213-0.591-0.175-0.813c0.038-0.242,0.067-0.401,0.087-0.479c0.059-0.154,0.165-0.295,0.32-0.421
			c-0.252,0.252-0.432,0.378-0.537,0.378c-0.088,0-0.168-0.044-0.24-0.131s-0.109-0.174-0.109-0.262
			c0-0.116,0.098-0.241,0.291-0.377c0.106-0.077,0.428-0.436,0.965-1.074c0.537-0.64,1.087-1.167,1.648-1.583
			c0.793-0.6,1.5-0.9,2.119-0.9c0.407,0,0.731,0.121,0.974,0.363c0.271,0.271,0.406,0.562,0.406,0.871
			c0,0.465-0.29,1.007-0.871,1.626C138.217,106.189,137.293,106.78,136.248,107.109z M137.235,105.642
			c0.155,0,0.484-0.266,0.988-0.798c0.299-0.319,0.449-0.653,0.449-1.002c0-0.155-0.059-0.232-0.174-0.232
			c-0.184,0-0.514,0.314-0.987,0.943c-0.329,0.397-0.493,0.697-0.493,0.9C137.018,105.58,137.09,105.642,137.235,105.642z"/>
		<path fill="#FFFFFF" d="M139.529,106.775c-0.116,0-0.174-0.038-0.174-0.116c0-0.077,0.048-0.193,0.146-0.349
			c0.502-0.619,1.127-1.418,1.873-2.396c0.715-1.104,1.199-1.626,1.451-1.568c0.174,0.039,0.351,0.15,0.53,0.334
			c0.179,0.185,0.288,0.363,0.327,0.538c0.086,0.377,0.086,0.716,0,1.016c-0.049,0.175-0.229,0.489-0.538,0.944
			c0.339-0.329,0.653-0.625,0.944-0.886c0.687-0.629,1.195-1.041,1.523-1.234c0.213-0.136,0.432-0.271,0.654-0.406
			s0.416-0.203,0.58-0.203c0.262,0,0.514,0.164,0.756,0.493c0.038,0.059,0.058,0.131,0.058,0.218c0,0.232-0.228,0.784-0.683,1.655
			c-0.639,1.22-0.958,1.936-0.958,2.148c0,0.098,0.038,0.146,0.116,0.146c0.252,0,0.639-0.228,1.162-0.683
			c0.009-0.01,0.115-0.135,0.318-0.377c0.136-0.165,0.247-0.247,0.334-0.247c0.136,0,0.203,0.102,0.203,0.305
			c0,0.175-0.118,0.393-0.355,0.653c-0.237,0.262-0.646,0.639-1.227,1.133c-0.658,0.562-1.105,0.893-1.344,0.994
			c-0.236,0.102-0.486,0.152-0.747,0.152c-0.562,0-0.876-0.218-0.944-0.653c-0.067-0.426,0.373-1.524,1.322-3.296
			c0.038-0.067,0.058-0.125,0.058-0.174c0-0.048-0.034-0.072-0.102-0.072c-0.165,0-0.341,0.094-0.53,0.283
			c-0.188,0.188-0.549,0.593-1.082,1.212c-0.609,0.707-1.03,1.225-1.263,1.554c-0.231,0.329-0.522,0.617-0.871,0.863
			c-0.349,0.247-0.653,0.371-0.915,0.371c-0.348,0-0.522-0.18-0.522-0.537c0-0.165,0.077-0.373,0.232-0.625
			c0.242-0.396,0.368-0.609,0.378-0.639c0.174-0.358,0.6-1.21,1.277-2.556C140.385,106.107,139.723,106.775,139.529,106.775z"/>
		<path fill="#FFFFFF" d="M148.342,106.31c-0.232,0.252-0.412,0.378-0.537,0.378c-0.088,0-0.168-0.044-0.24-0.131
			s-0.109-0.174-0.109-0.262c0-0.106,0.093-0.231,0.276-0.377c0.136-0.106,0.465-0.465,0.987-1.074
			c0.571-0.658,1.113-1.205,1.627-1.641c0.639-0.552,1.307-0.828,2.003-0.828c0.319,0,0.624,0.059,0.915,0.175
			c0.213,0.087,0.354,0.174,0.421,0.261c0.223,0.262,0.334,0.552,0.334,0.871s-0.111,0.625-0.334,0.915
			c-0.271,0.349-0.566,0.522-0.886,0.522c-0.465,0-0.697-0.218-0.697-0.653c0-0.146,0.039-0.285,0.117-0.421
			c0.105-0.193,0.279-0.31,0.521-0.349c-0.105-0.087-0.223-0.131-0.348-0.131c-0.455,0-0.988,0.591-1.598,1.771
			c-0.387,0.755-0.58,1.346-0.58,1.771c0,0.455,0.193,0.688,0.58,0.697c0.271,0.01,0.615-0.106,1.031-0.349
			c0.367-0.223,0.691-0.484,0.973-0.784c0.367-0.387,0.619-0.627,0.755-0.719s0.223-0.138,0.261-0.138
			c0.068,0,0.155,0.043,0.262,0.131c0.049,0.038,0.072,0.087,0.072,0.145c0,0.203-0.338,0.625-1.016,1.264
			c-1.229,1.161-2.367,1.742-3.412,1.742c-0.319,0-0.605-0.072-0.856-0.218c-0.319-0.184-0.571-0.47-0.755-0.856
			c-0.155-0.319-0.213-0.591-0.174-0.813c0.038-0.242,0.072-0.401,0.102-0.479C148.095,106.577,148.197,106.436,148.342,106.31z"/>
		<path fill="#FFFFFF" d="M155.964,107.109c-0.049,0.532,0.146,0.804,0.581,0.813c0.271,0.01,0.614-0.106,1.03-0.349
			c0.378-0.232,0.706-0.494,0.987-0.784c0.367-0.396,0.617-0.637,0.748-0.719s0.211-0.123,0.239-0.123
			c0.077,0,0.175,0.038,0.29,0.116c0.049,0.038,0.073,0.087,0.073,0.145c0,0.213-0.339,0.635-1.017,1.264
			c-1.248,1.151-2.391,1.728-3.426,1.728c-0.32,0-0.602-0.068-0.843-0.203c-0.329-0.184-0.586-0.47-0.77-0.856
			c-0.155-0.319-0.213-0.591-0.175-0.813c0.039-0.242,0.068-0.401,0.088-0.479c0.059-0.154,0.164-0.295,0.319-0.421
			c-0.252,0.252-0.431,0.378-0.537,0.378c-0.087,0-0.167-0.044-0.239-0.131c-0.073-0.087-0.109-0.174-0.109-0.262
			c0-0.116,0.097-0.241,0.291-0.377c0.105-0.077,0.428-0.436,0.965-1.074c0.537-0.64,1.086-1.167,1.648-1.583
			c0.793-0.6,1.5-0.9,2.119-0.9c0.406,0,0.73,0.121,0.973,0.363c0.271,0.271,0.406,0.562,0.406,0.871
			c0,0.465-0.29,1.007-0.871,1.626C157.934,106.189,157.01,106.78,155.964,107.109z M156.951,105.642
			c0.154,0,0.484-0.266,0.987-0.798c0.3-0.319,0.45-0.653,0.45-1.002c0-0.155-0.059-0.232-0.174-0.232
			c-0.185,0-0.514,0.314-0.988,0.943c-0.329,0.397-0.493,0.697-0.493,0.9C156.734,105.58,156.806,105.642,156.951,105.642z"/>
		<path fill="#FFFFFF" d="M164.283,105.236c-0.368,0-0.552-0.184-0.552-0.552c0-0.164,0.058-0.339,0.175-0.522
			c0.164-0.262,0.377-0.393,0.639-0.393h2.643c0.377,0,0.565,0.204,0.565,0.61c0,0.155-0.072,0.329-0.218,0.522
			c-0.174,0.223-0.377,0.334-0.609,0.334H164.283z"/>
	</g>
	<g>
		<g>
			<polygon fill="#FFFFFF" points="179.691,37.986 177.691,37.986 177.691,2 33.121,2 33.121,37.986 31.121,37.986 31.121,0 
				179.691,0 			"/>
		</g>
		<g>
			<polygon fill="#FFFFFF" points="179.691,148.57 31.121,148.57 31.121,92.264 33.121,92.264 33.121,146.57 177.691,146.57 
				177.691,92.264 179.691,92.264 			"/>
		</g>
	</g>
	<path fill="#FFFFFF" d="M116.617,22.981c-1.051,2.599-2.273,2.454-2.273,2.454c-2.514,0-2.62-3.666-2.622-4.199v-0.001
		c0.002-0.534,0.108-4.2,2.622-4.2c0,0,1.224-0.146,2.273,2.454c0,0,0.396,0.294,0.822,0.141v-4.806c0-1.812-1.545-3.28-3.451-3.28
		h-4.952c-0.006-0.001-0.009-0.003-0.014-0.004c-1.907-0.549-1-1.642-1-1.642c3-1.096,2.831-2.37,2.831-2.37
		c0-2.621-4.229-2.731-4.846-2.734h-0.002c-0.614,0.002-4.843,0.113-4.843,2.734c0,0-0.167,1.274,2.83,2.37
		c0,0,0.907,1.092-0.998,1.642c-0.005,0-0.009,0.002-0.014,0.004h-4.955c-1.904,0-3.449,1.469-3.449,3.28v4.703
		c0.492,0.351,1.015-0.038,1.015-0.038c1.051-2.6,2.274-2.454,2.274-2.454c2.514,0,2.62,3.666,2.622,4.198v0.002
		c-0.002,0.533-0.108,4.2-2.622,4.2c0,0-1.225,0.146-2.274-2.454c0,0-0.521-0.39-1.015-0.038v5.551c0,1.812,1.545,3.28,3.449,3.28
		h6.348c0.243-0.414-0.095-0.824-0.095-0.824c-2.57-0.94-2.428-1.796-2.428-1.796c0-2.247,3.627-2.342,4.153-2.345h0.002
		c0.528,0.002,4.156,0.098,4.156,2.345c0,0,0.145,0.855-2.43,1.796c0,0-0.336,0.41-0.093,0.824h6.346
		c1.906,0,3.451-1.469,3.451-3.28V22.84C117.013,22.687,116.617,22.981,116.617,22.981z"/>
</g>
<g id="S_x26_C">
</g>
<g id="Small_Grind">
</g>
</svg>
