<?xml version="1.0" encoding="UTF-8" standalone="no"?>
<svg width="67px" height="80px" viewBox="0 0 67 80" version="1.1" xmlns="http://www.w3.org/2000/svg" xmlns:xlink="http://www.w3.org/1999/xlink" xmlns:sketch="http://www.bohemiancoding.com/sketch/ns">
    <!-- Generator: Sketch 3.0.1 (7597) - http://www.bohemiancoding.com/sketch -->
    <title>Fill 12</title>
    <description>Created with Sketch.</description>
    <defs></defs>
    <g id="Page-1" stroke="none" stroke-width="1" fill="none" fill-rule="evenodd" sketch:type="MSPage">
        <path d="M64.126,53.486 C61.073,61.037 57.519,60.615 57.519,60.615 C50.214,60.615 49.905,49.963 49.897,48.415 L49.897,48.412 C49.905,46.86 50.214,36.208 57.519,36.208 C57.519,36.208 61.073,35.784 64.126,43.337 C64.126,43.337 65.274,44.193 66.515,43.747 L66.515,29.784 C66.515,24.521 62.025,20.254 56.489,20.254 L42.097,20.254 C42.084,20.251 42.075,20.246 42.062,20.243 C36.519,18.647 39.157,15.473 39.157,15.473 C47.87,12.292 47.381,8.588 47.381,8.588 C47.381,0.974 35.094,0.653 33.306,0.645 L33.299,0.645 C31.514,0.653 19.226,0.974 19.226,8.588 C19.226,8.588 18.739,12.292 27.45,15.473 C27.45,15.473 30.087,18.647 24.55,20.243 C24.535,20.246 24.526,20.251 24.513,20.254 L10.118,20.254 C4.582,20.254 0.093,24.521 0.093,29.784 L0.093,43.448 C1.524,44.466 3.042,43.337 3.042,43.337 C6.094,35.787 9.647,36.21 9.647,36.21 C16.952,36.21 17.262,46.86 17.269,48.408 L17.269,48.414 C17.262,49.963 16.952,60.616 9.647,60.616 C9.647,60.616 6.094,61.04 3.042,53.486 C3.042,53.486 1.524,52.357 0.093,53.376 L0.093,69.503 C0.093,74.767 4.582,79.034 10.118,79.034 L28.558,79.034 C29.263,77.832 28.283,76.64 28.283,76.64 C20.813,73.91 21.231,71.422 21.231,71.422 C21.231,64.894 31.769,64.618 33.3,64.612 L33.304,64.612 C34.839,64.618 45.376,64.894 45.376,71.422 C45.376,71.422 45.796,73.91 38.323,76.64 C38.323,76.64 37.344,77.832 38.05,79.034 L56.489,79.034 C62.025,79.034 66.515,74.767 66.515,69.503 L66.515,53.076 C65.274,52.63 64.126,53.486 64.126,53.486" id="Fill-12" fill="#3384BA" sketch:type="MSShapeGroup"></path>
    </g>
</svg>