<?xml version="1.0" encoding="utf-8"?>
<!-- Generator: Adobe Illustrator 17.1.0, SVG Export Plug-In . SVG Version: 6.00 Build 0)  -->
<!DOCTYPE svg PUBLIC "-//W3C//DTD SVG 1.0//EN" "http://www.w3.org/TR/2001/REC-SVG-20010904/DTD/svg10.dtd">
<svg version="1.0" id="camping_doodle_set" xmlns="http://www.w3.org/2000/svg" xmlns:xlink="http://www.w3.org/1999/xlink" x="0px"
	 y="0px" viewBox="0 0 298 403.1" enable-background="new 0 0 298 403.1" xml:space="preserve">
<rect id="background" x="-993.5" y="-97.5" display="none" fill="#E6E6E6" width="1900" height="1900"/>
<g id="signs">
	<g>
		<g>
			<path fill="#FFFFFF" d="M151.5,4.5c5,7,1,22,1,31c-1,59-1,117,3,175c4,55,5,110,10,164c0,5,3,17,1,22c-3,6-10,9-13,0
				c-2,6-7,6-13,3c1-33,4-65,5-98c1-39-3-76-6-116c-4-56-2-122-18-173"/>
			<g>
				<path d="M150.2,5.3c3.1,4.9,2.4,11.3,1.9,16.9c-0.6,6.5-1.1,12.8-1.2,19.3c-0.3,16.5-0.4,33-0.5,49.5
					c-0.1,32.7,0.5,65.4,2.2,98.1c1.7,33,4,65.9,5.7,98.9c0.8,16.5,1.7,32.9,2.7,49.3c0.9,14.2,1.5,28.7,3.4,42.8
					c0.6,4.5,1.4,9,1.1,13.6c-0.2,2.6-1.8,4.8-3.9,6.2c-3.3,2.3-5.7-1-6.8-3.8c-0.6-1.4-2.3-1.4-2.9,0c-1,2.6-2.4,3.8-5.2,3.9
					c-1.1,0-4.9-0.7-4.8-2.4c0.1-3.9,0.3-7.9,0.5-11.8c0.4-8.5,0.9-17,1.4-25.4c1-16.3,2-32.6,2.7-48.9c1.3-31.7-0.7-63.3-3.2-94.9
					c-2.4-29.8-4-59.5-5.3-89.4c-1.3-28.5-2.9-57-7.9-85.1c-1.8-10.1-4.2-20.1-7.2-29.9c-0.6-1.8-3.5-1.1-2.9,0.8
					c17,55,14,114.2,17.8,171c2.2,31.6,5.5,63.1,6.2,94.8c0.7,32.4-2.3,64.8-4,97.2c-0.4,7.9-0.8,15.7-1,23.6c0,0.5,0.3,0.9,0.7,1.1
					c6.2,2.9,12.3,3.9,15.2-4.1c-1,0-1.9,0-2.9,0c2.7,7,9.9,9.5,14.6,2.4c2.4-3.6,2.2-7.4,1.8-11.5c-0.5-5.6-1.3-11.2-1.8-16.9
					c-2.9-32.8-4.4-65.6-6.1-98.5c-1.6-32.9-4.2-65.8-5.6-98.7c-1.4-32.7-1.7-65.5-1.4-98.2c0.1-14.4-0.3-28.9,0.7-43.3
					c0.6-8.9,3.8-20-1.4-28.1C151.8,2.1,149.2,3.6,150.2,5.3L150.2,5.3z"/>
			</g>
		</g>
		<g>
			<path fill="#FFFFFF" d="M141.7,3.5c3.1-6-17.7,3-20,9c5.4,2,16.2,5,20.8-1c3.9,1,6.2-2,10-3c-3.1-5-7.7-7-12.3-7"/>
			<g>
				<path d="M143,4.3c2.2-5-3.8-4.3-6.8-3.4c-5.4,1.7-13.3,5.4-15.9,10.8c-0.4,0.9-0.1,1.9,0.9,2.2c5.4,1.9,11.2,3.3,16.9,2
					c2.1-0.5,3.8-2.6,5.7-2.8c3.4-0.3,5.9-2.2,9-3.3c0.9-0.3,1.5-1.4,0.9-2.2c-3.3-4.9-7.7-7.5-13.6-7.7c-1.9-0.1-1.9,2.9,0,3
					c4.8,0.2,8.4,2.3,11,6.3c0.3-0.7,0.6-1.5,0.9-2.2c-2.9,1-6,3.5-9.2,3c-1.6-0.2-2.6,1.6-3.8,2.4c-4.7,3-12.3,0.4-17-1.4
					c0.3,0.7,0.6,1.5,0.9,2.2c1.5-3.3,5.4-5.3,8.4-6.9c1.5-0.8,8.7-2.8,9-3.6C139.7,4.5,142.2,6,143,4.3L143,4.3z"/>
			</g>
		</g>
		<g>
			<path d="M145.2,11.7c-0.2-0.3-0.2-0.4-0.2-0.2c0.4,1.3,0.5,2.5,0.4,3.8c-0.1,2.7,0,5.2,0.4,7.9c0.4,2.9,0.4,6.6,1.6,9.3
				c0.2,0.4,0.8,0.1,0.6-0.4c-1.4-3.3-1.4-8.3-1.8-11.8c-0.3-3-0.2-6-0.5-9c0-0.2-0.2-0.4-0.4-0.4c-0.1,0-0.1,0-0.2,0
				C144.7,11,144.7,11.7,145.2,11.7L145.2,11.7z"/>
		</g>
		<g>
			<path d="M147.5,9.4c1.2,2.5,1.3,5.8,0.9,8.5c-0.1,0.5,0.7,0.5,0.8,0c0.3-2.8,0.2-6.3-1.1-8.9C147.9,8.5,147.3,8.9,147.5,9.4
				L147.5,9.4z"/>
		</g>
		<g>
			<path d="M141.8,12.6c-0.3,1.5-0.2,2.9,0.2,4.4c0.1,0.5,0.8,0.3,0.7-0.2c-0.3-1.3-0.5-2.6-0.2-4C142.6,12.3,141.9,12.1,141.8,12.6
				L141.8,12.6z"/>
		</g>
		<g>
			<path d="M132.6,18.1c-2.8,0.5-7.1,0.8-9.3-1.4c-0.3-0.3-0.9,0.2-0.5,0.5c2.4,2.5,7,2.2,10,1.6C133.2,18.8,133,18.1,132.6,18.1
				L132.6,18.1z"/>
		</g>
		<g>
			<path d="M131.7,21.3c-2.6,0.8-5.6-0.1-8-1.1c-0.4-0.2-0.8,0.5-0.4,0.6c2.6,1.1,5.8,2.1,8.6,1.2C132.4,21.9,132.2,21.2,131.7,21.3
				L131.7,21.3z"/>
		</g>
		<g>
			<path d="M131.1,24.3c-1.8,0.4-3.6,0-5.2-0.8c-0.4-0.2-0.8,0.4-0.4,0.6c1.8,0.9,3.8,1.3,5.8,0.9C131.7,24.9,131.5,24.2,131.1,24.3
				L131.1,24.3z"/>
		</g>
		<g>
			<path d="M130.5,28.1c-1.7,0.1-3.5-0.1-5.1-0.8c-0.4-0.2-0.6,0.5-0.2,0.7c1.7,0.7,3.5,1,5.3,0.8C131,28.8,131,28.1,130.5,28.1
				L130.5,28.1z"/>
		</g>
		<g>
			<path d="M130.5,32.1c-1.1,0-2.3-0.2-3.4-0.3c-0.5-0.1-0.7,0.7-0.2,0.7c1.2,0.2,2.4,0.3,3.6,0.3C131,32.9,131,32.1,130.5,32.1
				L130.5,32.1z"/>
		</g>
		<g>
			<path d="M132,37.6c-1.3,0-2.5-0.2-3.7-0.7c-0.4-0.2-0.6,0.5-0.2,0.7c1.3,0.5,2.6,0.7,3.9,0.7C132.5,38.4,132.5,37.6,132,37.6
				L132,37.6z"/>
		</g>
		<g>
			<path d="M132,42.3c-0.7,0.3-1.5,0.3-2.2,0.1c-0.5-0.1-0.7,0.6-0.2,0.7c0.9,0.2,1.9,0.2,2.8-0.2C132.8,42.8,132.4,42.1,132,42.3
				L132,42.3z"/>
		</g>
		<g>
			<path d="M134.1,47.8c-1.1-0.2-2.1-0.2-3.2-0.5c-0.5-0.1-0.7,0.6-0.2,0.7c1,0.3,2.1,0.3,3.2,0.5C134.4,48.6,134.6,47.9,134.1,47.8
				L134.1,47.8z"/>
		</g>
		<g>
			<path d="M133.9,54c-1.2,0.4-2.4,0.1-3.6-0.2c-0.5-0.1-0.7,0.6-0.2,0.7c1.4,0.3,2.7,0.6,4,0.2C134.6,54.5,134.4,53.8,133.9,54
				L133.9,54z"/>
		</g>
		<g>
			<path d="M135.1,59.5c-1.3,0.3-2.6,0.1-3.9,0c-0.5-0.1-0.5,0.7,0,0.8c1.4,0.2,2.7,0.3,4.1,0C135.7,60.1,135.5,59.4,135.1,59.5
				L135.1,59.5z"/>
		</g>
		<g>
			<path d="M135.3,64.1c-1.1,0.1-2.2,0.1-3.3,0c-0.5-0.1-0.5,0.7,0,0.8c1.1,0.1,2.2,0.1,3.3,0C135.8,64.8,135.8,64.1,135.3,64.1
				L135.3,64.1z"/>
		</g>
		<g>
			<path d="M135.5,68.5c0,0-1,0-2,0v1c1,0,2,0,2,0C136.5,69.5,136.5,68.5,135.5,68.5C135.5,68.5,136.5,68.5,135.5,68.5z"/>
		</g>
		<g>
			<path d="M136.3,74.1c-1-0.1-2-0.3-3-0.5c-0.5-0.1-0.7,0.6-0.2,0.7c1,0.2,2,0.4,3,0.5C136.5,74.9,136.7,74.2,136.3,74.1
				L136.3,74.1z"/>
		</g>
		<g>
			<path d="M135.6,79.9c-0.1,0.4-1.6-0.2-1.9-0.3c-0.5-0.2-0.7,0.6-0.2,0.7c0.8,0.3,2.4,0.9,2.8-0.3
				C136.5,79.6,135.8,79.4,135.6,79.9L135.6,79.9z"/>
		</g>
		<g>
			<path d="M137.8,85.7c-0.9-0.5-2.3-0.4-3.3-0.4s-1,0.8,0,0.8s2.1-0.2,2.9,0.3C137.9,86.6,138.2,85.9,137.8,85.7L137.8,85.7z"/>
		</g>
		<g>
			<path d="M137.2,92c-0.7,0.1-1.4,0.2-2.1,0c-0.5-0.1-0.7,0.6-0.2,0.7c0.8,0.2,1.7,0.2,2.5,0C137.9,92.6,137.7,91.9,137.2,92
				L137.2,92z"/>
		</g>
		<g>
			<path d="M137.6,98c-0.9,0.3-1.8,0.3-2.8,0.2c-0.5-0.1-0.7,0.6-0.2,0.7c1.1,0.2,2.1,0.2,3.2-0.2C138.2,98.6,138,97.8,137.6,98
				L137.6,98z"/>
		</g>
		<g>
			<path d="M137.9,103c-0.7,0.2-1.5,0.3-2.2,0.3c-0.5,0-0.5,0.8,0,0.8c0.8,0,1.6-0.2,2.4-0.3C138.6,103.6,138.4,102.9,137.9,103
				L137.9,103z"/>
		</g>
		<g>
			<path d="M138.4,111.5c-1-0.2-1.9-0.2-2.9-0.2c-0.5,0-0.5,0.8,0,0.8c0.9,0,1.8,0,2.7,0.2C138.7,112.3,138.9,111.5,138.4,111.5
				L138.4,111.5z"/>
		</g>
		<g>
			<path d="M139,117.5c-0.8,0.3-1.5,0.3-2.5,0.3c-1,0-1,0.8,0,0.8c1,0,1.8,0,2.7-0.3C139.7,118,139.4,117.3,139,117.5L139,117.5z"/>
		</g>
		<g>
			<path d="M139.1,123.3c-0.7,0.3-1.5,0.4-2.2,0.3c-0.5-0.1-0.7,0.6-0.2,0.7c1,0.2,1.9,0,2.8-0.4C140,123.8,139.6,123.1,139.1,123.3
				L139.1,123.3z"/>
		</g>
		<g>
			<path d="M139.1,131.1c-0.4,0.3-1.1,0.1-1.5,0.1c-0.5-0.1-0.7,0.6-0.2,0.7c0.7,0.1,1.6,0.3,2.2-0.3
				C140,131.3,139.4,130.8,139.1,131.1L139.1,131.1z"/>
		</g>
		<g>
			<path d="M140.2,137.5c-0.5,0.3-0.7,0.3-1.7,0.3c0,0,0,0.8,0,0.8c1,0,1.5,0,2.1-0.4C141,137.9,140.6,137.3,140.2,137.5
				L140.2,137.5z"/>
		</g>
		<g>
			<path d="M141.3,144.2c-0.6,0.4-1.2,0.4-1.9,0.3c-0.5-0.1-0.7,0.6-0.2,0.7c0.9,0.2,1.7,0.1,2.5-0.4
				C142.1,144.6,141.7,143.9,141.3,144.2L141.3,144.2z"/>
		</g>
		<g>
			<path d="M140.4,148.9c-0.5,0.5-1.2,0.5-1.8,0.2c-0.5-0.2-0.7,0.6-0.2,0.7c0.9,0.3,1.8,0.2,2.5-0.4
				C141.3,149.1,140.8,148.6,140.4,148.9L140.4,148.9z"/>
		</g>
		<g>
			<path d="M141.3,154.3c-0.6,0.3-1.2,0.3-1.8,0c-0.4-0.2-0.8,0.4-0.4,0.6c0.8,0.4,1.7,0.4,2.5,0
				C142.1,154.8,141.7,154.1,141.3,154.3L141.3,154.3z"/>
		</g>
		<g>
			<path d="M142.6,158.7c-1.2,0.5-2.5,0.4-3.6-0.2c-0.4-0.2-0.8,0.4-0.4,0.6c1.4,0.8,2.9,0.8,4.4,0.2
				C143.5,159.1,143.1,158.5,142.6,158.7L142.6,158.7z"/>
		</g>
		<g>
			<path d="M143,164.2c-1.1,0.5-2.4,0.4-3.6,0.3c-0.5-0.1-0.5,0.7,0,0.8c1.4,0.2,2.8,0.2,4-0.4C143.8,164.6,143.4,164,143,164.2
				L143,164.2z"/>
		</g>
		<g>
			<path d="M142.3,169.8c-0.9-0.3-2,0-2.9,0c-0.5,0-0.5,0.8,0,0.8c0.9,0,1.9-0.2,2.7,0C142.5,170.7,142.7,169.9,142.3,169.8
				L142.3,169.8z"/>
		</g>
		<g>
			<path d="M141.5,176.5c0,0-1,0-2,0s-1,1,0,1s2,0,2,0C142.5,177.5,142.5,176.5,141.5,176.5C141.5,176.5,142.5,176.5,141.5,176.5z"
				/>
		</g>
		<g>
			<path d="M139.7,183.1c1.1,0.9,2.5,0.6,3.7,0.3c0.5-0.1,0.3-0.9-0.2-0.7c-0.9,0.3-2.1,0.7-3-0.1
				C139.9,182.2,139.4,182.8,139.7,183.1L139.7,183.1z"/>
		</g>
		<g>
			<path d="M139.4,188.3c1.2,0.9,2.6,1.3,4.1,1.3c0.5,0,0.5-0.7,0-0.8c-1.3,0-2.6-0.3-3.6-1.1C139.6,187.4,139,188,139.4,188.3
				L139.4,188.3z"/>
		</g>
		<g>
			<path d="M140.6,194.8c1.1,0.6,2.3,0.2,3.5-0.1c0.5-0.1,0.3-0.9-0.2-0.7c-0.9,0.3-2,0.7-2.9,0.2
				C140.6,194,140.2,194.6,140.6,194.8L140.6,194.8z"/>
		</g>
		<g>
			<path d="M140.5,200c1.2,0.8,2.6,0.9,4,0.7c0.5-0.1,0.5-0.8,0-0.8c-1.3,0.2-2.5,0.1-3.6-0.6C140.5,199.1,140.1,199.7,140.5,200
				L140.5,200z"/>
		</g>
		<g>
			<path d="M140.7,206.6c0.9,0.9,2.1,0.9,3.3,1.1c0.5,0.1,0.7-0.7,0.2-0.7c-1-0.1-2.2-0.2-3-0.9
				C140.9,205.7,140.4,206.3,140.7,206.6L140.7,206.6z"/>
		</g>
		<g>
			<path d="M141.6,213.2c1.3,0.7,2.6,0.6,4,0.6c0.5,0,0.5-0.8,0-0.8c-1.2,0-2.5,0.1-3.6-0.4C141.6,212.3,141.2,212.9,141.6,213.2
				L141.6,213.2z"/>
		</g>
		<g>
			<path d="M142,220.4c0.7,1.2,1.9,1.9,3.3,1.3c0.4-0.2,0.3-0.9-0.2-0.7c-1.1,0.4-1.9-0.1-2.4-1C142.4,219.6,141.8,219.9,142,220.4
				L142,220.4z"/>
		</g>
		<g>
			<path d="M142.8,228.7c1,0.6,2.2,0.4,3.3,0c0.5-0.1,0.3-0.9-0.2-0.7c-0.9,0.3-1.9,0.5-2.7,0C142.8,227.8,142.4,228.4,142.8,228.7
				L142.8,228.7z"/>
		</g>
		<g>
			<path d="M143.3,234.7c1.3,0.8,2.7,1,4.1,0.7c0.5-0.1,0.3-0.8-0.2-0.7c-1.3,0.3-2.5,0.1-3.5-0.6
				C143.3,233.7,142.9,234.4,143.3,234.7L143.3,234.7z"/>
		</g>
		<g>
			<path d="M143.8,242c1.4,1,3.1,1.4,4.9,1.2c0.5,0,0.5-0.8,0-0.8c-1.6,0.1-3.1-0.2-4.5-1.1C143.8,241.1,143.4,241.7,143.8,242
				L143.8,242z"/>
		</g>
		<g>
			<path d="M144.3,248c0.9,0.6,1.8,0.5,2.7,0c0.4-0.2,0-0.9-0.4-0.6c-0.7,0.4-1.3,0.4-2,0C144.3,247.1,143.9,247.7,144.3,248
				L144.3,248z"/>
		</g>
		<g>
			<path d="M145.1,255.8c1,0.9,2.4,0.8,3.7,0.4c0.5-0.1,0.3-0.9-0.2-0.7c-1,0.3-2.1,0.5-3-0.2C145.2,254.9,144.7,255.4,145.1,255.8
				L145.1,255.8z"/>
		</g>
		<g>
			<path d="M145.3,260.5c1.1,0.7,2.2,0.5,3.5,0.4c0.5-0.1,0.3-0.8-0.2-0.7c-1,0.1-2,0.3-2.9-0.3
				C145.3,259.6,144.9,260.2,145.3,260.5L145.3,260.5z"/>
		</g>
		<g>
			<path d="M145.6,266.1c1,0.9,2.4,0.4,3.5-0.1c0.4-0.2,0.1-0.9-0.4-0.6c-0.7,0.3-1.9,0.8-2.5,0.2
				C145.7,265.3,145.2,265.8,145.6,266.1L145.6,266.1z"/>
		</g>
		<g>
			<path d="M145.2,271.8c1,1.2,2.5,1,3.9,0.9c0.5,0,0.5-0.8,0-0.8c-1.2,0-2.6,0.3-3.4-0.7C145.5,270.9,144.9,271.4,145.2,271.8
				L145.2,271.8z"/>
		</g>
		<g>
			<path d="M144.9,277.5c1.6,0.5,3.2,0.8,4.9,0.7c0.5,0,0.5-0.8,0-0.8c-1.6,0.1-3.2-0.2-4.7-0.7
				C144.6,276.7,144.4,277.4,144.9,277.5L144.9,277.5z"/>
		</g>
		<g>
			<path d="M144.5,283.3c1.6,0.8,3.3,0.7,5,0c0.4-0.2,0.2-0.9-0.2-0.7c-1.5,0.6-2.9,0.8-4.4,0C144.4,282.5,144,283.1,144.5,283.3
				L144.5,283.3z"/>
		</g>
		<g>
			<path d="M149.9,289.5c-1.6,0.3-3.2,0.3-4.8-0.2c-0.5-0.1-0.7,0.6-0.2,0.7c1.7,0.5,3.5,0.5,5.2,0.2
				C150.6,290.1,150.4,289.4,149.9,289.5L149.9,289.5z"/>
		</g>
		<g>
			<path d="M150.3,294.3c-1.7,0.8-3.4,0.9-5.2,0.5c-0.5-0.1-0.7,0.6-0.2,0.7c2,0.5,3.9,0.3,5.8-0.5
				C151.1,294.8,150.7,294.1,150.3,294.3L150.3,294.3z"/>
		</g>
		<g>
			<path d="M150.9,302.3c-1.7,0.7-3.6,1-5.5,0.7c-0.5-0.1-0.7,0.6-0.2,0.7c2,0.3,4,0,5.9-0.7C151.5,302.9,151.4,302.1,150.9,302.3
				L150.9,302.3z"/>
		</g>
		<g>
			<path d="M153.5,396.7c0.8-7,0.8-14,2-20.9c0.1-0.5-0.6-0.7-0.7-0.2c-1.2,7-1.2,14.1-2,21.1C152.7,397.1,153.5,397.1,153.5,396.7
				L153.5,396.7z"/>
		</g>
		<g>
			<path d="M159.3,400c-2.7-4.9-1-11-0.8-16.3c0-0.5-0.7-0.5-0.8,0c-0.3,5.5-1.9,11.6,0.9,16.7C158.9,400.8,159.6,400.4,159.3,400
				L159.3,400z"/>
		</g>
		<g>
			<path d="M145.8,400.6c2.5-2.1,2.6-6.7,2.8-9.8c0-0.5-0.7-0.5-0.8,0c-0.2,2.8-0.2,7.2-2.6,9.2
				C144.9,400.4,145.4,400.9,145.8,400.6L145.8,400.6z"/>
		</g>
		<g>
			<path d="M144.6,396.3c-1.1-0.2-2.2-0.3-3.3-0.7c-0.5-0.1-0.7,0.6-0.2,0.7c1.1,0.3,2.2,0.5,3.3,0.7
				C144.9,397.1,145.1,396.4,144.6,396.3L144.6,396.3z"/>
		</g>
		<g>
			<path d="M145.3,392c-1.2,0.5-2.4,0.1-3.2-0.9c-0.3-0.4-0.9,0-0.6,0.4c1,1.3,2.6,1.8,4.2,1.1C146.1,392.5,145.7,391.8,145.3,392
				L145.3,392z"/>
		</g>
		<g>
			<path d="M146.8,388.5c-1.9,0.1-3.9,0-5.2-1.4c-0.3-0.3-0.9,0.2-0.5,0.5c1.5,1.6,3.7,1.8,5.8,1.6
				C147.3,389.2,147.3,388.4,146.8,388.5L146.8,388.5z"/>
		</g>
		<g>
			<path d="M145,397.5c1.6,0,3.2,0.1,4.8-0.5c0.4-0.2,0.2-0.9-0.2-0.7c-1.5,0.6-3,0.5-4.6,0.5C144.5,396.8,144.5,397.5,145,397.5
				L145,397.5z"/>
		</g>
		<g>
			<path d="M151.1,385.3c-3.5,0.7-7-0.2-9.9-2.1c-0.4-0.3-0.8,0.4-0.4,0.6c3.1,2.1,6.8,3,10.5,2.2
				C151.7,385.9,151.5,385.2,151.1,385.3L151.1,385.3z"/>
		</g>
		<g>
			<path d="M150.1,381.1c-2.7,0.6-6.1,0.7-8.3-1.2c-0.4-0.3-0.9,0.2-0.5,0.5c2.4,2.2,6.1,2.1,9,1.4
				C150.7,381.8,150.5,381,150.1,381.1L150.1,381.1z"/>
		</g>
		<g>
			<path d="M150.2,377.1c-2.5,0.5-5.5,0.8-7.6-0.9c-0.4-0.3-0.9,0.2-0.5,0.5c2.3,1.9,5.6,1.6,8.4,1.1
				C150.9,377.8,150.7,377,150.2,377.1L150.2,377.1z"/>
		</g>
		<g>
			<path d="M148.9,374.1c-2.2,0.6-4.3,0.2-6.2-1c-0.4-0.3-0.8,0.4-0.4,0.6c2.1,1.3,4.4,1.6,6.8,1C149.6,374.7,149.4,374,148.9,374.1
				L148.9,374.1z"/>
		</g>
		<g>
			<path d="M149.4,370.1c-2.5,0.8-5.7,0.9-7.8-0.9c-0.4-0.3-0.9,0.2-0.5,0.5c2.3,1.9,5.8,2,8.5,1.1
				C150.1,370.7,149.9,370,149.4,370.1L149.4,370.1z"/>
		</g>
		<g>
			<path d="M148.7,367.1c-2,0.3-4.1,0.1-5.9-0.8c-0.4-0.2-0.8,0.4-0.4,0.6c2,1,4.2,1.2,6.5,0.9C149.4,367.8,149.2,367.1,148.7,367.1
				L148.7,367.1z"/>
		</g>
		<g>
			<path d="M149.1,362.3c-2,0.8-4.6,0.7-6.5-0.3c-0.4-0.2-0.8,0.4-0.4,0.6c2.1,1.1,4.9,1.3,7.1,0.4
				C149.7,362.8,149.5,362.1,149.1,362.3L149.1,362.3z"/>
		</g>
		<g>
			<path d="M149.9,357c-2.1,0.5-4.3,0.6-6.2-0.6c-0.4-0.3-0.8,0.4-0.4,0.6c2,1.4,4.5,1.2,6.8,0.7C150.6,357.6,150.4,356.9,149.9,357
				L149.9,357z"/>
		</g>
		<g>
			<path d="M149.3,352c-2.1,0-4.4,0.6-6.3-0.6c-0.4-0.3-0.8,0.4-0.4,0.6c2,1.3,4.4,0.8,6.7,0.7C149.8,352.7,149.8,352,149.3,352
				L149.3,352z"/>
		</g>
		<g>
			<path d="M149.2,346.1c-1.9,0.8-4.1,1-6,0c-0.4-0.2-0.8,0.4-0.4,0.6c2.1,1,4.5,0.9,6.6,0C149.9,346.7,149.7,346,149.2,346.1
				L149.2,346.1z"/>
		</g>
		<g>
			<path d="M149.4,341c-1.7,0.6-3.6,0.6-5.2-0.3c-0.4-0.2-0.8,0.4-0.4,0.6c1.8,1,3.9,1.1,5.8,0.4C150,341.5,149.9,340.8,149.4,341
				L149.4,341z"/>
		</g>
		<g>
			<path d="M149,336.7c-1.7,0.8-3.6,0.4-5.4,0c-0.5-0.1-0.7,0.6-0.2,0.7c2,0.5,4,0.8,6,0C149.8,337.1,149.4,336.5,149,336.7
				L149,336.7z"/>
		</g>
		<g>
			<path d="M149.8,332.3c-1.3,0.6-2.7,0.7-4,0.5c-0.5-0.1-0.7,0.6-0.2,0.7c1.6,0.3,3.1,0.2,4.6-0.5
				C150.6,332.8,150.2,332.1,149.8,332.3L149.8,332.3z"/>
		</g>
		<g>
			<path d="M149.7,327c-1.2,0.4-2.9,0.4-4-0.3c-0.4-0.3-0.8,0.4-0.4,0.6c1.3,0.8,3.2,0.9,4.6,0.4C150.4,327.5,150.2,326.8,149.7,327
				L149.7,327z"/>
		</g>
		<g>
			<path d="M150.4,322.5c-1.6-0.3-3.4,0.1-4.9-0.6c-0.4-0.2-0.8,0.5-0.4,0.6c1.7,0.7,3.3,0.4,5.1,0.7
				C150.7,323.3,150.9,322.6,150.4,322.5L150.4,322.5z"/>
		</g>
		<g>
			<path d="M150.1,317.2c-1.2,0.7-2.5,0.7-3.8,0c-0.4-0.2-0.8,0.4-0.4,0.6c1.5,0.9,3.1,0.9,4.5,0
				C150.9,317.6,150.6,316.9,150.1,317.2L150.1,317.2z"/>
		</g>
		<g>
			<path d="M150.9,313c-1.5-0.3-3-0.2-4.4-0.2c-0.5,0-0.5,0.8,0,0.8c1.4,0,2.8-0.2,4.2,0.2C151.2,313.8,151.4,313.1,150.9,313
				L150.9,313z"/>
		</g>
		<g>
			<path d="M151.3,308c-1.7,0.2-3.4,0.5-5.1,0.2c-0.5-0.1-0.7,0.6-0.2,0.7c1.8,0.3,3.5,0,5.3-0.2C151.8,308.7,151.8,307.9,151.3,308
				L151.3,308z"/>
		</g>
	</g>
	<g>
		<g>
			<path fill="#FFFFFF" d="M5.6,102.2c0,0-1.4-1.4-2.1-0.7c1.4-0.7,34.4,18.6,37.9,20c17.2,9.6,34.4,9.6,54.4,9.6
				c57.2,0.7,117.1,3.4,173.6-4.8C257.8,116,242.6,107,233,96.7c11.7-6.2,17.9-19.3,27.6-26.9c-58.6,0.7-117.1-0.7-176.4-0.7
				c-15.2,0-28.9,0-42,7.6c-13.1,7.6-30.3,13.8-40.6,23.4c0,1.4,0.7,0.7,2.1,2.1"/>
			<g>
				<path d="M6.7,101.1c-1.2-1.1-2-1.3-3.5-1.1c0.3,1,0.5,1.9,0.8,2.9c0,0,3.5,1.8,4.5,2.3c3,1.5,5.9,3.1,8.9,4.8
					c6.4,3.5,12.8,7.1,19.2,10.7c7.3,4,14.7,7.3,22.8,9.3c11.9,2.9,24.3,2.7,36.5,2.7c58.1,0,116.2,3.5,174-4.9
					c1.1-0.2,1.5-1.8,0.7-2.5C258.7,115,244.9,107,234,95.6c-0.1,0.8-0.2,1.6-0.3,2.4c11.7-6.5,17.7-18.8,27.9-27.1
					c1-0.9,0.2-2.6-1.1-2.6c-48.8,0.6-97.6-0.3-146.5-0.6c-11.7-0.1-23.4-0.1-35.1-0.1c-10,0-20.1,0.7-29.6,4
					c-8.6,3-16.8,8.4-25,12.5c-8.5,4.2-16.9,8.6-24,14.9c-0.4,0.4-0.5,1-0.4,1.5c0.5,1.7,1.3,1.9,2.8,3c1.6,1.1,3.1-1.5,1.5-2.6
					c-1.3-0.8-1.6-1.1-0.7-0.7c1-0.9,2-1.7,3.1-2.5c1.6-1.2,3.3-2.3,5.1-3.4c4.1-2.6,8.4-4.7,12.7-6.9C33.4,83,42.3,77.3,51.7,74
					c9.8-3.4,20.5-3.4,30.7-3.4c11.9,0,23.8,0,35.6,0.1c47.5,0.3,95,1.1,142.5,0.6c-0.4-0.9-0.7-1.7-1.1-2.6
					c-9.9,8.1-15.8,20.2-27.3,26.6c-0.9,0.5-1,1.7-0.3,2.4c10.9,11.4,24.7,19.3,36.5,29.6c0.2-0.8,0.4-1.7,0.7-2.5
					c-58.1,8.4-116.6,4.8-175,4.8c-13,0-26-0.2-38.5-3.8c-7.4-2.1-14.2-6-20.9-9.7c-6.7-3.7-13.4-7.5-20.1-11.1
					c-2.7-1.5-8-5.6-11.4-5c-1.9,0.3-1.1,3.2,0.8,2.9c0.2,0.1,0.4,0.2,0.6,0.3C6,104.5,8.2,102.4,6.7,101.1L6.7,101.1z"/>
			</g>
		</g>
		<g>
			<path d="M67,128.8c-2.8-1.6-5.8-2.8-8.9-3.8c-2.1-0.7-3.9-1.5-5.7-2.6c-2.4-1.5,3.1-2.1,4.1-2.2c0.5,0,0.5-0.8,0-0.8
				c-2.2,0.1-4.2,0.8-6.2,1.7c-0.3,0.1-0.2,0.5,0,0.6c2.1,1.5,4.2,2.8,6.7,3.6c3.4,1,6.6,2.3,9.7,4.1
				C67.1,129.7,67.4,129.1,67,128.8L67,128.8z"/>
		</g>
		<g>
			<path d="M49.5,117.1c-3.5,0.4-6.8,1.3-10.3,1.3c-0.2,0-0.3,0.1-0.4,0.3c-0.6,1.4,0.4,1.7,1.5,2.4c0.4,0.2,0.8-0.4,0.4-0.6
				c-0.8-0.4-1.6-1.3-0.1-1.4c0.8,0,1.6-0.2,2.3-0.3c2.2-0.3,4.4-0.8,6.6-1C50,117.8,50,117.1,49.5,117.1L49.5,117.1z"/>
		</g>
		<g>
			<path d="M33.1,116.2c3.1,0.9,7.1-0.2,10.2-1c0.5-0.1,0.3-0.8-0.2-0.7c-3,0.7-6.8,1.8-9.8,1C32.8,115.3,32.6,116.1,33.1,116.2
				L33.1,116.2z"/>
		</g>
		<g>
			<path d="M31.9,110.8c-2.9-0.5-5.9-0.3-8.7-1.3c-0.5-0.2-0.6,0.5-0.2,0.7c2.8,1.1,5.8,0.8,8.7,1.3
				C32.2,111.6,32.4,110.9,31.9,110.8L31.9,110.8z"/>
		</g>
		<g>
			<path d="M28.8,92.8c-6.1,0-12.3-0.1-18.2-1.7c-0.5-0.1-0.7,0.6-0.2,0.7c6,1.6,12.3,1.7,18.4,1.7C29.3,93.5,29.3,92.8,28.8,92.8
				L28.8,92.8z"/>
		</g>
		<g>
			<path d="M24.4,84.2c1.3,0.5,2.8,0.4,4.2,0.4c1.9,0,3.7-0.1,5.6-0.1c0.5,0,0.5-0.8,0-0.8c-1.7,0-3.4,0.1-5.1,0.1
				c-1.4,0-3.1,0.1-4.5-0.4C24.2,83.3,24,84,24.4,84.2L24.4,84.2z"/>
		</g>
		<g>
			<path d="M241.7,107.8c-4.2,1.3-9.3,0.1-13.6-0.3c-0.5,0-0.5,0.7,0,0.8c4.3,0.4,9.5,1.7,13.8,0.3
				C242.4,108.4,242.2,107.7,241.7,107.8L241.7,107.8z"/>
		</g>
		<g>
			<path d="M239.4,116.8c-2-0.3-3.9-0.3-5.9-0.3c-1,0-1,0.8,0,0.8c2,0,3.9,0,5.8,0.3C239.8,117.6,239.9,116.9,239.4,116.8
				L239.4,116.8z"/>
		</g>
		<g>
			<path d="M256.9,118.8c-2.8-0.8-5.6-1.3-8.4-1.7c-0.5-0.1-0.5,0.7,0,0.8c2.8,0.4,5.5,0.9,8.2,1.7
				C257.2,119.7,257.4,118.9,256.9,118.8L256.9,118.8z"/>
		</g>
		<g>
			<path d="M234.3,93.9c-8.1,1.3-16.9,0.3-25.1-0.1c-0.5,0-0.5,0.7,0,0.8c8.6,0.4,17.2,0.9,25.8-0.3c0.2,0,0.3-0.2,0.3-0.4
				c0-0.1,0-0.3,0-0.4c0-0.2-0.2-0.4-0.4-0.4c-0.3,0-0.5,0-0.8,0.1C233.6,93.2,233.8,93.9,234.3,93.9L234.3,93.9z"/>
		</g>
		<g>
			<path d="M242.4,84.8c-3.1,0.5-6.4,0.9-9.5,0c-0.5-0.1-0.7,0.6-0.2,0.7c3.2,0.9,6.6,0.5,9.9,0C243.1,85.5,242.9,84.7,242.4,84.8
				L242.4,84.8z"/>
		</g>
		<g>
			<path d="M248.2,79.8c-2.3,0-4.7,0.3-7,0c-0.5-0.1-0.5,0.7,0,0.8c2.3,0.3,4.7,0,7,0C248.6,80.5,248.6,79.8,248.2,79.8L248.2,79.8z
				"/>
		</g>
		<g>
			<path d="M165.8,79.1c-8.1,0.3-16.2,0.3-24.3,0.3c-0.5,0-0.5,0.8,0,0.8c8.1,0,16.2,0,24.3-0.3C166.3,79.9,166.3,79.1,165.8,79.1
				L165.8,79.1z"/>
		</g>
		<g>
			<path d="M162.2,89.5c0.5,0,0.5-0.8,0-0.8S161.7,89.5,162.2,89.5L162.2,89.5z"/>
		</g>
		<g>
			<path d="M190.5,87.5c-4.6,0.3-9.1,0.3-13.7-0.3c-0.5-0.1-0.5,0.7,0,0.8c4.6,0.6,9.1,0.6,13.7,0.3C191,88.2,191,87.4,190.5,87.5
				L190.5,87.5z"/>
		</g>
		<g>
			<path d="M109.2,94.1c-6,0.6-12,0.6-18,0c-0.5,0-0.5,0.7,0,0.8c6,0.6,12,0.6,18,0C109.6,94.8,109.6,94.1,109.2,94.1L109.2,94.1z"
				/>
		</g>
		<g>
			<path d="M105,89.1c-4.2,0.3-8.5,0.3-12.5,0.3c-1,0-1,0.8,0,0.8c4,0,8.4,0,12.6-0.3C105.6,89.8,105.5,89.1,105,89.1L105,89.1z"/>
		</g>
		<g>
			<path d="M65.8,89.1c-6.7,0.7-13.2,2.5-20,2.7c-0.5,0-0.5,0.8,0,0.8c6.8-0.1,13.3-1.9,20-2.7C66.3,89.8,66.3,89.1,65.8,89.1
				L65.8,89.1z"/>
		</g>
		<g>
			<path d="M140.3,114.5c-6.5,0.6-12.8,0.7-19.8,0.7v0.8c7,0,13.2,0,19.7-0.7C140.7,115.2,140.8,114.4,140.3,114.5L140.3,114.5z"/>
		</g>
		<g>
			<path d="M96.5,116.5c0,0-4,0-6,0c-1,0-1,0,0,0C92.5,116.5,94.5,116.5,96.5,116.5L96.5,116.5L96.5,116.5z"/>
		</g>
		<g>
			<path d="M110.1,115.5c-1.2-0.3-2.6-0.3-3.6-0.3c-1,0-1,0.8,0,0.8c1,0,2.3,0,3.5,0.3C110.5,116.3,110.6,115.6,110.1,115.5
				L110.1,115.5z"/>
		</g>
	</g>
	<g>
		<g>
			<path fill="#FFFFFF" d="M26.5,220.5c0,0,54.2,0,81.6,0c38.4-1,77.6-0.7,116.8-0.7c7.4,0,15.5,0.8,22.2-0.7
				c17-8.1,33.3-19.2,49.5-28.1c-18.5-12.6-42.1-32.5-65-35.5c-20.7-3-44.3,0.7-65.8,0c-27.3-1.5-54.7-4.4-82-4.4
				c-22.2,0-44.3,0.7-66.5,1.5c3.7,12.6,28.1,19.2,28.8,34c0,8.9-21.4,22.9-27.3,31c2.2,2.2,5.8,2.9,9.5,2.9"/>
			<g>
				<path d="M26.5,222.1c0,0,95-0.5,142.5-0.7c11.9-0.1,23.9-0.1,35.8-0.1c11.8,0,23.8,0.6,35.6,0.1c9.8-0.4,18.4-6.7,26.7-11.5
					c10-5.8,19.9-12,30.1-17.6c1-0.6,0.9-2,0-2.6C280,178,263.5,164.2,243.6,157c-21.6-7.8-46.5-3.2-68.9-2.8
					c-25.8,0.4-51.6-3.4-77.4-4.3c-26.7-0.9-53.5,0.4-80.2,1.3c-0.9,0-1.8,0.9-1.4,1.9c4.6,13.7,22.8,16.8,28,30.1
					c2.9,7.5-5.9,14.2-10.8,18.7c-5.3,4.9-11.3,9.3-15.7,15.1c-0.4,0.5-0.2,1.4,0.2,1.8c3.1,2.6,6.7,3.3,10.7,3.4
					c1.9,0.1,1.9-2.9,0-3c-3.2-0.1-6-0.4-8.5-2.5c0.1,0.6,0.2,1.2,0.2,1.8c5-6.5,12.1-11.5,18-17.1c4.1-3.9,10.1-9.4,9.5-15.7
					c-1.4-16.3-24-19.2-28.8-33.4c-0.5,0.6-1,1.3-1.4,1.9c25.4-0.8,50.9-1.9,76.3-1.4c25.3,0.5,50.5,3.9,75.9,4.4
					c23.2,0.4,47.7-4.7,70.5,1.8c20.9,6,38.8,21.4,55.8,33.4c0-0.9,0-1.7,0-2.6c-9,5-17.8,10.4-26.7,15.7c-4.8,2.8-9.5,5.6-14.4,8.2
					c-2.2,1.2-4.3,2.3-6.5,3.3c-3.2,1.6-7.3,1.4-10.8,1.5c-23.3,0.4-46.7-0.2-70-0.1c-46.8,0.2-93.5,0.7-140.5,0.7
					C24.5,219.1,24.5,222.1,26.5,222.1C26.5,222.1,24.5,222.1,26.5,222.1z"/>
			</g>
		</g>
		<g>
			<path d="M24.8,211.5c11.9,0.3,23.8-0.6,35.7-0.7c0.5,0,0.5-0.8,0-0.8c-11.9,0-23.8,1-35.7,0.7C24.3,210.8,24.3,211.5,24.8,211.5
				L24.8,211.5z"/>
		</g>
		<g>
			<path d="M44.8,206.1c-3.2,0-6.4,0.3-9.6-0.3c-0.5-0.1-0.7,0.6-0.2,0.7c3.2,0.6,6.5,0.4,9.8,0.3C45.3,206.9,45.3,206.1,44.8,206.1
				L44.8,206.1z"/>
		</g>
		<g>
			<path d="M43.5,202.1c0,0-4.7,0-7.2-0.3c-0.5-0.1-0.6,0.7-0.1,0.8c2.4,0.3,5.2,0.3,7.2,0.3C44.5,202.9,44.5,202.1,43.5,202.1
				C43.5,202.1,44.5,202.1,43.5,202.1z"/>
		</g>
		<g>
			<path d="M39.2,175.2c4.4,0.3,8.7,0.3,13.1-0.3c0.5-0.1,0.3-0.8-0.2-0.7c-4.3,0.6-8.6,0.6-12.9,0.3
				C38.7,174.4,38.7,175.2,39.2,175.2L39.2,175.2z"/>
		</g>
		<g>
			<path d="M31.9,168.2c4-0.7,8.2,0,12.2,0c0.5,0,0.5-0.7,0-0.8c-4.1,0-8.3-0.7-12.4,0C31.3,167.6,31.5,168.3,31.9,168.2L31.9,168.2
				z"/>
		</g>
		<g>
			<path d="M260.1,213.1c1.2-1.1,0.9-0.7,1.4-2.2c0.1-0.2-0.1-0.4-0.3-0.5c-7.4-2.2-15.1-0.2-22.7-1.3c-0.5-0.1-0.7,0.7-0.2,0.7
				c3.1,0.5,6.2,0.5,9.3,0.4c2.1-0.1,4.2-0.1,6.2-0.1c0.8,0,8.1,0,5.6,2.4C259.2,212.9,259.7,213.4,260.1,213.1L260.1,213.1z"/>
		</g>
		<g>
			<path d="M270.2,207.4c2.2-3.3-8.4-2.2-9.7-2.2c-0.5,0-0.5,0.8,0,0.8c1.6,0,3.1-0.2,4.7-0.2c0.7,0,5.2-0.1,4.3,1.3
				C269.2,207.4,269.9,207.8,270.2,207.4L270.2,207.4z"/>
		</g>
		<g>
			<path d="M280.3,200.5c-1.9-0.3-3.8-0.3-5.8-0.3c-0.5,0-0.5,0.8,0,0.8c1.9,0,3.7,0,5.6,0.3C280.5,201.3,280.7,200.5,280.3,200.5
				L280.3,200.5z"/>
		</g>
		<g>
			<path d="M280.6,180.6c-4.4,3.5-13.1,2.8-18.5,2.9c-4.8,0.1-9.8,0.1-14.6-0.3c-0.5,0-0.5,0.7,0,0.8c6,0.5,12,0.4,18,0.2
				c4.7-0.2,11.7,0.1,15.6-3C281.5,180.8,280.9,180.3,280.6,180.6L280.6,180.6z"/>
		</g>
		<g>
			<path d="M267.2,174.6c0.8-2.1-5.5-1.1-6.4-1.1c-0.5,0-0.5,0.8,0,0.8c0.6,0,5.8-0.3,5.6,0.2C266.3,174.9,267,175,267.2,174.6
				L267.2,174.6z"/>
		</g>
		<g>
			<path d="M198.5,153.8c-2.4,0.3-2.7,3.3-2.9,5.3c-0.5,4.2,0.2,8.5-0.4,12.7c-0.1,0.5,0.7,0.7,0.7,0.2c0.4-2.9-1.4-16.9,2.6-17.4
				C199,154.5,199,153.7,198.5,153.8L198.5,153.8z"/>
		</g>
		<g>
			<path d="M187.5,154.4c-0.3,2.1-0.6,4.1-0.3,6.2c0.1,0.5,0.8,0.3,0.7-0.2c-0.3-2,0-3.9,0.3-5.8
				C188.3,154.1,187.6,153.9,187.5,154.4L187.5,154.4z"/>
		</g>
		<g>
			<path d="M213.6,155.5c-5.5-1.2-6.1,5-6.8,9c0.2,0,0.5,0,0.7,0c-1-3,0.7-9.5-4.8-8.6c-0.5,0.1-0.3,0.8,0.2,0.7
				c4.7-0.7,3.1,5.2,3.9,8.1c0.1,0.3,0.7,0.4,0.7,0c0.6-3.4,0.9-9.4,5.9-8.4C213.9,156.3,214.1,155.6,213.6,155.5L213.6,155.5z"/>
		</g>
		<g>
			<path d="M186.7,217.5c-2.3,0.6-3.6-1.5-4.2-3.4c-0.1-0.5-0.9-0.3-0.7,0.2c0.7,2.3,2.4,4.6,5.1,3.9
				C187.4,218.1,187.2,217.4,186.7,217.5L186.7,217.5z"/>
		</g>
		<g>
			<path d="M177.4,219.5c-0.7-0.4-1.1-0.9-1.1-1.7c0-0.5-0.8-0.5-0.8,0c0,1,0.6,1.8,1.5,2.3C177.4,220.4,177.8,219.7,177.4,219.5
				L177.4,219.5z"/>
		</g>
		<g>
			<path d="M165.5,180.5c-4.4,0.3-8.9,0-13.3,0c-0.5,0-0.5,0.7,0,0.8c4.4,0,8.9,0.3,13.3,0C166,181.2,166,180.4,165.5,180.5
				L165.5,180.5z"/>
		</g>
		<g>
			<path d="M144.2,180.8c-3.4,0-6.8-0.2-10.1,0.7c-0.5,0.1-0.3,0.9,0.2,0.7c3.3-0.9,6.6-0.7,9.9-0.7
				C144.6,181.5,144.6,180.8,144.2,180.8L144.2,180.8z"/>
		</g>
		<g>
			<path d="M125.8,183.1c-11.4,0.8-22.6-1.5-34-1.7c-0.5,0-0.5,0.7,0,0.8c11.4,0.1,22.6,2.5,34,1.7
				C126.3,183.8,126.3,183.1,125.8,183.1L125.8,183.1z"/>
		</g>
		<g>
			<path d="M145.8,158.5c-6-0.6-12-0.4-18-0.7c-0.5,0-0.5,0.7,0,0.8c6,0.3,12,0.1,18,0.7C146.3,159.3,146.3,158.5,145.8,158.5
				L145.8,158.5z"/>
		</g>
		<g>
			<path d="M113.5,157.5c-2.7-0.3-5.3-0.3-8-0.3c-0.5,0-0.5,0.8,0,0.8c2.7,0,5.3,0,8,0.3C114,158.3,114,157.5,113.5,157.5
				L113.5,157.5z"/>
		</g>
		<g>
			<path d="M114.5,163.5c0,0-6.5-0.1-9.7-1c-0.5-0.1-0.7,0.6-0.3,0.7c3.3,0.9,7,1,10,1C115.5,164.2,115.5,163.5,114.5,163.5
				C114.5,163.5,115.5,163.5,114.5,163.5z"/>
		</g>
		<g>
			<path d="M222.1,191.5c-3.2,0.7-6.4,1-9.6,1.3c-0.5,0-0.5,0.8,0,0.8c3.3-0.3,6.5-0.7,9.8-1.3C222.7,192.1,222.5,191.4,222.1,191.5
				L222.1,191.5z"/>
		</g>
		<g>
			<path d="M220.8,202.5c-17.2-0.9-34.5,0.3-51.7,1.3c-0.5,0-0.5,0.8,0,0.8c17.2-1,34.4-2.3,51.7-1.3
				C221.3,203.2,221.3,202.5,220.8,202.5L220.8,202.5z"/>
		</g>
		<g>
			<path d="M156.7,203.8c-3.4,0.9-6.8,1-10.2,1c-0.5,0-0.5,0.8,0,0.8c3.5,0,7-0.1,10.4-1C157.4,204.4,157.2,203.7,156.7,203.8
				L156.7,203.8z"/>
		</g>
		<g>
			<path d="M134.1,203.8c-0.8,0.3-1.7,0.3-2.6,0.3c-0.5,0-0.5,0.8,0,0.8c0.9,0,1.9-0.1,2.8-0.3C134.7,204.4,134.5,203.7,134.1,203.8
				L134.1,203.8z"/>
		</g>
		<g>
			<path d="M125.5,204.1c-4.7,0-9.3,0.6-14,0.7c-0.5,0-0.5,0.8,0,0.8c4.7,0,9.3-0.6,14-0.7C126,204.9,126,204.1,125.5,204.1
				L125.5,204.1z"/>
		</g>
		<g>
			<path d="M86.8,194.8c-7.5-0.6-15.1-0.7-22.7-1.3c-0.5,0-0.5,0.7,0,0.8c7.5,0.6,15.1,0.7,22.7,1.3
				C87.3,195.6,87.3,194.8,86.8,194.8L86.8,194.8z"/>
		</g>
		<g>
			<path d="M67.8,160.1c-0.8,0-1.5,0.3-2.3,0.3c-0.5,0-0.5,0.8,0,0.8c0.8,0,1.5-0.3,2.3-0.3C68.3,160.9,68.3,160.1,67.8,160.1
				L67.8,160.1z"/>
		</g>
	</g>
</g>
</svg>
