<?xml version="1.0" encoding="UTF-8" standalone="no"?>
<svg width="92px" height="86px" viewBox="0 0 92 86" version="1.1" xmlns="http://www.w3.org/2000/svg" xmlns:xlink="http://www.w3.org/1999/xlink" xmlns:sketch="http://www.bohemiancoding.com/sketch/ns">
    <!-- Generator: Sketch 3.0.1 (7597) - http://www.bohemiancoding.com/sketch -->
    <title>Fill 12</title>
    <description>Created with Sketch.</description>
    <defs></defs>
    <g id="Page-1" stroke="none" stroke-width="1" fill="none" fill-rule="evenodd" sketch:type="MSPage">
        <path d="M32.578,1.056 C27.389,1.056 21.292,4.463 18.698,8.812 L2.976,35.173 C0.385,39.521 0.385,46.332 2.978,50.678 L18.698,77.038 C21.292,81.387 27.389,84.795 32.578,84.795 L59.869,84.795 C65.057,84.795 71.154,81.387 73.748,77.038 L89.47,50.678 C92.061,46.331 92.061,39.52 89.47,35.173 L73.748,8.812 C71.154,4.463 65.057,1.056 59.869,1.056 L32.578,1.056 L32.578,1.056 Z M59.869,85.075 L32.578,85.075 C27.3,85.075 21.097,81.607 18.457,77.181 L2.737,50.822 C0.097,46.394 0.095,39.458 2.735,35.03 L18.457,8.669 C21.097,4.242 27.3,0.775 32.578,0.775 L59.869,0.775 C65.147,0.775 71.349,4.243 73.989,8.669 L89.711,35.03 C92.35,39.458 92.35,46.394 89.711,50.822 L73.989,77.181 C71.349,81.607 65.147,85.075 59.869,85.075 L59.869,85.075 Z" id="Fill-12" fill="#556270" sketch:type="MSShapeGroup"></path>
        <path d="M32.297,84.003 C27.647,84.003 21.94,80.813 19.616,76.915 L3.572,50.012 C1.248,46.114 1.248,39.737 3.571,35.838 L19.616,8.936 C21.94,5.038 27.647,1.848 32.297,1.848 L60.149,1.848 C64.798,1.848 70.506,5.038 72.83,8.936 L88.875,35.838 C91.199,39.737 91.199,46.114 88.875,50.012 L72.83,76.915 C70.506,80.813 64.798,84.003 60.149,84.003 L32.297,84.003" id="Fill-13" fill="#556270" sketch:type="MSShapeGroup"></path>
        <path d="M42.142874,31.2856836 C34.3281325,31.2856836 28,35.8861355 28,41.5714102 C28,44.8258783 30.0892882,47.7388282 33.3437564,49.6272234 C32.6607198,51.2946361 31.7767902,52.0781191 30.9933071,52.9620488 C30.7723247,53.2232098 30.5111637,53.4642815 30.5915209,53.8459784 C30.6517889,54.1874966 30.9330392,54.4285684 31.2343789,54.4285684 L31.2946468,54.4285684 C31.8973261,54.3482111 32.4799161,54.2477646 33.0223274,54.1071394 C35.0513477,53.5848174 36.9397428,52.720977 38.6071555,51.5357078 C39.7321568,51.7366009 40.9174261,51.8571367 42.142874,51.8571367 C49.9576155,51.8571367 56.285748,47.2566848 56.285748,41.5714102 C56.285748,35.8861355 49.9576155,31.2856836 42.142874,31.2856836 Z M42.142874,33.8571153 C48.4107386,33.8571153 53.7143164,37.3928338 53.7143164,41.5714102 C53.7143164,45.7499866 48.4107386,49.2857051 42.142874,49.2857051 C41.0982299,49.2857051 40.0736751,49.1852585 39.0692096,49.0044548 L38.0044762,48.8035617 L37.1205466,49.4263303 C36.7187604,49.7075806 36.2968849,49.9687416 35.8750094,50.2098133 L36.5781352,48.5223113 L34.6294722,47.39731 C32.0580406,45.9107011 30.5714316,43.7812342 30.5714316,41.5714102 C30.5714316,37.3928338 35.8750094,33.8571153 42.142874,33.8571153 Z M58.6562865,54.7700866 C61.9107547,52.8816915 64.0000429,49.9888309 64.0000429,46.7142735 C64.0000429,43.3593587 61.7902189,40.3861409 58.3951255,38.5178351 C58.6964652,39.5022113 58.8571796,40.5267661 58.8571796,41.5714102 C58.8571796,45.1673966 57.0089632,48.4821327 53.6540484,50.9330285 C50.5402054,53.1830312 46.4620756,54.4285684 42.142874,54.4285684 C41.560284,54.4285684 40.9576047,54.3883897 40.3750148,54.3482111 C42.8861785,55.9955345 46.2210039,57 49.8571689,57 C51.0826168,57 52.2678861,56.8794641 53.3928874,56.678571 C55.0603001,57.8638403 56.9486952,58.7276806 58.9777155,59.2500027 C59.5201269,59.3906278 60.1027168,59.4910744 60.7053961,59.5714316 C61.0268251,59.6116103 61.3281647,59.3504492 61.408522,58.9888417 C61.4888792,58.6071448 61.2277182,58.3660731 61.0067358,58.104912 C60.2232527,57.2209824 59.3393231,56.4374993 58.6562865,54.7700866 Z" id="" fill="#FFFFFF" sketch:type="MSShapeGroup"></path>
    </g>
</svg>