<?xml version="1.0" encoding="UTF-8" standalone="no"?>
<svg width="92px" height="86px" viewBox="0 0 92 86" version="1.1" xmlns="http://www.w3.org/2000/svg" xmlns:xlink="http://www.w3.org/1999/xlink" xmlns:sketch="http://www.bohemiancoding.com/sketch/ns">
    <!-- Generator: Sketch 3.0.1 (7597) - http://www.bohemiancoding.com/sketch -->
    <title>Fill 12</title>
    <description>Created with Sketch.</description>
    <defs></defs>
    <g id="Page-1" stroke="none" stroke-width="1" fill="none" fill-rule="evenodd" sketch:type="MSPage">
        <path d="M32.578,1.056 C27.389,1.056 21.292,4.463 18.698,8.812 L2.976,35.173 C0.385,39.521 0.385,46.332 2.978,50.678 L18.698,77.038 C21.292,81.387 27.389,84.795 32.578,84.795 L59.869,84.795 C65.057,84.795 71.154,81.387 73.748,77.038 L89.47,50.678 C92.061,46.331 92.061,39.52 89.47,35.173 L73.748,8.812 C71.154,4.463 65.057,1.056 59.869,1.056 L32.578,1.056 L32.578,1.056 Z M59.869,85.075 L32.578,85.075 C27.3,85.075 21.097,81.607 18.457,77.181 L2.737,50.822 C0.097,46.394 0.095,39.458 2.735,35.03 L18.457,8.669 C21.097,4.242 27.3,0.775 32.578,0.775 L59.869,0.775 C65.147,0.775 71.349,4.243 73.989,8.669 L89.711,35.03 C92.35,39.458 92.35,46.394 89.711,50.822 L73.989,77.181 C71.349,81.607 65.147,85.075 59.869,85.075 L59.869,85.075 Z" id="Fill-12" fill="#556270" sketch:type="MSShapeGroup"></path>
        <path d="M32.297,84.003 C27.647,84.003 21.94,80.813 19.616,76.915 L3.572,50.012 C1.248,46.114 1.248,39.737 3.571,35.838 L19.616,8.936 C21.94,5.038 27.647,1.848 32.297,1.848 L60.149,1.848 C64.798,1.848 70.506,5.038 72.83,8.936 L88.875,35.838 C91.199,39.737 91.199,46.114 88.875,50.012 L72.83,76.915 C70.506,80.813 64.798,84.003 60.149,84.003 L32.297,84.003" id="Fill-13" fill="#556270" sketch:type="MSShapeGroup"></path>
        <path d="M39.9129606,44.1428418 C38.8683165,42.6361436 38.2857265,40.8281057 38.2857265,38.9999785 C38.2857265,38.5580137 38.3259052,38.1160489 38.3861731,37.6740841 C37.5223328,37.9754237 36.6384032,38.1361382 35.7142949,38.1361382 C33.0022381,38.1361382 30.9129499,36.4285469 30.4910744,36.4285469 C27.9397321,36.4285469 28,41.8928391 28,43.5200732 C28,45.7499866 29.8883951,46.7142735 31.8973261,46.7142735 L34.5892936,46.7142735 C35.9352773,45.1071287 37.8236724,44.2031097 39.9129606,44.1428418 Z M61.4286113,56.9397321 C61.4286113,52.3995481 60.3638779,45.4285576 54.4777101,45.4285576 C53.7946736,45.4285576 51.3035992,48.2209717 47.2857373,48.2209717 C43.2678753,48.2209717 40.7768009,45.4285576 40.0937644,45.4285576 C34.2075967,45.4285576 33.1428633,52.3995481 33.1428633,56.9397321 C33.1428633,60.1942002 35.2924194,62.1428633 38.506709,62.1428633 L56.0647656,62.1428633 C59.2790551,62.1428633 61.4286113,60.1942002 61.4286113,56.9397321 Z M40.8571582,31.2856836 C40.8571582,28.453091 38.5468876,26.1428204 35.7142949,26.1428204 C32.8817022,26.1428204 30.5714316,28.453091 30.5714316,31.2856836 C30.5714316,34.1182763 32.8817022,36.4285469 35.7142949,36.4285469 C38.5468876,36.4285469 40.8571582,34.1182763 40.8571582,31.2856836 Z M55.0000322,38.9999785 C55.0000322,34.7410449 51.5446709,31.2856836 47.2857373,31.2856836 C43.0268036,31.2856836 39.5714424,34.7410449 39.5714424,38.9999785 C39.5714424,43.2589122 43.0268036,46.7142735 47.2857373,46.7142735 C51.5446709,46.7142735 55.0000322,43.2589122 55.0000322,38.9999785 Z M66.5714746,43.5200732 C66.5714746,41.8928391 66.6317425,36.4285469 64.0804002,36.4285469 C63.6585247,36.4285469 61.5692364,38.1361382 58.8571796,38.1361382 C57.9330714,38.1361382 57.0491418,37.9754237 56.1853015,37.6740841 C56.2455694,38.1160489 56.285748,38.5580137 56.285748,38.9999785 C56.285748,40.8281057 55.703158,42.6361436 54.6585139,44.1428418 C56.7478021,44.2031097 58.6361972,45.1071287 59.982181,46.7142735 L62.6741485,46.7142735 C64.6830794,46.7142735 66.5714746,45.7499866 66.5714746,43.5200732 Z M64.0000429,31.2856836 C64.0000429,28.453091 61.6897723,26.1428204 58.8571796,26.1428204 C56.024587,26.1428204 53.7143164,28.453091 53.7143164,31.2856836 C53.7143164,34.1182763 56.024587,36.4285469 58.8571796,36.4285469 C61.6897723,36.4285469 64.0000429,34.1182763 64.0000429,31.2856836 Z" id="" fill="#FFFFFF" sketch:type="MSShapeGroup"></path>
    </g>
</svg>