<?xml version="1.0" encoding="UTF-8" standalone="no"?>
<svg width="92px" height="86px" viewBox="0 0 92 86" version="1.1" xmlns="http://www.w3.org/2000/svg" xmlns:xlink="http://www.w3.org/1999/xlink" xmlns:sketch="http://www.bohemiancoding.com/sketch/ns">
    <!-- Generator: Sketch 3.0.1 (7597) - http://www.bohemiancoding.com/sketch -->
    <title>Fill 12</title>
    <description>Created with Sketch.</description>
    <defs></defs>
    <g id="Page-1" stroke="none" stroke-width="1" fill="none" fill-rule="evenodd" sketch:type="MSPage">
        <path d="M32.578,1.056 C27.389,1.056 21.292,4.463 18.698,8.812 L2.976,35.173 C0.385,39.521 0.385,46.332 2.978,50.678 L18.698,77.038 C21.292,81.387 27.389,84.795 32.578,84.795 L59.869,84.795 C65.057,84.795 71.154,81.387 73.748,77.038 L89.47,50.678 C92.061,46.331 92.061,39.52 89.47,35.173 L73.748,8.812 C71.154,4.463 65.057,1.056 59.869,1.056 L32.578,1.056 L32.578,1.056 Z M59.869,85.075 L32.578,85.075 C27.3,85.075 21.097,81.607 18.457,77.181 L2.737,50.822 C0.097,46.394 0.095,39.458 2.735,35.03 L18.457,8.669 C21.097,4.242 27.3,0.775 32.578,0.775 L59.869,0.775 C65.147,0.775 71.349,4.243 73.989,8.669 L89.711,35.03 C92.35,39.458 92.35,46.394 89.711,50.822 L73.989,77.181 C71.349,81.607 65.147,85.075 59.869,85.075 L59.869,85.075 Z" id="Fill-12" fill="#556270" sketch:type="MSShapeGroup"></path>
        <path d="M32.297,84.003 C27.647,84.003 21.94,80.813 19.616,76.915 L3.572,50.012 C1.248,46.114 1.248,39.737 3.571,35.838 L19.616,8.936 C21.94,5.038 27.647,1.848 32.297,1.848 L60.149,1.848 C64.798,1.848 70.506,5.038 72.83,8.936 L88.875,35.838 C91.199,39.737 91.199,46.114 88.875,50.012 L72.83,76.915 C70.506,80.813 64.798,84.003 60.149,84.003 L32.297,84.003" id="Fill-13" fill="#556270" sketch:type="MSShapeGroup"></path>
        <path d="M61.4286113,38.9999785 L61.4286113,31.2856836 C61.4286113,29.879432 60.2634313,28.714252 58.8571796,28.714252 C55.0000322,31.9285415 48.5714531,36.4285469 40.8571582,36.4285469 L31.2142895,36.4285469 C29.4464303,36.4285469 28,37.8749772 28,39.6428365 L28,43.4999839 C28,45.2678432 29.4464303,46.7142735 31.2142895,46.7142735 L33.6651853,46.7142735 C32.2589336,51.2343681 33.9866143,54.8102652 35.1517942,58.3861624 C37.0000107,60.0937537 42.1830526,60.0535751 43.4285898,57.6026793 C41.299123,55.9352666 39.4910851,54.3080325 40.8973368,51.9977619 C39.3303706,50.3906171 40.1540323,47.5982031 42.5446602,46.7946307 C49.5156506,47.3772207 55.2812825,51.4553505 58.8571796,54.4285684 C60.2634313,54.4285684 61.4286113,53.2633884 61.4286113,51.8571367 L61.4286113,44.1428418 C62.8549523,44.1428418 64.0000429,42.9977512 64.0000429,41.5714102 C64.0000429,40.1450692 62.8549523,38.9999785 61.4286113,38.9999785 Z M58.8571796,51.1339216 C53.6138698,47.1160596 48.5312745,44.8459677 43.4285898,44.283467 L43.4285898,38.8593534 C48.5312745,38.2968527 53.6138698,35.9865821 58.8571796,31.9687202 L58.8571796,51.1339216 Z" id="" fill="#FFFFFF" sketch:type="MSShapeGroup"></path>
    </g>
</svg>